<svg width="567" height="459" viewBox="0 0 567 459" fill="none" xmlns="http://www.w3.org/2000/svg">
<path d="M541.056 37.669L519.372 52.1918L519.257 23.3203L541.056 37.669Z" fill="#F9F2F2"/>
<rect width="567" height="459" fill="#F9F2F2"/>
<rect width="567" height="107" fill="#1B72D0"/>
<path d="M202.256 48C201.669 48 201.134 47.8607 200.65 47.582C200.181 47.2887 199.799 46.9073 199.506 46.438C199.227 45.954 199.088 45.4187 199.088 44.832V42.918H202.256V44.678C202.256 44.722 202.263 44.7587 202.278 44.788C202.307 44.8027 202.344 44.81 202.388 44.81H211.584C211.628 44.81 211.657 44.8027 211.672 44.788C211.701 44.7587 211.716 44.722 211.716 44.678V32.16H214.928V44.832C214.928 45.4187 214.781 45.954 214.488 46.438C214.195 46.9073 213.806 47.2887 213.322 47.582C212.853 47.8607 212.332 48 211.76 48H202.256ZM220.412 48C219.855 48 219.334 47.8607 218.85 47.582C218.381 47.2887 218.007 46.9073 217.728 46.438C217.449 45.9687 217.31 45.4553 217.31 44.898V40.036H227.122V38.496C227.122 38.4667 227.107 38.4373 227.078 38.408C227.049 38.3787 227.019 38.364 226.99 38.364H217.31V35.24H227.144C227.716 35.24 228.237 35.3867 228.706 35.68C229.175 35.9587 229.549 36.3327 229.828 36.802C230.107 37.2713 230.246 37.7847 230.246 38.342V48H220.412ZM220.566 44.876H227.122V42.83H220.434V44.744C220.434 44.7733 220.449 44.8027 220.478 44.832C220.507 44.8613 220.537 44.876 220.566 44.876ZM232.415 48V35.24H242.249C242.821 35.24 243.341 35.3867 243.811 35.68C244.28 35.9587 244.654 36.3327 244.933 36.802C245.211 37.2713 245.351 37.7847 245.351 38.342V48H242.227V38.496C242.227 38.4667 242.212 38.4373 242.183 38.408C242.168 38.3787 242.139 38.364 242.095 38.364H235.671C235.641 38.364 235.612 38.3787 235.583 38.408C235.553 38.4373 235.539 38.4667 235.539 38.496V48H232.415ZM250.813 48C250.256 48 249.735 47.8607 249.251 47.582C248.782 47.2887 248.408 46.9073 248.129 46.438C247.85 45.9687 247.711 45.4553 247.711 44.898V35.24H250.835V44.744C250.835 44.7733 250.85 44.8027 250.879 44.832C250.908 44.8613 250.938 44.876 250.967 44.876H257.391C257.42 44.876 257.45 44.8613 257.479 44.832C257.508 44.8027 257.523 44.7733 257.523 44.744V35.24H260.647V44.898C260.647 45.4553 260.508 45.9687 260.229 46.438C259.95 46.9073 259.576 47.2887 259.107 47.582C258.638 47.8607 258.117 48 257.545 48H250.813ZM266.088 48C265.53 48 265.01 47.8607 264.526 47.582C264.056 47.2887 263.682 46.9073 263.404 46.438C263.125 45.9687 262.986 45.4553 262.986 44.898V40.036H272.798V38.496C272.798 38.4667 272.783 38.4373 272.754 38.408C272.724 38.3787 272.695 38.364 272.666 38.364H262.986V35.24H272.82C273.392 35.24 273.912 35.3867 274.382 35.68C274.851 35.9587 275.225 36.3327 275.504 36.802C275.782 37.2713 275.922 37.7847 275.922 38.342V48H266.088ZM266.242 44.876H272.798V42.83H266.11V44.744C266.11 44.7733 266.124 44.8027 266.154 44.832C266.183 44.8613 266.212 44.876 266.242 44.876ZM277.746 48V38.342C277.746 37.7847 277.885 37.2713 278.164 36.802C278.457 36.3327 278.838 35.9587 279.308 35.68C279.792 35.3867 280.312 35.24 280.87 35.24H287.932V38.364H281.002C280.972 38.364 280.943 38.3787 280.914 38.408C280.884 38.4373 280.87 38.4667 280.87 38.496V48H277.746ZM296.332 48V42.06C296.332 41.5613 296.449 41.114 296.684 40.718C296.919 40.3073 297.234 39.9847 297.63 39.75C298.041 39.5153 298.495 39.398 298.994 39.398H309.664C309.899 39.398 310.097 39.3173 310.258 39.156C310.434 38.98 310.522 38.7747 310.522 38.54V34.822C310.522 34.5873 310.434 34.3893 310.258 34.228C310.097 34.052 309.899 33.964 309.664 33.964H298.994C298.759 33.964 298.554 34.052 298.378 34.228C298.217 34.3893 298.136 34.5873 298.136 34.822V35.438H296.332V34.822C296.332 34.3233 296.449 33.876 296.684 33.48C296.919 33.0693 297.234 32.7467 297.63 32.512C298.041 32.2627 298.495 32.138 298.994 32.138H309.664C310.148 32.138 310.588 32.2627 310.984 32.512C311.395 32.7467 311.717 33.0693 311.952 33.48C312.201 33.876 312.326 34.3233 312.326 34.822V38.54C312.326 39.024 312.201 39.4713 311.952 39.882C311.717 40.278 311.395 40.6007 310.984 40.85C310.588 41.0847 310.148 41.202 309.664 41.202H298.994C298.759 41.202 298.554 41.29 298.378 41.466C298.217 41.6273 298.136 41.8253 298.136 42.06V45.338C298.136 45.5727 298.217 45.778 298.378 45.954C298.554 46.1153 298.759 46.196 298.994 46.196H312.326V48H296.332ZM317.256 48C316.757 48 316.303 47.8827 315.892 47.648C315.496 47.3987 315.181 47.076 314.946 46.68C314.711 46.2693 314.594 45.822 314.594 45.338V34.844C314.594 34.3453 314.711 33.898 314.946 33.502C315.181 33.0913 315.496 32.7687 315.892 32.534C316.303 32.2847 316.757 32.16 317.256 32.16H327.926C328.41 32.16 328.85 32.2847 329.246 32.534C329.657 32.7687 329.979 33.0913 330.214 33.502C330.463 33.898 330.588 34.3453 330.588 34.844V45.338C330.588 45.822 330.463 46.2693 330.214 46.68C329.979 47.076 329.657 47.3987 329.246 47.648C328.85 47.8827 328.41 48 327.926 48H317.256ZM316.618 46.196H327.926C328.161 46.196 328.359 46.1153 328.52 45.954C328.696 45.778 328.784 45.5727 328.784 45.338V36.164L316.618 46.196ZM316.398 44.018L328.542 33.986H317.256C317.021 33.986 316.816 34.074 316.64 34.25C316.479 34.4113 316.398 34.6093 316.398 34.844V44.018ZM332.942 48V42.06C332.942 41.5613 333.059 41.114 333.294 40.718C333.528 40.3073 333.844 39.9847 334.24 39.75C334.65 39.5153 335.105 39.398 335.604 39.398H346.274C346.508 39.398 346.706 39.3173 346.868 39.156C347.044 38.98 347.132 38.7747 347.132 38.54V34.822C347.132 34.5873 347.044 34.3893 346.868 34.228C346.706 34.052 346.508 33.964 346.274 33.964H335.604C335.369 33.964 335.164 34.052 334.988 34.228C334.826 34.3893 334.746 34.5873 334.746 34.822V35.438H332.942V34.822C332.942 34.3233 333.059 33.876 333.294 33.48C333.528 33.0693 333.844 32.7467 334.24 32.512C334.65 32.2627 335.105 32.138 335.604 32.138H346.274C346.758 32.138 347.198 32.2627 347.594 32.512C348.004 32.7467 348.327 33.0693 348.562 33.48C348.811 33.876 348.936 34.3233 348.936 34.822V38.54C348.936 39.024 348.811 39.4713 348.562 39.882C348.327 40.278 348.004 40.6007 347.594 40.85C347.198 41.0847 346.758 41.202 346.274 41.202H335.604C335.369 41.202 335.164 41.29 334.988 41.466C334.826 41.6273 334.746 41.8253 334.746 42.06V45.338C334.746 45.5727 334.826 45.778 334.988 45.954C335.164 46.1153 335.369 46.196 335.604 46.196H348.936V48H332.942ZM353.865 48C353.367 48 352.912 47.8827 352.501 47.648C352.105 47.3987 351.79 47.076 351.555 46.68C351.321 46.2693 351.203 45.822 351.203 45.338V44.7H353.007V45.338C353.007 45.5727 353.088 45.778 353.249 45.954C353.425 46.1153 353.631 46.196 353.865 46.196H364.535C364.77 46.196 364.968 46.1153 365.129 45.954C365.305 45.778 365.393 45.5727 365.393 45.338V41.598C365.393 41.3633 365.305 41.1653 365.129 41.004C364.968 40.828 364.77 40.74 364.535 40.74H351.203V32.138H367.197V33.964H353.865C353.631 33.964 353.425 34.052 353.249 34.228C353.088 34.3893 353.007 34.5873 353.007 34.822V38.056C353.007 38.2907 353.088 38.496 353.249 38.672C353.425 38.848 353.631 38.936 353.865 38.936H364.535C365.019 38.936 365.459 39.0533 365.855 39.288C366.266 39.5227 366.589 39.8453 366.823 40.256C367.073 40.652 367.197 41.0993 367.197 41.598V45.338C367.197 45.822 367.073 46.2693 366.823 46.68C366.589 47.076 366.266 47.3987 365.855 47.648C365.459 47.8827 365.019 48 364.535 48H353.865Z" fill="#F9F2F2"/>
<circle cx="358.5" cy="274.5" r="17.5" fill="#1B72D0"/>
<path d="M188.52 162V150.46L186.86 152.46H184.02L188.1 147.6H190.68V162H188.52Z" fill="#969494"/>
<path d="M268.14 162V156.54C268.14 156.047 268.253 155.607 268.48 155.22C268.72 154.833 269.033 154.527 269.42 154.3C269.82 154.06 270.26 153.94 270.74 153.94H279.88C280.013 153.94 280.127 153.893 280.22 153.8C280.327 153.693 280.38 153.573 280.38 153.44V150.26C280.38 150.127 280.327 150.013 280.22 149.92C280.127 149.813 280.013 149.76 279.88 149.76H270.8C270.667 149.76 270.547 149.813 270.44 149.92C270.347 150.013 270.3 150.127 270.3 150.26V151.04H268.14V150.2C268.14 149.707 268.253 149.267 268.48 148.88C268.72 148.493 269.033 148.18 269.42 147.94C269.82 147.7 270.26 147.58 270.74 147.58H279.94C280.407 147.58 280.833 147.7 281.22 147.94C281.62 148.18 281.94 148.493 282.18 148.88C282.42 149.267 282.54 149.707 282.54 150.2V153.5C282.54 153.98 282.42 154.42 282.18 154.82C281.94 155.207 281.62 155.52 281.22 155.76C280.833 155.987 280.407 156.1 279.94 156.1H270.8C270.667 156.1 270.547 156.153 270.44 156.26C270.347 156.353 270.3 156.467 270.3 156.6V159.34C270.3 159.473 270.347 159.593 270.44 159.7C270.547 159.793 270.667 159.84 270.8 159.84H282.54V162H268.14Z" fill="#969494"/>
<path d="M351.68 162C351.187 162 350.747 161.88 350.36 161.64C349.973 161.4 349.66 161.087 349.42 160.7C349.18 160.313 349.06 159.88 349.06 159.4V158.8H351.24V159.34C351.24 159.473 351.287 159.593 351.38 159.7C351.473 159.793 351.587 159.84 351.72 159.84H360.82C360.953 159.84 361.067 159.793 361.16 159.7C361.253 159.593 361.3 159.473 361.3 159.34V156.26C361.3 156.127 361.253 156.013 361.16 155.92C361.067 155.813 360.953 155.76 360.82 155.76H351.68V153.6H360.2C360.347 153.6 360.467 153.553 360.56 153.46C360.653 153.353 360.7 153.233 360.7 153.1V150.26C360.7 150.127 360.653 150.013 360.56 149.92C360.467 149.813 360.347 149.76 360.2 149.76H351.72C351.587 149.76 351.473 149.813 351.38 149.92C351.287 150.013 351.24 150.127 351.24 150.26V151H349.06V150.2C349.06 149.707 349.173 149.267 349.4 148.88C349.64 148.493 349.96 148.18 350.36 147.94C350.76 147.7 351.2 147.58 351.68 147.58H360.26C360.753 147.58 361.193 147.7 361.58 147.94C361.98 148.18 362.293 148.493 362.52 148.88C362.747 149.267 362.86 149.707 362.86 150.2V153.16C362.86 153.333 362.84 153.507 362.8 153.68C362.773 153.853 362.727 154.013 362.66 154.16C362.953 154.453 363.16 154.78 363.28 155.14C363.4 155.5 363.46 155.853 363.46 156.2V159.4C363.46 159.88 363.34 160.313 363.1 160.7C362.873 161.087 362.56 161.4 362.16 161.64C361.773 161.88 361.347 162 360.88 162H351.68Z" fill="#969494"/>
<path d="M438.64 162V158.34H429.12V156.16L438.64 147.58H440.8V156.16H442.92V158.34H440.8V162H438.64ZM432.28 156.16H438.64V150.74L432.28 156.16Z" fill="#969494"/>
<path d="M513.74 162C513.26 162 512.82 161.88 512.42 161.64C512.033 161.4 511.72 161.087 511.48 160.7C511.253 160.313 511.14 159.88 511.14 159.4V158.62H513.3V159.34C513.3 159.473 513.347 159.593 513.44 159.7C513.547 159.793 513.667 159.84 513.8 159.84H522.88C523.013 159.84 523.127 159.793 523.22 159.7C523.327 159.593 523.38 159.473 523.38 159.34V156.2C523.38 156.067 523.327 155.953 523.22 155.86C523.127 155.753 523.013 155.7 522.88 155.7H511.14V147.58H525.54V149.76H513.8C513.667 149.76 513.547 149.813 513.44 149.92C513.347 150.013 513.3 150.127 513.3 150.26V153.04C513.3 153.173 513.347 153.293 513.44 153.4C513.547 153.493 513.667 153.54 513.8 153.54H522.94C523.407 153.54 523.833 153.653 524.22 153.88C524.62 154.107 524.94 154.42 525.18 154.82C525.42 155.22 525.54 155.66 525.54 156.14V159.4C525.54 159.88 525.42 160.313 525.18 160.7C524.94 161.087 524.62 161.4 524.22 161.64C523.833 161.88 523.407 162 522.94 162H513.74Z" fill="#969494"/>
<path d="M45.74 222C45.26 222 44.82 221.88 44.42 221.64C44.0333 221.4 43.72 221.087 43.48 220.7C43.2533 220.313 43.14 219.88 43.14 219.4V210.2C43.14 209.707 43.2533 209.267 43.48 208.88C43.72 208.493 44.0333 208.18 44.42 207.94C44.82 207.7 45.26 207.58 45.74 207.58H55.14V209.76H45.8C45.6667 209.76 45.5467 209.813 45.44 209.92C45.3467 210.013 45.3 210.127 45.3 210.26V213C45.3 213.133 45.3467 213.253 45.44 213.36C45.5467 213.453 45.6667 213.5 45.8 213.5H54.94C55.4067 213.5 55.8333 213.62 56.22 213.86C56.62 214.087 56.94 214.4 57.18 214.8C57.42 215.187 57.54 215.62 57.54 216.1V219.4C57.54 219.88 57.42 220.313 57.18 220.7C56.94 221.087 56.62 221.4 56.22 221.64C55.8333 221.88 55.4067 222 54.94 222H45.74ZM45.8 219.84H54.88C55.0133 219.84 55.1267 219.793 55.22 219.7C55.3267 219.593 55.38 219.473 55.38 219.34V216.16C55.38 216.027 55.3267 215.913 55.22 215.82C55.1267 215.713 55.0133 215.66 54.88 215.66H45.3V219.34C45.3 219.473 45.3467 219.593 45.44 219.7C45.5467 219.793 45.6667 219.84 45.8 219.84Z" fill="#969494"/>
<path d="M120.9 222V210.24C120.9 210.107 120.847 209.993 120.74 209.9C120.647 209.807 120.533 209.76 120.4 209.76H111.06V207.58H120.46C120.94 207.58 121.373 207.7 121.76 207.94C122.16 208.167 122.473 208.48 122.7 208.88C122.94 209.267 123.06 209.7 123.06 210.18V222H120.9Z" fill="#969494"/>
<path d="M185.74 222C185.26 222 184.82 221.88 184.42 221.64C184.033 221.4 183.72 221.087 183.48 220.7C183.253 220.313 183.14 219.88 183.14 219.4V216.14C183.14 215.887 183.187 215.633 183.28 215.38C183.373 215.113 183.493 214.86 183.64 214.62C183.493 214.38 183.373 214.133 183.28 213.88C183.187 213.613 183.14 213.353 183.14 213.1V210.2C183.14 209.707 183.253 209.267 183.48 208.88C183.72 208.493 184.033 208.18 184.42 207.94C184.82 207.7 185.26 207.58 185.74 207.58H194.94C195.34 207.58 195.72 207.68 196.08 207.88C196.44 208.08 196.747 208.347 197 208.68C197.267 209.013 197.447 209.373 197.54 209.76V213.1C197.54 213.607 197.367 214.113 197.02 214.62C197.367 215.1 197.54 215.607 197.54 216.14V219.4C197.54 219.88 197.42 220.313 197.18 220.7C196.94 221.087 196.62 221.4 196.22 221.64C195.833 221.88 195.407 222 194.94 222H185.74ZM185.8 219.84H194.88C195.013 219.84 195.127 219.793 195.22 219.7C195.327 219.593 195.38 219.473 195.38 219.34V216.2C195.38 216.067 195.327 215.953 195.22 215.86C195.127 215.753 195.013 215.7 194.88 215.7H185.8C185.667 215.7 185.547 215.753 185.44 215.86C185.347 215.953 185.3 216.067 185.3 216.2V219.34C185.3 219.473 185.347 219.593 185.44 219.7C185.547 219.793 185.667 219.84 185.8 219.84ZM185.8 213.76H194.88C195.013 213.76 195.127 213.713 195.22 213.62C195.327 213.513 195.38 213.393 195.38 213.26V210.28C195.38 210.147 195.327 210.033 195.22 209.94C195.127 209.833 195.013 209.78 194.88 209.78H185.8C185.667 209.78 185.547 209.833 185.44 209.94C185.347 210.033 185.3 210.147 185.3 210.28V213.26C185.3 213.393 185.347 213.513 185.44 213.62C185.547 213.713 185.667 213.76 185.8 213.76Z" fill="#969494"/>
<path d="M272.66 222C272.26 222 271.887 221.907 271.54 221.72C271.193 221.533 270.893 221.28 270.64 220.96C270.387 220.627 270.207 220.253 270.1 219.84H281.8C281.933 219.84 282.047 219.793 282.14 219.7C282.247 219.593 282.3 219.473 282.3 219.34V216.58C282.3 216.433 282.247 216.313 282.14 216.22C282.047 216.127 281.933 216.08 281.8 216.08H272.66C272.167 216.08 271.727 215.96 271.34 215.72C270.953 215.48 270.64 215.167 270.4 214.78C270.16 214.38 270.04 213.947 270.04 213.48V210.2C270.04 209.707 270.16 209.267 270.4 208.88C270.64 208.493 270.953 208.18 271.34 207.94C271.74 207.7 272.18 207.58 272.66 207.58H281.86C282.327 207.58 282.753 207.7 283.14 207.94C283.54 208.18 283.853 208.493 284.08 208.88C284.32 209.267 284.44 209.707 284.44 210.2V219.4C284.44 219.88 284.32 220.313 284.08 220.7C283.853 221.087 283.54 221.4 283.14 221.64C282.753 221.88 282.327 222 281.86 222H272.66ZM272.72 213.9H282.3V210.26C282.3 210.127 282.247 210.013 282.14 209.92C282.047 209.813 281.933 209.76 281.8 209.76H272.72C272.587 209.76 272.467 209.813 272.36 209.92C272.267 210.013 272.22 210.127 272.22 210.26V213.42C272.22 213.553 272.267 213.667 272.36 213.76C272.467 213.853 272.587 213.9 272.72 213.9Z" fill="#969494"/>
<path d="M352.52 222V210.46L350.86 212.46H348.02L352.1 207.6H354.68V222H352.52ZM359.553 222C359.073 222 358.633 221.88 358.233 221.64C357.846 221.387 357.533 221.06 357.293 220.66C357.066 220.247 356.953 219.807 356.953 219.34V210.24C356.953 209.76 357.066 209.32 357.293 208.92C357.533 208.52 357.846 208.2 358.233 207.96C358.633 207.72 359.073 207.6 359.553 207.6H368.753C369.219 207.6 369.646 207.72 370.033 207.96C370.433 208.2 370.753 208.52 370.993 208.92C371.233 209.32 371.353 209.76 371.353 210.24V219.34C371.353 219.807 371.233 220.247 370.993 220.66C370.753 221.06 370.433 221.387 370.033 221.64C369.646 221.88 369.219 222 368.753 222H359.553ZM359.833 219.76H368.693C368.826 219.76 368.939 219.713 369.033 219.62C369.139 219.527 369.193 219.413 369.193 219.28V212.02L359.833 219.76ZM359.113 217.54L368.453 209.8H359.613C359.479 209.8 359.359 209.853 359.253 209.96C359.159 210.053 359.113 210.167 359.113 210.3V217.54Z" fill="#969494"/>
<path d="M434.52 222V210.46L432.86 212.46H430.02L434.1 207.6H436.68V222H434.52ZM442.333 222V210.46L440.673 212.46H437.833L441.913 207.6H444.493V222H442.333Z" fill="#969494"/>
<path d="M510.52 222V210.46L508.86 212.46H506.02L510.1 207.6H512.68V222H510.52ZM514.953 222V216.54C514.953 216.047 515.066 215.607 515.293 215.22C515.533 214.833 515.846 214.527 516.233 214.3C516.633 214.06 517.073 213.94 517.553 213.94H526.693C526.826 213.94 526.939 213.893 527.033 213.8C527.139 213.693 527.193 213.573 527.193 213.44V210.26C527.193 210.127 527.139 210.013 527.033 209.92C526.939 209.813 526.826 209.76 526.693 209.76H517.613C517.479 209.76 517.359 209.813 517.253 209.92C517.159 210.013 517.113 210.127 517.113 210.26V211.04H514.953V210.2C514.953 209.707 515.066 209.267 515.293 208.88C515.533 208.493 515.846 208.18 516.233 207.94C516.633 207.7 517.073 207.58 517.553 207.58H526.753C527.219 207.58 527.646 207.7 528.033 207.94C528.433 208.18 528.753 208.493 528.993 208.88C529.233 209.267 529.353 209.707 529.353 210.2V213.5C529.353 213.98 529.233 214.42 528.993 214.82C528.753 215.207 528.433 215.52 528.033 215.76C527.646 215.987 527.219 216.1 526.753 216.1H517.613C517.479 216.1 517.359 216.153 517.253 216.26C517.159 216.353 517.113 216.467 517.113 216.6V219.34C517.113 219.473 517.159 219.593 517.253 219.7C517.359 219.793 517.479 219.84 517.613 219.84H529.353V222H514.953Z" fill="#969494"/>
<path d="M46.52 282V270.46L44.86 272.46H42.02L46.1 267.6H48.68V282H46.52ZM53.4925 282C52.9992 282 52.5592 281.88 52.1725 281.64C51.7858 281.4 51.4725 281.087 51.2325 280.7C50.9925 280.313 50.8725 279.88 50.8725 279.4V278.8H53.0525V279.34C53.0525 279.473 53.0992 279.593 53.1925 279.7C53.2858 279.793 53.3992 279.84 53.5325 279.84H62.6325C62.7658 279.84 62.8792 279.793 62.9725 279.7C63.0658 279.593 63.1125 279.473 63.1125 279.34V276.26C63.1125 276.127 63.0658 276.013 62.9725 275.92C62.8792 275.813 62.7658 275.76 62.6325 275.76H53.4925V273.6H62.0125C62.1592 273.6 62.2792 273.553 62.3725 273.46C62.4658 273.353 62.5125 273.233 62.5125 273.1V270.26C62.5125 270.127 62.4658 270.013 62.3725 269.92C62.2792 269.813 62.1592 269.76 62.0125 269.76H53.5325C53.3992 269.76 53.2858 269.813 53.1925 269.92C53.0992 270.013 53.0525 270.127 53.0525 270.26V271H50.8725V270.2C50.8725 269.707 50.9858 269.267 51.2125 268.88C51.4525 268.493 51.7725 268.18 52.1725 267.94C52.5725 267.7 53.0125 267.58 53.4925 267.58H62.0725C62.5658 267.58 63.0058 267.7 63.3925 267.94C63.7925 268.18 64.1058 268.493 64.3325 268.88C64.5592 269.267 64.6725 269.707 64.6725 270.2V273.16C64.6725 273.333 64.6525 273.507 64.6125 273.68C64.5858 273.853 64.5392 274.013 64.4725 274.16C64.7658 274.453 64.9725 274.78 65.0925 275.14C65.2125 275.5 65.2725 275.853 65.2725 276.2V279.4C65.2725 279.88 65.1525 280.313 64.9125 280.7C64.6858 281.087 64.3725 281.4 63.9725 281.64C63.5858 281.88 63.1592 282 62.6925 282H53.4925Z" fill="#969494"/>
<path d="M115.52 282V270.46L113.86 272.46H111.02L115.1 267.6H117.68V282H115.52ZM128.453 282V278.34H118.933V276.16L128.453 267.58H130.613V276.16H132.733V278.34H130.613V282H128.453ZM122.093 276.16H128.453V270.74L122.093 276.16Z" fill="#969494"/>
<path d="M186.52 282V270.46L184.86 272.46H182.02L186.1 267.6H188.68V282H186.52ZM193.553 282C193.073 282 192.633 281.88 192.233 281.64C191.846 281.4 191.533 281.087 191.293 280.7C191.066 280.313 190.953 279.88 190.953 279.4V278.62H193.113V279.34C193.113 279.473 193.159 279.593 193.253 279.7C193.359 279.793 193.479 279.84 193.613 279.84H202.693C202.826 279.84 202.939 279.793 203.033 279.7C203.139 279.593 203.193 279.473 203.193 279.34V276.2C203.193 276.067 203.139 275.953 203.033 275.86C202.939 275.753 202.826 275.7 202.693 275.7H190.953V267.58H205.353V269.76H193.613C193.479 269.76 193.359 269.813 193.253 269.92C193.159 270.013 193.113 270.127 193.113 270.26V273.04C193.113 273.173 193.159 273.293 193.253 273.4C193.359 273.493 193.479 273.54 193.613 273.54H202.753C203.219 273.54 203.646 273.653 204.033 273.88C204.433 274.107 204.753 274.42 204.993 274.82C205.233 275.22 205.353 275.66 205.353 276.14V279.4C205.353 279.88 205.233 280.313 204.993 280.7C204.753 281.087 204.433 281.4 204.033 281.64C203.646 281.88 203.219 282 202.753 282H193.553Z" fill="#969494"/>
<path d="M273.52 282V270.46L271.86 272.46H269.02L273.1 267.6H275.68V282H273.52ZM280.553 282C280.073 282 279.633 281.88 279.233 281.64C278.846 281.4 278.533 281.087 278.293 280.7C278.066 280.313 277.953 279.88 277.953 279.4V270.2C277.953 269.707 278.066 269.267 278.293 268.88C278.533 268.493 278.846 268.18 279.233 267.94C279.633 267.7 280.073 267.58 280.553 267.58H289.953V269.76H280.613C280.479 269.76 280.359 269.813 280.253 269.92C280.159 270.013 280.113 270.127 280.113 270.26V273C280.113 273.133 280.159 273.253 280.253 273.36C280.359 273.453 280.479 273.5 280.613 273.5H289.753C290.219 273.5 290.646 273.62 291.033 273.86C291.433 274.087 291.753 274.4 291.993 274.8C292.233 275.187 292.353 275.62 292.353 276.1V279.4C292.353 279.88 292.233 280.313 291.993 280.7C291.753 281.087 291.433 281.4 291.033 281.64C290.646 281.88 290.219 282 289.753 282H280.553ZM280.613 279.84H289.693C289.826 279.84 289.939 279.793 290.033 279.7C290.139 279.593 290.193 279.473 290.193 279.34V276.16C290.193 276.027 290.139 275.913 290.033 275.82C289.939 275.713 289.826 275.66 289.693 275.66H280.113V279.34C280.113 279.473 280.159 279.593 280.253 279.7C280.359 279.793 280.479 279.84 280.613 279.84Z" fill="#3C3636"/>
<path d="M352.52 282V270.46L350.86 272.46H348.02L352.1 267.6H354.68V282H352.52ZM365.713 282V270.24C365.713 270.107 365.659 269.993 365.553 269.9C365.459 269.807 365.346 269.76 365.213 269.76H355.873V267.58H365.273C365.753 267.58 366.186 267.7 366.573 267.94C366.973 268.167 367.286 268.48 367.513 268.88C367.753 269.267 367.873 269.7 367.873 270.18V282H365.713Z" fill="#F9F2F2"/>
<path d="M434.52 282V270.46L432.86 272.46H430.02L434.1 267.6H436.68V282H434.52ZM441.553 282C441.073 282 440.633 281.88 440.233 281.64C439.846 281.4 439.533 281.087 439.293 280.7C439.066 280.313 438.953 279.88 438.953 279.4V276.14C438.953 275.887 438.999 275.633 439.093 275.38C439.186 275.113 439.306 274.86 439.453 274.62C439.306 274.38 439.186 274.133 439.093 273.88C438.999 273.613 438.953 273.353 438.953 273.1V270.2C438.953 269.707 439.066 269.267 439.293 268.88C439.533 268.493 439.846 268.18 440.233 267.94C440.633 267.7 441.073 267.58 441.553 267.58H450.753C451.153 267.58 451.533 267.68 451.893 267.88C452.253 268.08 452.559 268.347 452.813 268.68C453.079 269.013 453.259 269.373 453.353 269.76V273.1C453.353 273.607 453.179 274.113 452.833 274.62C453.179 275.1 453.353 275.607 453.353 276.14V279.4C453.353 279.88 453.233 280.313 452.993 280.7C452.753 281.087 452.433 281.4 452.033 281.64C451.646 281.88 451.219 282 450.753 282H441.553ZM441.613 279.84H450.693C450.826 279.84 450.939 279.793 451.033 279.7C451.139 279.593 451.193 279.473 451.193 279.34V276.2C451.193 276.067 451.139 275.953 451.033 275.86C450.939 275.753 450.826 275.7 450.693 275.7H441.613C441.479 275.7 441.359 275.753 441.253 275.86C441.159 275.953 441.113 276.067 441.113 276.2V279.34C441.113 279.473 441.159 279.593 441.253 279.7C441.359 279.793 441.479 279.84 441.613 279.84ZM441.613 273.76H450.693C450.826 273.76 450.939 273.713 451.033 273.62C451.139 273.513 451.193 273.393 451.193 273.26V270.28C451.193 270.147 451.139 270.033 451.033 269.94C450.939 269.833 450.826 269.78 450.693 269.78H441.613C441.479 269.78 441.359 269.833 441.253 269.94C441.159 270.033 441.113 270.147 441.113 270.28V273.26C441.113 273.393 441.159 273.513 441.253 273.62C441.359 273.713 441.479 273.76 441.613 273.76Z" fill="#3C3636"/>
<path d="M510.52 282V270.46L508.86 272.46H506.02L510.1 267.6H512.68V282H510.52ZM517.473 282C517.073 282 516.699 281.907 516.353 281.72C516.006 281.533 515.706 281.28 515.453 280.96C515.199 280.627 515.019 280.253 514.913 279.84H526.613C526.746 279.84 526.859 279.793 526.953 279.7C527.059 279.593 527.113 279.473 527.113 279.34V276.58C527.113 276.433 527.059 276.313 526.953 276.22C526.859 276.127 526.746 276.08 526.613 276.08H517.473C516.979 276.08 516.539 275.96 516.153 275.72C515.766 275.48 515.453 275.167 515.213 274.78C514.973 274.38 514.853 273.947 514.853 273.48V270.2C514.853 269.707 514.973 269.267 515.213 268.88C515.453 268.493 515.766 268.18 516.153 267.94C516.553 267.7 516.993 267.58 517.473 267.58H526.673C527.139 267.58 527.566 267.7 527.953 267.94C528.353 268.18 528.666 268.493 528.893 268.88C529.133 269.267 529.253 269.707 529.253 270.2V279.4C529.253 279.88 529.133 280.313 528.893 280.7C528.666 281.087 528.353 281.4 527.953 281.64C527.566 281.88 527.139 282 526.673 282H517.473ZM517.533 273.9H527.113V270.26C527.113 270.127 527.059 270.013 526.953 269.92C526.859 269.813 526.746 269.76 526.613 269.76H517.533C517.399 269.76 517.279 269.813 517.173 269.92C517.079 270.013 517.033 270.127 517.033 270.26V273.42C517.033 273.553 517.079 273.667 517.173 273.76C517.279 273.853 517.399 273.9 517.533 273.9Z" fill="#3C3636"/>
<path d="M43.14 342V336.54C43.14 336.047 43.2533 335.607 43.48 335.22C43.72 334.833 44.0333 334.527 44.42 334.3C44.82 334.06 45.26 333.94 45.74 333.94H54.88C55.0133 333.94 55.1267 333.893 55.22 333.8C55.3267 333.693 55.38 333.573 55.38 333.44V330.26C55.38 330.127 55.3267 330.013 55.22 329.92C55.1267 329.813 55.0133 329.76 54.88 329.76H45.8C45.6667 329.76 45.5467 329.813 45.44 329.92C45.3467 330.013 45.3 330.127 45.3 330.26V331.04H43.14V330.2C43.14 329.707 43.2533 329.267 43.48 328.88C43.72 328.493 44.0333 328.18 44.42 327.94C44.82 327.7 45.26 327.58 45.74 327.58H54.94C55.4067 327.58 55.8333 327.7 56.22 327.94C56.62 328.18 56.94 328.493 57.18 328.88C57.42 329.267 57.54 329.707 57.54 330.2V333.5C57.54 333.98 57.42 334.42 57.18 334.82C56.94 335.207 56.62 335.52 56.22 335.76C55.8333 335.987 55.4067 336.1 54.94 336.1H45.8C45.6667 336.1 45.5467 336.153 45.44 336.26C45.3467 336.353 45.3 336.467 45.3 336.6V339.34C45.3 339.473 45.3467 339.593 45.44 339.7C45.5467 339.793 45.6667 339.84 45.8 339.84H57.54V342H43.14ZM62.3416 342C61.8616 342 61.4216 341.88 61.0216 341.64C60.6349 341.387 60.3216 341.06 60.0816 340.66C59.8549 340.247 59.7416 339.807 59.7416 339.34V330.24C59.7416 329.76 59.8549 329.32 60.0816 328.92C60.3216 328.52 60.6349 328.2 61.0216 327.96C61.4216 327.72 61.8616 327.6 62.3416 327.6H71.5416C72.0082 327.6 72.4349 327.72 72.8216 327.96C73.2216 328.2 73.5416 328.52 73.7816 328.92C74.0216 329.32 74.1416 329.76 74.1416 330.24V339.34C74.1416 339.807 74.0216 340.247 73.7816 340.66C73.5416 341.06 73.2216 341.387 72.8216 341.64C72.4349 341.88 72.0082 342 71.5416 342H62.3416ZM62.6216 339.76H71.4816C71.6149 339.76 71.7282 339.713 71.8216 339.62C71.9282 339.527 71.9816 339.413 71.9816 339.28V332.02L62.6216 339.76ZM61.9016 337.54L71.2416 329.8H62.4016C62.2682 329.8 62.1482 329.853 62.0416 329.96C61.9482 330.053 61.9016 330.167 61.9016 330.3V337.54Z" fill="#3C3636"/>
<path d="M112.14 342V336.54C112.14 336.047 112.253 335.607 112.48 335.22C112.72 334.833 113.033 334.527 113.42 334.3C113.82 334.06 114.26 333.94 114.74 333.94H123.88C124.013 333.94 124.127 333.893 124.22 333.8C124.327 333.693 124.38 333.573 124.38 333.44V330.26C124.38 330.127 124.327 330.013 124.22 329.92C124.127 329.813 124.013 329.76 123.88 329.76H114.8C114.667 329.76 114.547 329.813 114.44 329.92C114.347 330.013 114.3 330.127 114.3 330.26V331.04H112.14V330.2C112.14 329.707 112.253 329.267 112.48 328.88C112.72 328.493 113.033 328.18 113.42 327.94C113.82 327.7 114.26 327.58 114.74 327.58H123.94C124.407 327.58 124.833 327.7 125.22 327.94C125.62 328.18 125.94 328.493 126.18 328.88C126.42 329.267 126.54 329.707 126.54 330.2V333.5C126.54 333.98 126.42 334.42 126.18 334.82C125.94 335.207 125.62 335.52 125.22 335.76C124.833 335.987 124.407 336.1 123.94 336.1H114.8C114.667 336.1 114.547 336.153 114.44 336.26C114.347 336.353 114.3 336.467 114.3 336.6V339.34C114.3 339.473 114.347 339.593 114.44 339.7C114.547 339.793 114.667 339.84 114.8 339.84H126.54V342H112.14ZM132.122 342V330.46L130.462 332.46H127.622L131.702 327.6H134.282V342H132.122Z" fill="#3C3636"/>
<path d="M183.14 342V336.54C183.14 336.047 183.253 335.607 183.48 335.22C183.72 334.833 184.033 334.527 184.42 334.3C184.82 334.06 185.26 333.94 185.74 333.94H194.88C195.013 333.94 195.127 333.893 195.22 333.8C195.327 333.693 195.38 333.573 195.38 333.44V330.26C195.38 330.127 195.327 330.013 195.22 329.92C195.127 329.813 195.013 329.76 194.88 329.76H185.8C185.667 329.76 185.547 329.813 185.44 329.92C185.347 330.013 185.3 330.127 185.3 330.26V331.04H183.14V330.2C183.14 329.707 183.253 329.267 183.48 328.88C183.72 328.493 184.033 328.18 184.42 327.94C184.82 327.7 185.26 327.58 185.74 327.58H194.94C195.407 327.58 195.833 327.7 196.22 327.94C196.62 328.18 196.94 328.493 197.18 328.88C197.42 329.267 197.54 329.707 197.54 330.2V333.5C197.54 333.98 197.42 334.42 197.18 334.82C196.94 335.207 196.62 335.52 196.22 335.76C195.833 335.987 195.407 336.1 194.94 336.1H185.8C185.667 336.1 185.547 336.153 185.44 336.26C185.347 336.353 185.3 336.467 185.3 336.6V339.34C185.3 339.473 185.347 339.593 185.44 339.7C185.547 339.793 185.667 339.84 185.8 339.84H197.54V342H183.14ZM199.742 342V336.54C199.742 336.047 199.855 335.607 200.082 335.22C200.322 334.833 200.635 334.527 201.022 334.3C201.422 334.06 201.862 333.94 202.342 333.94H211.482C211.615 333.94 211.728 333.893 211.822 333.8C211.928 333.693 211.982 333.573 211.982 333.44V330.26C211.982 330.127 211.928 330.013 211.822 329.92C211.728 329.813 211.615 329.76 211.482 329.76H202.402C202.268 329.76 202.148 329.813 202.042 329.92C201.948 330.013 201.902 330.127 201.902 330.26V331.04H199.742V330.2C199.742 329.707 199.855 329.267 200.082 328.88C200.322 328.493 200.635 328.18 201.022 327.94C201.422 327.7 201.862 327.58 202.342 327.58H211.542C212.008 327.58 212.435 327.7 212.822 327.94C213.222 328.18 213.542 328.493 213.782 328.88C214.022 329.267 214.142 329.707 214.142 330.2V333.5C214.142 333.98 214.022 334.42 213.782 334.82C213.542 335.207 213.222 335.52 212.822 335.76C212.435 335.987 212.008 336.1 211.542 336.1H202.402C202.268 336.1 202.148 336.153 202.042 336.26C201.948 336.353 201.902 336.467 201.902 336.6V339.34C201.902 339.473 201.948 339.593 202.042 339.7C202.148 339.793 202.268 339.84 202.402 339.84H214.142V342H199.742Z" fill="#3C3636"/>
<path d="M270.14 342V336.54C270.14 336.047 270.253 335.607 270.48 335.22C270.72 334.833 271.033 334.527 271.42 334.3C271.82 334.06 272.26 333.94 272.74 333.94H281.88C282.013 333.94 282.127 333.893 282.22 333.8C282.327 333.693 282.38 333.573 282.38 333.44V330.26C282.38 330.127 282.327 330.013 282.22 329.92C282.127 329.813 282.013 329.76 281.88 329.76H272.8C272.667 329.76 272.547 329.813 272.44 329.92C272.347 330.013 272.3 330.127 272.3 330.26V331.04H270.14V330.2C270.14 329.707 270.253 329.267 270.48 328.88C270.72 328.493 271.033 328.18 271.42 327.94C271.82 327.7 272.26 327.58 272.74 327.58H281.94C282.407 327.58 282.833 327.7 283.22 327.94C283.62 328.18 283.94 328.493 284.18 328.88C284.42 329.267 284.54 329.707 284.54 330.2V333.5C284.54 333.98 284.42 334.42 284.18 334.82C283.94 335.207 283.62 335.52 283.22 335.76C282.833 335.987 282.407 336.1 281.94 336.1H272.8C272.667 336.1 272.547 336.153 272.44 336.26C272.347 336.353 272.3 336.467 272.3 336.6V339.34C272.3 339.473 272.347 339.593 272.44 339.7C272.547 339.793 272.667 339.84 272.8 339.84H284.54V342H270.14ZM289.282 342C288.788 342 288.348 341.88 287.962 341.64C287.575 341.4 287.262 341.087 287.022 340.7C286.782 340.313 286.662 339.88 286.662 339.4V338.8H288.842V339.34C288.842 339.473 288.888 339.593 288.982 339.7C289.075 339.793 289.188 339.84 289.322 339.84H298.422C298.555 339.84 298.668 339.793 298.762 339.7C298.855 339.593 298.902 339.473 298.902 339.34V336.26C298.902 336.127 298.855 336.013 298.762 335.92C298.668 335.813 298.555 335.76 298.422 335.76H289.282V333.6H297.802C297.948 333.6 298.068 333.553 298.162 333.46C298.255 333.353 298.302 333.233 298.302 333.1V330.26C298.302 330.127 298.255 330.013 298.162 329.92C298.068 329.813 297.948 329.76 297.802 329.76H289.322C289.188 329.76 289.075 329.813 288.982 329.92C288.888 330.013 288.842 330.127 288.842 330.26V331H286.662V330.2C286.662 329.707 286.775 329.267 287.002 328.88C287.242 328.493 287.562 328.18 287.962 327.94C288.362 327.7 288.802 327.58 289.282 327.58H297.862C298.355 327.58 298.795 327.7 299.182 327.94C299.582 328.18 299.895 328.493 300.122 328.88C300.348 329.267 300.462 329.707 300.462 330.2V333.16C300.462 333.333 300.442 333.507 300.402 333.68C300.375 333.853 300.328 334.013 300.262 334.16C300.555 334.453 300.762 334.78 300.882 335.14C301.002 335.5 301.062 335.853 301.062 336.2V339.4C301.062 339.88 300.942 340.313 300.702 340.7C300.475 341.087 300.162 341.4 299.762 341.64C299.375 341.88 298.948 342 298.482 342H289.282Z" fill="#3C3636"/>
<path d="M349.14 342V336.54C349.14 336.047 349.253 335.607 349.48 335.22C349.72 334.833 350.033 334.527 350.42 334.3C350.82 334.06 351.26 333.94 351.74 333.94H360.88C361.013 333.94 361.127 333.893 361.22 333.8C361.327 333.693 361.38 333.573 361.38 333.44V330.26C361.38 330.127 361.327 330.013 361.22 329.92C361.127 329.813 361.013 329.76 360.88 329.76H351.8C351.667 329.76 351.547 329.813 351.44 329.92C351.347 330.013 351.3 330.127 351.3 330.26V331.04H349.14V330.2C349.14 329.707 349.253 329.267 349.48 328.88C349.72 328.493 350.033 328.18 350.42 327.94C350.82 327.7 351.26 327.58 351.74 327.58H360.94C361.407 327.58 361.833 327.7 362.22 327.94C362.62 328.18 362.94 328.493 363.18 328.88C363.42 329.267 363.54 329.707 363.54 330.2V333.5C363.54 333.98 363.42 334.42 363.18 334.82C362.94 335.207 362.62 335.52 362.22 335.76C361.833 335.987 361.407 336.1 360.94 336.1H351.8C351.667 336.1 351.547 336.153 351.44 336.26C351.347 336.353 351.3 336.467 351.3 336.6V339.34C351.3 339.473 351.347 339.593 351.44 339.7C351.547 339.793 351.667 339.84 351.8 339.84H363.54V342H349.14ZM374.242 342V338.34H364.722V336.16L374.242 327.58H376.402V336.16H378.522V338.34H376.402V342H374.242ZM367.882 336.16H374.242V330.74L367.882 336.16Z" fill="#3C3636"/>
<path d="M431.14 342V336.54C431.14 336.047 431.253 335.607 431.48 335.22C431.72 334.833 432.033 334.527 432.42 334.3C432.82 334.06 433.26 333.94 433.74 333.94H442.88C443.013 333.94 443.127 333.893 443.22 333.8C443.327 333.693 443.38 333.573 443.38 333.44V330.26C443.38 330.127 443.327 330.013 443.22 329.92C443.127 329.813 443.013 329.76 442.88 329.76H433.8C433.667 329.76 433.547 329.813 433.44 329.92C433.347 330.013 433.3 330.127 433.3 330.26V331.04H431.14V330.2C431.14 329.707 431.253 329.267 431.48 328.88C431.72 328.493 432.033 328.18 432.42 327.94C432.82 327.7 433.26 327.58 433.74 327.58H442.94C443.407 327.58 443.833 327.7 444.22 327.94C444.62 328.18 444.94 328.493 445.18 328.88C445.42 329.267 445.54 329.707 445.54 330.2V333.5C445.54 333.98 445.42 334.42 445.18 334.82C444.94 335.207 444.62 335.52 444.22 335.76C443.833 335.987 443.407 336.1 442.94 336.1H433.8C433.667 336.1 433.547 336.153 433.44 336.26C433.347 336.353 433.3 336.467 433.3 336.6V339.34C433.3 339.473 433.347 339.593 433.44 339.7C433.547 339.793 433.667 339.84 433.8 339.84H445.54V342H431.14ZM450.342 342C449.862 342 449.422 341.88 449.022 341.64C448.635 341.4 448.322 341.087 448.082 340.7C447.855 340.313 447.742 339.88 447.742 339.4V338.62H449.902V339.34C449.902 339.473 449.948 339.593 450.042 339.7C450.148 339.793 450.268 339.84 450.402 339.84H459.482C459.615 339.84 459.728 339.793 459.822 339.7C459.928 339.593 459.982 339.473 459.982 339.34V336.2C459.982 336.067 459.928 335.953 459.822 335.86C459.728 335.753 459.615 335.7 459.482 335.7H447.742V327.58H462.142V329.76H450.402C450.268 329.76 450.148 329.813 450.042 329.92C449.948 330.013 449.902 330.127 449.902 330.26V333.04C449.902 333.173 449.948 333.293 450.042 333.4C450.148 333.493 450.268 333.54 450.402 333.54H459.542C460.008 333.54 460.435 333.653 460.822 333.88C461.222 334.107 461.542 334.42 461.782 334.82C462.022 335.22 462.142 335.66 462.142 336.14V339.4C462.142 339.88 462.022 340.313 461.782 340.7C461.542 341.087 461.222 341.4 460.822 341.64C460.435 341.88 460.008 342 459.542 342H450.342Z" fill="#3C3636"/>
<path d="M507.14 342V336.54C507.14 336.047 507.253 335.607 507.48 335.22C507.72 334.833 508.033 334.527 508.42 334.3C508.82 334.06 509.26 333.94 509.74 333.94H518.88C519.013 333.94 519.127 333.893 519.22 333.8C519.327 333.693 519.38 333.573 519.38 333.44V330.26C519.38 330.127 519.327 330.013 519.22 329.92C519.127 329.813 519.013 329.76 518.88 329.76H509.8C509.667 329.76 509.547 329.813 509.44 329.92C509.347 330.013 509.3 330.127 509.3 330.26V331.04H507.14V330.2C507.14 329.707 507.253 329.267 507.48 328.88C507.72 328.493 508.033 328.18 508.42 327.94C508.82 327.7 509.26 327.58 509.74 327.58H518.94C519.407 327.58 519.833 327.7 520.22 327.94C520.62 328.18 520.94 328.493 521.18 328.88C521.42 329.267 521.54 329.707 521.54 330.2V333.5C521.54 333.98 521.42 334.42 521.18 334.82C520.94 335.207 520.62 335.52 520.22 335.76C519.833 335.987 519.407 336.1 518.94 336.1H509.8C509.667 336.1 509.547 336.153 509.44 336.26C509.347 336.353 509.3 336.467 509.3 336.6V339.34C509.3 339.473 509.347 339.593 509.44 339.7C509.547 339.793 509.667 339.84 509.8 339.84H521.54V342H507.14ZM526.342 342C525.862 342 525.422 341.88 525.022 341.64C524.635 341.4 524.322 341.087 524.082 340.7C523.855 340.313 523.742 339.88 523.742 339.4V330.2C523.742 329.707 523.855 329.267 524.082 328.88C524.322 328.493 524.635 328.18 525.022 327.94C525.422 327.7 525.862 327.58 526.342 327.58H535.742V329.76H526.402C526.268 329.76 526.148 329.813 526.042 329.92C525.948 330.013 525.902 330.127 525.902 330.26V333C525.902 333.133 525.948 333.253 526.042 333.36C526.148 333.453 526.268 333.5 526.402 333.5H535.542C536.008 333.5 536.435 333.62 536.822 333.86C537.222 334.087 537.542 334.4 537.782 334.8C538.022 335.187 538.142 335.62 538.142 336.1V339.4C538.142 339.88 538.022 340.313 537.782 340.7C537.542 341.087 537.222 341.4 536.822 341.64C536.435 341.88 536.008 342 535.542 342H526.342ZM526.402 339.84H535.482C535.615 339.84 535.728 339.793 535.822 339.7C535.928 339.593 535.982 339.473 535.982 339.34V336.16C535.982 336.027 535.928 335.913 535.822 335.82C535.728 335.713 535.615 335.66 535.482 335.66H525.902V339.34C525.902 339.473 525.948 339.593 526.042 339.7C526.148 339.793 526.268 339.84 526.402 339.84Z" fill="#3C3636"/>
<path d="M43.14 402V396.54C43.14 396.047 43.2533 395.607 43.48 395.22C43.72 394.833 44.0333 394.527 44.42 394.3C44.82 394.06 45.26 393.94 45.74 393.94H54.88C55.0133 393.94 55.1267 393.893 55.22 393.8C55.3267 393.693 55.38 393.573 55.38 393.44V390.26C55.38 390.127 55.3267 390.013 55.22 389.92C55.1267 389.813 55.0133 389.76 54.88 389.76H45.8C45.6667 389.76 45.5467 389.813 45.44 389.92C45.3467 390.013 45.3 390.127 45.3 390.26V391.04H43.14V390.2C43.14 389.707 43.2533 389.267 43.48 388.88C43.72 388.493 44.0333 388.18 44.42 387.94C44.82 387.7 45.26 387.58 45.74 387.58H54.94C55.4067 387.58 55.8333 387.7 56.22 387.94C56.62 388.18 56.94 388.493 57.18 388.88C57.42 389.267 57.54 389.707 57.54 390.2V393.5C57.54 393.98 57.42 394.42 57.18 394.82C56.94 395.207 56.62 395.52 56.22 395.76C55.8333 395.987 55.4067 396.1 54.94 396.1H45.8C45.6667 396.1 45.5467 396.153 45.44 396.26C45.3467 396.353 45.3 396.467 45.3 396.6V399.34C45.3 399.473 45.3467 399.593 45.44 399.7C45.5467 399.793 45.6667 399.84 45.8 399.84H57.54V402H43.14ZM68.5016 402V390.24C68.5016 390.107 68.4482 389.993 68.3416 389.9C68.2482 389.807 68.1349 389.76 68.0016 389.76H58.6616V387.58H68.0616C68.5416 387.58 68.9749 387.7 69.3616 387.94C69.7616 388.167 70.0749 388.48 70.3016 388.88C70.5416 389.267 70.6616 389.7 70.6616 390.18V402H68.5016Z" fill="#3C3636"/>
<path d="M112.14 402V396.54C112.14 396.047 112.253 395.607 112.48 395.22C112.72 394.833 113.033 394.527 113.42 394.3C113.82 394.06 114.26 393.94 114.74 393.94H123.88C124.013 393.94 124.127 393.893 124.22 393.8C124.327 393.693 124.38 393.573 124.38 393.44V390.26C124.38 390.127 124.327 390.013 124.22 389.92C124.127 389.813 124.013 389.76 123.88 389.76H114.8C114.667 389.76 114.547 389.813 114.44 389.92C114.347 390.013 114.3 390.127 114.3 390.26V391.04H112.14V390.2C112.14 389.707 112.253 389.267 112.48 388.88C112.72 388.493 113.033 388.18 113.42 387.94C113.82 387.7 114.26 387.58 114.74 387.58H123.94C124.407 387.58 124.833 387.7 125.22 387.94C125.62 388.18 125.94 388.493 126.18 388.88C126.42 389.267 126.54 389.707 126.54 390.2V393.5C126.54 393.98 126.42 394.42 126.18 394.82C125.94 395.207 125.62 395.52 125.22 395.76C124.833 395.987 124.407 396.1 123.94 396.1H114.8C114.667 396.1 114.547 396.153 114.44 396.26C114.347 396.353 114.3 396.467 114.3 396.6V399.34C114.3 399.473 114.347 399.593 114.44 399.7C114.547 399.793 114.667 399.84 114.8 399.84H126.54V402H112.14ZM131.342 402C130.862 402 130.422 401.88 130.022 401.64C129.635 401.4 129.322 401.087 129.082 400.7C128.855 400.313 128.742 399.88 128.742 399.4V396.14C128.742 395.887 128.788 395.633 128.882 395.38C128.975 395.113 129.095 394.86 129.242 394.62C129.095 394.38 128.975 394.133 128.882 393.88C128.788 393.613 128.742 393.353 128.742 393.1V390.2C128.742 389.707 128.855 389.267 129.082 388.88C129.322 388.493 129.635 388.18 130.022 387.94C130.422 387.7 130.862 387.58 131.342 387.58H140.542C140.942 387.58 141.322 387.68 141.682 387.88C142.042 388.08 142.348 388.347 142.602 388.68C142.868 389.013 143.048 389.373 143.142 389.76V393.1C143.142 393.607 142.968 394.113 142.622 394.62C142.968 395.1 143.142 395.607 143.142 396.14V399.4C143.142 399.88 143.022 400.313 142.782 400.7C142.542 401.087 142.222 401.4 141.822 401.64C141.435 401.88 141.008 402 140.542 402H131.342ZM131.402 399.84H140.482C140.615 399.84 140.728 399.793 140.822 399.7C140.928 399.593 140.982 399.473 140.982 399.34V396.2C140.982 396.067 140.928 395.953 140.822 395.86C140.728 395.753 140.615 395.7 140.482 395.7H131.402C131.268 395.7 131.148 395.753 131.042 395.86C130.948 395.953 130.902 396.067 130.902 396.2V399.34C130.902 399.473 130.948 399.593 131.042 399.7C131.148 399.793 131.268 399.84 131.402 399.84ZM131.402 393.76H140.482C140.615 393.76 140.728 393.713 140.822 393.62C140.928 393.513 140.982 393.393 140.982 393.26V390.28C140.982 390.147 140.928 390.033 140.822 389.94C140.728 389.833 140.615 389.78 140.482 389.78H131.402C131.268 389.78 131.148 389.833 131.042 389.94C130.948 390.033 130.902 390.147 130.902 390.28V393.26C130.902 393.393 130.948 393.513 131.042 393.62C131.148 393.713 131.268 393.76 131.402 393.76Z" fill="#3C3636"/>
<path d="M183.14 402V396.54C183.14 396.047 183.253 395.607 183.48 395.22C183.72 394.833 184.033 394.527 184.42 394.3C184.82 394.06 185.26 393.94 185.74 393.94H194.88C195.013 393.94 195.127 393.893 195.22 393.8C195.327 393.693 195.38 393.573 195.38 393.44V390.26C195.38 390.127 195.327 390.013 195.22 389.92C195.127 389.813 195.013 389.76 194.88 389.76H185.8C185.667 389.76 185.547 389.813 185.44 389.92C185.347 390.013 185.3 390.127 185.3 390.26V391.04H183.14V390.2C183.14 389.707 183.253 389.267 183.48 388.88C183.72 388.493 184.033 388.18 184.42 387.94C184.82 387.7 185.26 387.58 185.74 387.58H194.94C195.407 387.58 195.833 387.7 196.22 387.94C196.62 388.18 196.94 388.493 197.18 388.88C197.42 389.267 197.54 389.707 197.54 390.2V393.5C197.54 393.98 197.42 394.42 197.18 394.82C196.94 395.207 196.62 395.52 196.22 395.76C195.833 395.987 195.407 396.1 194.94 396.1H185.8C185.667 396.1 185.547 396.153 185.44 396.26C185.347 396.353 185.3 396.467 185.3 396.6V399.34C185.3 399.473 185.347 399.593 185.44 399.7C185.547 399.793 185.667 399.84 185.8 399.84H197.54V402H183.14ZM202.262 402C201.862 402 201.488 401.907 201.142 401.72C200.795 401.533 200.495 401.28 200.242 400.96C199.988 400.627 199.808 400.253 199.702 399.84H211.402C211.535 399.84 211.648 399.793 211.742 399.7C211.848 399.593 211.902 399.473 211.902 399.34V396.58C211.902 396.433 211.848 396.313 211.742 396.22C211.648 396.127 211.535 396.08 211.402 396.08H202.262C201.768 396.08 201.328 395.96 200.942 395.72C200.555 395.48 200.242 395.167 200.002 394.78C199.762 394.38 199.642 393.947 199.642 393.48V390.2C199.642 389.707 199.762 389.267 200.002 388.88C200.242 388.493 200.555 388.18 200.942 387.94C201.342 387.7 201.782 387.58 202.262 387.58H211.462C211.928 387.58 212.355 387.7 212.742 387.94C213.142 388.18 213.455 388.493 213.682 388.88C213.922 389.267 214.042 389.707 214.042 390.2V399.4C214.042 399.88 213.922 400.313 213.682 400.7C213.455 401.087 213.142 401.4 212.742 401.64C212.355 401.88 211.928 402 211.462 402H202.262ZM202.322 393.9H211.902V390.26C211.902 390.127 211.848 390.013 211.742 389.92C211.648 389.813 211.535 389.76 211.402 389.76H202.322C202.188 389.76 202.068 389.813 201.962 389.92C201.868 390.013 201.822 390.127 201.822 390.26V393.42C201.822 393.553 201.868 393.667 201.962 393.76C202.068 393.853 202.188 393.9 202.322 393.9Z" fill="#3C3636"/>
<path d="M272.68 402C272.187 402 271.747 401.88 271.36 401.64C270.973 401.4 270.66 401.087 270.42 400.7C270.18 400.313 270.06 399.88 270.06 399.4V398.8H272.24V399.34C272.24 399.473 272.287 399.593 272.38 399.7C272.473 399.793 272.587 399.84 272.72 399.84H281.82C281.953 399.84 282.067 399.793 282.16 399.7C282.253 399.593 282.3 399.473 282.3 399.34V396.26C282.3 396.127 282.253 396.013 282.16 395.92C282.067 395.813 281.953 395.76 281.82 395.76H272.68V393.6H281.2C281.347 393.6 281.467 393.553 281.56 393.46C281.653 393.353 281.7 393.233 281.7 393.1V390.26C281.7 390.127 281.653 390.013 281.56 389.92C281.467 389.813 281.347 389.76 281.2 389.76H272.72C272.587 389.76 272.473 389.813 272.38 389.92C272.287 390.013 272.24 390.127 272.24 390.26V391H270.06V390.2C270.06 389.707 270.173 389.267 270.4 388.88C270.64 388.493 270.96 388.18 271.36 387.94C271.76 387.7 272.2 387.58 272.68 387.58H281.26C281.753 387.58 282.193 387.7 282.58 387.94C282.98 388.18 283.293 388.493 283.52 388.88C283.747 389.267 283.86 389.707 283.86 390.2V393.16C283.86 393.333 283.84 393.507 283.8 393.68C283.773 393.853 283.727 394.013 283.66 394.16C283.953 394.453 284.16 394.78 284.28 395.14C284.4 395.5 284.46 395.853 284.46 396.2V399.4C284.46 399.88 284.34 400.313 284.1 400.7C283.873 401.087 283.56 401.4 283.16 401.64C282.773 401.88 282.347 402 281.88 402H272.68ZM289.263 402C288.783 402 288.343 401.88 287.943 401.64C287.557 401.387 287.243 401.06 287.003 400.66C286.777 400.247 286.663 399.807 286.663 399.34V390.24C286.663 389.76 286.777 389.32 287.003 388.92C287.243 388.52 287.557 388.2 287.943 387.96C288.343 387.72 288.783 387.6 289.263 387.6H298.463C298.93 387.6 299.357 387.72 299.743 387.96C300.143 388.2 300.463 388.52 300.703 388.92C300.943 389.32 301.063 389.76 301.063 390.24V399.34C301.063 399.807 300.943 400.247 300.703 400.66C300.463 401.06 300.143 401.387 299.743 401.64C299.357 401.88 298.93 402 298.463 402H289.263ZM289.543 399.76H298.403C298.537 399.76 298.65 399.713 298.743 399.62C298.85 399.527 298.903 399.413 298.903 399.28V392.02L289.543 399.76ZM288.823 397.54L298.163 389.8H289.323C289.19 389.8 289.07 389.853 288.963 389.96C288.87 390.053 288.823 390.167 288.823 390.3V397.54Z" fill="#3C3636"/>
<path d="M351.68 402C351.187 402 350.747 401.88 350.36 401.64C349.973 401.4 349.66 401.087 349.42 400.7C349.18 400.313 349.06 399.88 349.06 399.4V398.8H351.24V399.34C351.24 399.473 351.287 399.593 351.38 399.7C351.473 399.793 351.587 399.84 351.72 399.84H360.82C360.953 399.84 361.067 399.793 361.16 399.7C361.253 399.593 361.3 399.473 361.3 399.34V396.26C361.3 396.127 361.253 396.013 361.16 395.92C361.067 395.813 360.953 395.76 360.82 395.76H351.68V393.6H360.2C360.347 393.6 360.467 393.553 360.56 393.46C360.653 393.353 360.7 393.233 360.7 393.1V390.26C360.7 390.127 360.653 390.013 360.56 389.92C360.467 389.813 360.347 389.76 360.2 389.76H351.72C351.587 389.76 351.473 389.813 351.38 389.92C351.287 390.013 351.24 390.127 351.24 390.26V391H349.06V390.2C349.06 389.707 349.173 389.267 349.4 388.88C349.64 388.493 349.96 388.18 350.36 387.94C350.76 387.7 351.2 387.58 351.68 387.58H360.26C360.753 387.58 361.193 387.7 361.58 387.94C361.98 388.18 362.293 388.493 362.52 388.88C362.747 389.267 362.86 389.707 362.86 390.2V393.16C362.86 393.333 362.84 393.507 362.8 393.68C362.773 393.853 362.727 394.013 362.66 394.16C362.953 394.453 363.16 394.78 363.28 395.14C363.4 395.5 363.46 395.853 363.46 396.2V399.4C363.46 399.88 363.34 400.313 363.1 400.7C362.873 401.087 362.56 401.4 362.16 401.64C361.773 401.88 361.347 402 360.88 402H351.68ZM369.043 402V390.46L367.383 392.46H364.543L368.623 387.6H371.203V402H369.043Z" fill="#3C3636"/>
<path d="M256.52 90V77.76H250.4V75.6H264.8V77.76H258.68V90H256.52ZM267.058 90C266.578 90 266.144 89.88 265.758 89.64C265.371 89.4 265.058 89.0867 264.818 88.7C264.578 88.3133 264.458 87.88 264.458 87.4V81C264.458 80.52 264.578 80.0867 264.818 79.7C265.058 79.3133 265.371 79 265.758 78.76C266.144 78.52 266.578 78.4 267.058 78.4H273.658C274.138 78.4 274.571 78.52 274.958 78.76C275.358 78.9867 275.671 79.3 275.898 79.7C276.138 80.1 276.258 80.5333 276.258 81V87.4C276.258 87.88 276.138 88.3133 275.898 88.7C275.671 89.0867 275.358 89.4 274.958 89.64C274.571 89.88 274.138 90 273.658 90H267.058ZM267.118 87.84H273.598C273.731 87.84 273.844 87.7933 273.938 87.7C274.031 87.5933 274.078 87.4733 274.078 87.34V81.06C274.078 80.9267 274.031 80.8133 273.938 80.72C273.844 80.6133 273.731 80.56 273.598 80.56H267.118C266.984 80.56 266.864 80.6133 266.758 80.72C266.664 80.8133 266.618 80.9267 266.618 81.06V87.34C266.618 87.4733 266.664 87.5933 266.758 87.7C266.864 87.7933 266.984 87.84 267.118 87.84ZM278.013 90V81C278.013 80.52 278.133 80.0867 278.373 79.7C278.613 79.3133 278.926 79 279.313 78.76C279.713 78.52 280.146 78.4 280.613 78.4H287.093V80.56H280.673C280.539 80.56 280.419 80.6133 280.313 80.72C280.219 80.8133 280.173 80.9267 280.173 81.06V90H278.013ZM291.001 90C290.521 90 290.088 89.88 289.701 89.64C289.315 89.4 289.001 89.0867 288.761 88.7C288.521 88.3133 288.401 87.88 288.401 87.4V87.1H290.561V87.34C290.561 87.4733 290.608 87.5933 290.701 87.7C290.808 87.7933 290.928 87.84 291.061 87.84H297.541C297.675 87.84 297.788 87.7933 297.881 87.7C297.975 87.5933 298.021 87.4733 298.021 87.34V85.78C298.021 85.6467 297.975 85.5333 297.881 85.44C297.788 85.3333 297.675 85.28 297.541 85.28H291.001C290.521 85.28 290.088 85.1667 289.701 84.94C289.315 84.7 289.001 84.3867 288.761 84C288.521 83.6 288.401 83.16 288.401 82.68V81C288.401 80.52 288.521 80.0867 288.761 79.7C289.001 79.3133 289.315 79 289.701 78.76C290.088 78.52 290.521 78.4 291.001 78.4H297.601C298.081 78.4 298.515 78.52 298.901 78.76C299.301 79 299.615 79.3133 299.841 79.7C300.081 80.0867 300.201 80.52 300.201 81V81.3H298.021V81.06C298.021 80.9267 297.975 80.8133 297.881 80.72C297.788 80.6133 297.675 80.56 297.541 80.56H291.061C290.928 80.56 290.808 80.6133 290.701 80.72C290.608 80.8133 290.561 80.9267 290.561 81.06V82.62C290.561 82.7533 290.608 82.8733 290.701 82.98C290.808 83.0733 290.928 83.12 291.061 83.12H297.601C298.081 83.12 298.515 83.24 298.901 83.48C299.301 83.7067 299.615 84.02 299.841 84.42C300.081 84.8067 300.201 85.24 300.201 85.72V87.4C300.201 87.88 300.081 88.3133 299.841 88.7C299.615 89.0867 299.301 89.4 298.901 89.64C298.515 89.88 298.081 90 297.601 90H291.001Z" fill="#F9F2F2"/>
<path d="M338.16 90V75.6H351.36V77.76H340.34V81.72H349.2V83.88H340.34V90H338.16ZM352.493 90V81C352.493 80.52 352.613 80.0867 352.853 79.7C353.093 79.3133 353.406 79 353.793 78.76C354.193 78.52 354.626 78.4 355.093 78.4H361.573V80.56H355.153C355.02 80.56 354.9 80.6133 354.793 80.72C354.7 80.8133 354.653 80.9267 354.653 81.06V90H352.493ZM365.483 90C365.003 90 364.57 89.88 364.183 89.64C363.797 89.4 363.483 89.0867 363.243 88.7C363.003 88.3133 362.883 87.88 362.883 87.4V81C362.883 80.52 363.003 80.0867 363.243 79.7C363.483 79.3133 363.797 79 364.183 78.76C364.57 78.52 365.003 78.4 365.483 78.4H372.083C372.563 78.4 372.997 78.52 373.383 78.76C373.783 78.9867 374.097 79.3 374.323 79.7C374.563 80.1 374.683 80.5333 374.683 81V85.28H365.043V87.34C365.043 87.4733 365.09 87.5933 365.183 87.7C365.29 87.7933 365.41 87.84 365.543 87.84H374.683V90H365.483ZM365.043 83.26H372.503V81.06C372.503 80.9267 372.457 80.8133 372.363 80.72C372.27 80.6133 372.157 80.56 372.023 80.56H365.543C365.41 80.56 365.29 80.6133 365.183 80.72C365.09 80.8133 365.043 80.9267 365.043 81.06V83.26Z" fill="#F9F2F2"/>
<path d="M415.14 90V75.58H417.3V87.84H429.54V90H415.14ZM440.606 84.62C440.606 85.8067 440.399 86.82 439.986 87.66C439.586 88.4867 439.013 89.12 438.266 89.56C437.519 89.9867 436.633 90.2 435.606 90.2C435.113 90.2 434.653 90.14 434.226 90.02C433.799 89.9133 433.399 89.7533 433.026 89.54L432.226 90.66L431.066 89.88L431.966 88.64C431.553 88.16 431.233 87.5867 431.006 86.92C430.793 86.24 430.686 85.4733 430.686 84.62C430.686 82.8467 431.133 81.48 432.026 80.52C432.919 79.56 434.133 79.08 435.666 79.08C436.159 79.08 436.626 79.1467 437.066 79.28C437.506 79.4 437.913 79.5733 438.286 79.8L439.066 78.68L440.246 79.44L439.346 80.7C439.733 81.1667 440.039 81.7333 440.266 82.4C440.493 83.0533 440.606 83.7933 440.606 84.62ZM432.506 84.62C432.506 85.1267 432.539 85.6 432.606 86.04C432.686 86.4667 432.813 86.8467 432.986 87.18L437.386 81.06C437.159 80.9 436.893 80.78 436.586 80.7C436.293 80.6067 435.973 80.56 435.626 80.56C434.533 80.56 433.739 80.92 433.246 81.64C432.753 82.36 432.506 83.3533 432.506 84.62ZM438.786 84.62C438.786 84.1267 438.746 83.6733 438.666 83.26C438.586 82.8467 438.473 82.48 438.326 82.16L433.926 88.28C434.153 88.4267 434.413 88.54 434.706 88.62C434.999 88.7 435.313 88.74 435.646 88.74C436.366 88.74 436.959 88.5733 437.426 88.24C437.893 87.9067 438.233 87.4333 438.446 86.82C438.673 86.1933 438.786 85.46 438.786 84.62ZM442.735 90V81C442.735 80.52 442.855 80.0867 443.095 79.7C443.335 79.3133 443.649 79 444.035 78.76C444.435 78.52 444.869 78.4 445.335 78.4H451.815V80.56H445.395C445.262 80.56 445.142 80.6133 445.035 80.72C444.942 80.8133 444.895 80.9267 444.895 81.06V90H442.735Z" fill="#F9F2F2"/>
<path d="M500.64 90C500.173 90 499.74 89.8867 499.34 89.66C498.94 89.42 498.62 89.1067 498.38 88.72C498.153 88.32 498.04 87.88 498.04 87.4V86.56H500.2V87.34C500.2 87.4733 500.247 87.5933 500.34 87.7C500.447 87.7933 500.567 87.84 500.7 87.84H509.78C509.913 87.84 510.027 87.7933 510.12 87.7C510.213 87.5933 510.26 87.4733 510.26 87.34V84.38C510.26 84.2333 510.213 84.1133 510.12 84.02C510.027 83.9267 509.913 83.88 509.78 83.88H500.64C500.173 83.88 499.74 83.7667 499.34 83.54C498.94 83.3 498.62 82.9867 498.38 82.6C498.153 82.2 498.04 81.76 498.04 81.28V78.2C498.04 77.72 498.153 77.2867 498.38 76.9C498.62 76.5 498.94 76.1867 499.34 75.96C499.74 75.72 500.173 75.6 500.64 75.6H509.84C510.307 75.6 510.74 75.72 511.14 75.96C511.54 76.1867 511.853 76.5 512.08 76.9C512.32 77.2867 512.44 77.72 512.44 78.2V79.04H510.26V78.26C510.26 78.1267 510.213 78.0133 510.12 77.92C510.027 77.8133 509.913 77.76 509.78 77.76H500.7C500.567 77.76 500.447 77.8133 500.34 77.92C500.247 78.0133 500.2 78.1267 500.2 78.26V81.22C500.2 81.3667 500.247 81.4867 500.34 81.58C500.447 81.6733 500.567 81.72 500.7 81.72H509.84C510.307 81.72 510.74 81.84 511.14 82.08C511.54 82.3067 511.853 82.62 512.08 83.02C512.32 83.4067 512.44 83.84 512.44 84.32V87.4C512.44 87.88 512.32 88.32 512.08 88.72C511.853 89.1067 511.54 89.42 511.14 89.66C510.74 89.8867 510.307 90 509.84 90H500.64ZM524.504 84.62C524.504 85.8067 524.298 86.82 523.884 87.66C523.484 88.4867 522.911 89.12 522.164 89.56C521.418 89.9867 520.531 90.2 519.504 90.2C519.011 90.2 518.551 90.14 518.124 90.02C517.698 89.9133 517.298 89.7533 516.924 89.54L516.124 90.66L514.964 89.88L515.864 88.64C515.451 88.16 515.131 87.5867 514.904 86.92C514.691 86.24 514.584 85.4733 514.584 84.62C514.584 82.8467 515.031 81.48 515.924 80.52C516.818 79.56 518.031 79.08 519.564 79.08C520.058 79.08 520.524 79.1467 520.964 79.28C521.404 79.4 521.811 79.5733 522.184 79.8L522.964 78.68L524.144 79.44L523.244 80.7C523.631 81.1667 523.938 81.7333 524.164 82.4C524.391 83.0533 524.504 83.7933 524.504 84.62ZM516.404 84.62C516.404 85.1267 516.438 85.6 516.504 86.04C516.584 86.4667 516.711 86.8467 516.884 87.18L521.284 81.06C521.058 80.9 520.791 80.78 520.484 80.7C520.191 80.6067 519.871 80.56 519.524 80.56C518.431 80.56 517.638 80.92 517.144 81.64C516.651 82.36 516.404 83.3533 516.404 84.62ZM522.684 84.62C522.684 84.1267 522.644 83.6733 522.564 83.26C522.484 82.8467 522.371 82.48 522.224 82.16L517.824 88.28C518.051 88.4267 518.311 88.54 518.604 88.62C518.898 88.7 519.211 88.74 519.544 88.74C520.264 88.74 520.858 88.5733 521.324 88.24C521.791 87.9067 522.131 87.4333 522.344 86.82C522.571 86.1933 522.684 85.46 522.684 84.62ZM526.674 90V78.4H535.874C536.354 78.4 536.787 78.52 537.174 78.76C537.574 79 537.887 79.3133 538.114 79.7C538.354 80.0867 538.474 80.52 538.474 81V90H536.314V81.06C536.314 80.9267 536.26 80.8133 536.154 80.72C536.06 80.6133 535.947 80.56 535.814 80.56H529.334C529.2 80.56 529.08 80.6133 528.974 80.72C528.88 80.8133 528.834 80.9267 528.834 81.06V90H526.674Z" fill="#F9F2F2"/>
<path d="M27.12 90V75.6H29.7L35.28 82.24L40.84 75.6H43.44V90H41.26V78.5L35.28 85.62L29.28 78.5V90H27.12ZM48.1166 90C47.6366 90 47.1966 89.88 46.7966 89.64C46.4099 89.4 46.0966 89.0867 45.8566 88.7C45.6299 88.3133 45.5166 87.88 45.5166 87.4V83.12H55.1366V81.06C55.1366 80.9267 55.0899 80.8133 54.9966 80.72C54.9032 80.6133 54.7899 80.56 54.6566 80.56H45.5166V78.4H54.7166C55.1966 78.4 55.6299 78.52 56.0166 78.76C56.4166 78.9867 56.7299 79.3 56.9566 79.7C57.1966 80.1 57.3166 80.5333 57.3166 81V90H48.1166ZM48.1766 87.84H55.1366V85.14H47.6766V87.34C47.6766 87.4733 47.7232 87.5933 47.8166 87.7C47.9232 87.7933 48.0432 87.84 48.1766 87.84ZM59.1894 90V78.4H68.3894C68.8694 78.4 69.3027 78.52 69.6894 78.76C70.0894 79 70.4027 79.3133 70.6294 79.7C70.8694 80.0867 70.9894 80.52 70.9894 81V90H68.8294V81.06C68.8294 80.9267 68.776 80.8133 68.6694 80.72C68.576 80.6133 68.4627 80.56 68.3294 80.56H61.8494C61.716 80.56 61.596 80.6133 61.4894 80.72C61.396 80.8133 61.3494 80.9267 61.3494 81.06V90H59.1894Z" fill="#F9F2F2"/>
<path d="M110.52 90V77.76H104.4V75.6H118.8V77.76H112.68V90H110.52ZM120.216 90V78.4H122.376V90H120.216ZM120.216 76.76V74.6H122.376V76.76H120.216ZM124.747 90V81C124.747 80.52 124.867 80.0867 125.107 79.7C125.347 79.3133 125.66 79 126.047 78.76C126.447 78.52 126.88 78.4 127.347 78.4H133.827V80.56H127.407C127.274 80.56 127.154 80.6133 127.047 80.72C126.954 80.8133 126.907 80.9267 126.907 81.06V90H124.747Z" fill="#F9F2F2"/>
<path d="M172.68 90C172.2 90 171.76 89.8867 171.36 89.66C170.973 89.42 170.66 89.1067 170.42 88.72C170.193 88.32 170.08 87.88 170.08 87.4V78.2C170.08 77.72 170.193 77.2867 170.42 76.9C170.66 76.5 170.973 76.1867 171.36 75.96C171.76 75.72 172.2 75.6 172.68 75.6H181.88C182.347 75.6 182.78 75.72 183.18 75.96C183.58 76.1867 183.893 76.5 184.12 76.9C184.36 77.2867 184.48 77.72 184.48 78.2V87.4C184.48 87.88 184.36 88.32 184.12 88.72C183.893 89.1067 183.58 89.42 183.18 89.66C182.78 89.8867 182.347 90 181.88 90H172.68ZM172.74 87.84H181.82C181.953 87.84 182.067 87.7933 182.16 87.7C182.253 87.5933 182.3 87.4733 182.3 87.34V78.26C182.3 78.1267 182.253 78.0133 182.16 77.92C182.067 77.8133 181.953 77.76 181.82 77.76H172.74C172.607 77.76 172.487 77.8133 172.38 77.92C172.287 78.0133 172.24 78.1267 172.24 78.26V87.34C172.24 87.4733 172.287 87.5933 172.38 87.7C172.487 87.7933 172.607 87.84 172.74 87.84ZM186.643 90V78.4H195.842C196.323 78.4 196.756 78.52 197.143 78.76C197.543 79 197.856 79.3133 198.083 79.7C198.323 80.0867 198.443 80.52 198.443 81V90H196.283V81.06C196.283 80.9267 196.229 80.8133 196.122 80.72C196.029 80.6133 195.916 80.56 195.783 80.56H189.303C189.169 80.56 189.049 80.6133 188.943 80.72C188.849 80.8133 188.803 80.9267 188.803 81.06V90H186.643ZM202.912 90C202.432 90 201.998 89.88 201.612 89.64C201.225 89.4 200.912 89.0867 200.672 88.7C200.432 88.3133 200.312 87.88 200.312 87.4V87.1H202.472V87.34C202.472 87.4733 202.518 87.5933 202.612 87.7C202.718 87.7933 202.838 87.84 202.972 87.84H209.452C209.585 87.84 209.698 87.7933 209.792 87.7C209.885 87.5933 209.932 87.4733 209.932 87.34V85.78C209.932 85.6467 209.885 85.5333 209.792 85.44C209.698 85.3333 209.585 85.28 209.452 85.28H202.912C202.432 85.28 201.998 85.1667 201.612 84.94C201.225 84.7 200.912 84.3867 200.672 84C200.432 83.6 200.312 83.16 200.312 82.68V81C200.312 80.52 200.432 80.0867 200.672 79.7C200.912 79.3133 201.225 79 201.612 78.76C201.998 78.52 202.432 78.4 202.912 78.4H209.512C209.992 78.4 210.425 78.52 210.812 78.76C211.212 79 211.525 79.3133 211.752 79.7C211.992 80.0867 212.112 80.52 212.112 81V81.3H209.932V81.06C209.932 80.9267 209.885 80.8133 209.792 80.72C209.698 80.6133 209.585 80.56 209.452 80.56H202.972C202.838 80.56 202.718 80.6133 202.612 80.72C202.518 80.8133 202.472 80.9267 202.472 81.06V82.62C202.472 82.7533 202.518 82.8733 202.612 82.98C202.718 83.0733 202.838 83.12 202.972 83.12H209.512C209.992 83.12 210.425 83.24 210.812 83.48C211.212 83.7067 211.525 84.02 211.752 84.42C211.992 84.8067 212.112 85.24 212.112 85.72V87.4C212.112 87.88 211.992 88.3133 211.752 88.7C211.525 89.0867 211.212 89.4 210.812 89.64C210.425 89.88 209.992 90 209.512 90H202.912Z" fill="#F9F2F2"/>
</svg>
