<svg width="70" height="70" viewBox="0 0 70 70" fill="none" xmlns="http://www.w3.org/2000/svg">
<g clip-path="url(#clip0_195_294)">
<path d="M70.4302 0.429688H0.430176V70.4297H70.4302V0.429688Z" fill="#3C3636"/>
<path d="M26.604 70.1912V46.3121H19.6173V35.4408H26.604V29.8778C26.604 28.3904 26.7786 26.9093 27.1237 25.4631L27.3024 24.7153L27.8571 22.813C28.081 22.0489 28.3891 21.3114 28.7774 20.615C29.4019 19.4974 30.1949 18.4805 31.1275 17.6034L31.8814 16.8926L32.5265 16.4304C33.4078 15.7976 34.363 15.2717 35.3696 14.865L36.3331 14.4767L38.4963 13.7762L40.5957 13.5215H44.0326C45.4706 13.5215 46.9045 13.6324 48.324 13.8543L49.0533 13.9673L51.4054 14.2857V23.5074H44.3489C44.0511 23.5074 43.7532 23.5341 43.4594 23.5855C42.5884 23.7416 41.7852 24.1607 41.1586 24.7872C40.6245 25.3213 40.2568 25.9993 40.1007 26.7388L39.8952 27.7043L39.6877 29.8736C39.6549 30.2085 39.6405 30.5433 39.6405 30.8803V35.4408H51.1507L49.3963 46.3737L43.7162 46.386L39.9425 46.3922V48.8265L39.9363 51.226L39.8973 70.1932H26.604V70.1912Z" fill="#F9F2F2"/>
</g>
<defs>
<clipPath id="clip0_195_294">
<rect width="70" height="70" fill="white"/>
</clipPath>
</defs>
</svg>
