<svg width="80" height="80" viewBox="0 0 80 80" fill="none" xmlns="http://www.w3.org/2000/svg">
<g clip-path="url(#clip0_468_101)">
<path d="M80.4917 0.491699H0.491699V80.4917H80.4917V0.491699Z" fill="#F9F2F2"/>
<path d="M30.4047 80.219V52.9286H22.4199V40.5042H30.4047V34.1465C30.4047 32.4467 30.6042 30.754 30.9986 29.1012L31.2029 28.2466L31.8368 26.0725C32.0927 25.1992 32.4449 24.3563 32.8886 23.5604C33.6023 22.2833 34.5086 21.1211 35.5744 20.1186L36.4361 19.3063L37.1733 18.778C38.1805 18.0549 39.2722 17.4539 40.4226 16.9891L41.5237 16.5453L43.9959 15.7447L46.3953 15.4536H50.3231C51.9665 15.4536 53.6052 15.5804 55.2275 15.834L56.061 15.9631L58.7492 16.327V26.8661H50.6846C50.3442 26.8661 50.0038 26.8966 49.6681 26.9553C48.6726 27.1337 47.7546 27.6127 47.0386 28.3287C46.4281 28.9392 46.0079 29.7139 45.8295 30.5591L45.5947 31.6626L45.3576 34.1418C45.32 34.5245 45.3036 34.9072 45.3036 35.2922V40.5042H58.4581L56.4531 52.999L49.9615 53.0131L45.6487 53.0202V55.8023L45.6416 58.5444L45.597 80.2213H30.4047V80.219Z" fill="#3C3636"/>
</g>
<defs>
<clipPath id="clip0_468_101">
<rect width="80" height="80" fill="white"/>
</clipPath>
</defs>
</svg>
