<svg width="80" height="81" viewBox="0 0 80 81" fill="none" xmlns="http://www.w3.org/2000/svg">
<path d="M79 40.5C79 62.327 61.5274 80 40 80C18.4726 80 1 62.327 1 40.5C1 18.673 18.4726 1 40 1C61.5274 1 79 18.673 79 40.5Z" fill="#F9F2F2" stroke="#3C3636" stroke-width="2"/>
<path d="M28.35 60C27.1167 60 25.9833 59.7 24.95 59.1C23.95 58.5 23.15 57.6833 22.55 56.65C21.95 55.6167 21.65 54.4833 21.65 53.25V50.85H27.65V53.05C27.65 53.3167 27.7333 53.5333 27.9 53.7C28.0667 53.8667 28.2833 53.95 28.55 53.95H50.65C50.9167 53.95 51.1333 53.8667 51.3 53.7C51.5 53.5333 51.6 53.3167 51.6 53.05V45.9C51.6 45.6667 51.5 45.4667 51.3 45.3C51.1333 45.1 50.9167 45 50.65 45H28.35C27.1167 45 25.9833 44.7 24.95 44.1C23.95 43.5 23.15 42.7 22.55 41.7C21.95 40.6667 21.65 39.5333 21.65 38.3V30.75C21.65 29.5167 21.95 28.3833 22.55 27.35C23.15 26.3167 23.95 25.5 24.95 24.9C25.9833 24.3 27.1167 24 28.35 24H50.9C52.1333 24 53.25 24.3 54.25 24.9C55.2833 25.5 56.1 26.3167 56.7 27.35C57.3333 28.3833 57.65 29.5167 57.65 30.75V33.15H51.6V30.95C51.6 30.6833 51.5 30.4667 51.3 30.3C51.1333 30.1333 50.9167 30.05 50.65 30.05H28.55C28.2833 30.05 28.0667 30.1333 27.9 30.3C27.7333 30.4667 27.65 30.6833 27.65 30.95V38.1C27.65 38.3333 27.7333 38.55 27.9 38.75C28.0667 38.9167 28.2833 39 28.55 39H50.9C52.1333 39 53.25 39.3 54.25 39.9C55.2833 40.5 56.1 41.3167 56.7 42.35C57.3333 43.35 57.65 44.4667 57.65 45.7V53.25C57.65 54.4833 57.3333 55.6167 56.7 56.65C56.1 57.6833 55.2833 58.5 54.25 59.1C53.25 59.7 52.1333 60 50.9 60H28.35Z" fill="#3C3636"/>
</svg>
