<svg width="1306" height="81" viewBox="0 0 1306 81" fill="none" xmlns="http://www.w3.org/2000/svg">
<rect x="8.5" y="0.5" width="1297" height="80" fill="#3C3636" stroke="#F9F2F2"/>
<rect x="1167.5" y="0.5" width="138" height="80" fill="#3C3636" stroke="#F9F2F2"/>
<rect x="0.5" y="0.5" width="138" height="80" fill="#3C3636" stroke="#F9F2F2"/>
<path d="M37.42 34.06V35.54H31.36V40.24H36.28V41.72H31.36V48H29.54V34.06H37.42ZM40.5581 35.26C40.2115 35.26 39.9181 35.14 39.6781 34.9C39.4381 34.66 39.3181 34.3667 39.3181 34.02C39.3181 33.6733 39.4381 33.38 39.6781 33.14C39.9181 32.9 40.2115 32.78 40.5581 32.78C40.8915 32.78 41.1715 32.9 41.3981 33.14C41.6381 33.38 41.7581 33.6733 41.7581 34.02C41.7581 34.3667 41.6381 34.66 41.3981 34.9C41.1715 35.14 40.8915 35.26 40.5581 35.26ZM41.4381 37.04V48H39.6181V37.04H41.4381ZM46.36 33.2V48H44.54V33.2H46.36ZM51.6819 38.54V45C51.6819 45.5333 51.7952 45.9133 52.0219 46.14C52.2485 46.3533 52.6419 46.46 53.2019 46.46H54.5419V48H52.9019C51.8885 48 51.1285 47.7667 50.6219 47.3C50.1152 46.8333 49.8619 46.0667 49.8619 45V38.54H48.4419V37.04H49.8619V34.28H51.6819V37.04H54.5419V38.54H51.6819ZM66.747 42.1C66.747 42.4467 66.727 42.8133 66.687 43.2H57.927C57.9937 44.28 58.3604 45.1267 59.027 45.74C59.707 46.34 60.527 46.64 61.487 46.64C62.2737 46.64 62.927 46.46 63.447 46.1C63.9804 45.7267 64.3537 45.2333 64.567 44.62H66.527C66.2337 45.6733 65.647 46.5333 64.767 47.2C63.887 47.8533 62.7937 48.18 61.487 48.18C60.447 48.18 59.5137 47.9467 58.687 47.48C57.8737 47.0133 57.2337 46.3533 56.767 45.5C56.3004 44.6333 56.067 43.6333 56.067 42.5C56.067 41.3667 56.2937 40.3733 56.747 39.52C57.2004 38.6667 57.8337 38.0133 58.647 37.56C59.4737 37.0933 60.4204 36.86 61.487 36.86C62.527 36.86 63.447 37.0867 64.247 37.54C65.047 37.9933 65.6604 38.62 66.087 39.42C66.527 40.2067 66.747 41.1 66.747 42.1ZM64.867 41.72C64.867 41.0267 64.7137 40.4333 64.407 39.94C64.1004 39.4333 63.6804 39.0533 63.147 38.8C62.627 38.5333 62.047 38.4 61.407 38.4C60.487 38.4 59.7004 38.6933 59.047 39.28C58.407 39.8667 58.0404 40.68 57.947 41.72H64.867ZM70.9694 38.82C71.2894 38.1933 71.7427 37.7067 72.3294 37.36C72.9294 37.0133 73.656 36.84 74.5094 36.84V38.72H74.0294C71.9894 38.72 70.9694 39.8267 70.9694 42.04V48H69.1494V37.04H70.9694V38.82Z" fill="white"/>
<path d="M1196.96 48.14C1196.04 48.14 1195.21 47.98 1194.48 47.66C1193.76 47.3267 1193.19 46.8733 1192.78 46.3C1192.37 45.7133 1192.15 45.04 1192.14 44.28H1194.08C1194.15 44.9333 1194.41 45.4867 1194.88 45.94C1195.36 46.38 1196.05 46.6 1196.96 46.6C1197.83 46.6 1198.51 46.3867 1199 45.96C1199.51 45.52 1199.76 44.96 1199.76 44.28C1199.76 43.7467 1199.61 43.3133 1199.32 42.98C1199.03 42.6467 1198.66 42.3933 1198.22 42.22C1197.78 42.0467 1197.19 41.86 1196.44 41.66C1195.52 41.42 1194.78 41.18 1194.22 40.94C1193.67 40.7 1193.2 40.3267 1192.8 39.82C1192.41 39.3 1192.22 38.6067 1192.22 37.74C1192.22 36.98 1192.41 36.3067 1192.8 35.72C1193.19 35.1333 1193.73 34.68 1194.42 34.36C1195.13 34.04 1195.93 33.88 1196.84 33.88C1198.15 33.88 1199.21 34.2067 1200.04 34.86C1200.88 35.5133 1201.35 36.38 1201.46 37.46H1199.46C1199.39 36.9267 1199.11 36.46 1198.62 36.06C1198.13 35.6467 1197.47 35.44 1196.66 35.44C1195.9 35.44 1195.28 35.64 1194.8 36.04C1194.32 36.4267 1194.08 36.9733 1194.08 37.68C1194.08 38.1867 1194.22 38.6 1194.5 38.92C1194.79 39.24 1195.15 39.4867 1195.56 39.66C1195.99 39.82 1196.58 40.0067 1197.34 40.22C1198.26 40.4733 1199 40.7267 1199.56 40.98C1200.12 41.22 1200.6 41.6 1201 42.12C1201.4 42.6267 1201.6 43.32 1201.6 44.2C1201.6 44.88 1201.42 45.52 1201.06 46.12C1200.7 46.72 1200.17 47.2067 1199.46 47.58C1198.75 47.9533 1197.92 48.14 1196.96 48.14ZM1209.06 48.18C1208.03 48.18 1207.1 47.9467 1206.26 47.48C1205.43 47.0133 1204.78 46.3533 1204.3 45.5C1203.83 44.6333 1203.6 43.6333 1203.6 42.5C1203.6 41.38 1203.84 40.3933 1204.32 39.54C1204.81 38.6733 1205.48 38.0133 1206.32 37.56C1207.16 37.0933 1208.1 36.86 1209.14 36.86C1210.18 36.86 1211.12 37.0933 1211.96 37.56C1212.8 38.0133 1213.46 38.6667 1213.94 39.52C1214.43 40.3733 1214.68 41.3667 1214.68 42.5C1214.68 43.6333 1214.42 44.6333 1213.92 45.5C1213.42 46.3533 1212.75 47.0133 1211.9 47.48C1211.04 47.9467 1210.1 48.18 1209.06 48.18ZM1209.06 46.58C1209.71 46.58 1210.32 46.4267 1210.9 46.12C1211.47 45.8133 1211.93 45.3533 1212.28 44.74C1212.64 44.1267 1212.82 43.38 1212.82 42.5C1212.82 41.62 1212.64 40.8733 1212.3 40.26C1211.95 39.6467 1211.5 39.1933 1210.94 38.9C1210.38 38.5933 1209.77 38.44 1209.12 38.44C1208.45 38.44 1207.84 38.5933 1207.28 38.9C1206.73 39.1933 1206.29 39.6467 1205.96 40.26C1205.62 40.8733 1205.46 41.62 1205.46 42.5C1205.46 43.3933 1205.62 44.1467 1205.94 44.76C1206.27 45.3733 1206.71 45.8333 1207.26 46.14C1207.8 46.4333 1208.4 46.58 1209.06 46.58ZM1218.89 38.82C1219.21 38.1933 1219.66 37.7067 1220.25 37.36C1220.85 37.0133 1221.58 36.84 1222.43 36.84V38.72H1221.95C1219.91 38.72 1218.89 39.8267 1218.89 42.04V48H1217.07V37.04H1218.89V38.82ZM1226.75 38.54V45C1226.75 45.5333 1226.87 45.9133 1227.09 46.14C1227.32 46.3533 1227.71 46.46 1228.27 46.46H1229.61V48H1227.97C1226.96 48 1226.2 47.7667 1225.69 47.3C1225.19 46.8333 1224.93 46.0667 1224.93 45V38.54H1223.51V37.04H1224.93V34.28H1226.75V37.04H1229.61V38.54H1226.75ZM1241.82 42.1C1241.82 42.4467 1241.8 42.8133 1241.76 43.2H1233C1233.06 44.28 1233.43 45.1267 1234.1 45.74C1234.78 46.34 1235.6 46.64 1236.56 46.64C1237.34 46.64 1238 46.46 1238.52 46.1C1239.05 45.7267 1239.42 45.2333 1239.64 44.62H1241.6C1241.3 45.6733 1240.72 46.5333 1239.84 47.2C1238.96 47.8533 1237.86 48.18 1236.56 48.18C1235.52 48.18 1234.58 47.9467 1233.76 47.48C1232.94 47.0133 1232.3 46.3533 1231.84 45.5C1231.37 44.6333 1231.14 43.6333 1231.14 42.5C1231.14 41.3667 1231.36 40.3733 1231.82 39.52C1232.27 38.6667 1232.9 38.0133 1233.72 37.56C1234.54 37.0933 1235.49 36.86 1236.56 36.86C1237.6 36.86 1238.52 37.0867 1239.32 37.54C1240.12 37.9933 1240.73 38.62 1241.16 39.42C1241.6 40.2067 1241.82 41.1 1241.82 42.1ZM1239.94 41.72C1239.94 41.0267 1239.78 40.4333 1239.48 39.94C1239.17 39.4333 1238.75 39.0533 1238.22 38.8C1237.7 38.5333 1237.12 38.4 1236.48 38.4C1235.56 38.4 1234.77 38.6933 1234.12 39.28C1233.48 39.8667 1233.11 40.68 1233.02 41.72H1239.94ZM1246.04 38.82C1246.36 38.1933 1246.81 37.7067 1247.4 37.36C1248 37.0133 1248.73 36.84 1249.58 36.84V38.72H1249.1C1247.06 38.72 1246.04 39.8267 1246.04 42.04V48H1244.22V37.04H1246.04V38.82Z" fill="white"/>
<rect x="91" y="35" width="27" height="1" fill="#F9F2F2"/>
<rect x="94" y="41" width="21" height="1" fill="#F9F2F2"/>
<rect x="98" y="47" width="13" height="1" fill="#F9F2F2"/>
<path d="M1266.98 49.149L1259.04 37.186L1274.92 37.1866L1266.98 49.149Z" fill="#F9F2F2"/>
</svg>
