<svg width="1306" height="418" viewBox="0 0 1306 418" fill="none" xmlns="http://www.w3.org/2000/svg">
<rect x="8.5" y="0.5" width="1297" height="80" fill="#3C3636" stroke="#F9F2F2"/>
<rect x="1167.5" y="0.5" width="138" height="80" fill="#3C3636" stroke="#F9F2F2"/>
<rect x="0.5" y="0.5" width="138" height="80" fill="#3C3636" stroke="#F9F2F2"/>
<path d="M37.42 34.06V35.54H31.36V40.24H36.28V41.72H31.36V48H29.54V34.06H37.42ZM40.5581 35.26C40.2115 35.26 39.9181 35.14 39.6781 34.9C39.4381 34.66 39.3181 34.3667 39.3181 34.02C39.3181 33.6733 39.4381 33.38 39.6781 33.14C39.9181 32.9 40.2115 32.78 40.5581 32.78C40.8915 32.78 41.1715 32.9 41.3981 33.14C41.6381 33.38 41.7581 33.6733 41.7581 34.02C41.7581 34.3667 41.6381 34.66 41.3981 34.9C41.1715 35.14 40.8915 35.26 40.5581 35.26ZM41.4381 37.04V48H39.6181V37.04H41.4381ZM46.36 33.2V48H44.54V33.2H46.36ZM51.6819 38.54V45C51.6819 45.5333 51.7952 45.9133 52.0219 46.14C52.2485 46.3533 52.6419 46.46 53.2019 46.46H54.5419V48H52.9019C51.8885 48 51.1285 47.7667 50.6219 47.3C50.1152 46.8333 49.8619 46.0667 49.8619 45V38.54H48.4419V37.04H49.8619V34.28H51.6819V37.04H54.5419V38.54H51.6819ZM66.747 42.1C66.747 42.4467 66.727 42.8133 66.687 43.2H57.927C57.9937 44.28 58.3604 45.1267 59.027 45.74C59.707 46.34 60.527 46.64 61.487 46.64C62.2737 46.64 62.927 46.46 63.447 46.1C63.9804 45.7267 64.3537 45.2333 64.567 44.62H66.527C66.2337 45.6733 65.647 46.5333 64.767 47.2C63.887 47.8533 62.7937 48.18 61.487 48.18C60.447 48.18 59.5137 47.9467 58.687 47.48C57.8737 47.0133 57.2337 46.3533 56.767 45.5C56.3004 44.6333 56.067 43.6333 56.067 42.5C56.067 41.3667 56.2937 40.3733 56.747 39.52C57.2004 38.6667 57.8337 38.0133 58.647 37.56C59.4737 37.0933 60.4204 36.86 61.487 36.86C62.527 36.86 63.447 37.0867 64.247 37.54C65.047 37.9933 65.6604 38.62 66.087 39.42C66.527 40.2067 66.747 41.1 66.747 42.1ZM64.867 41.72C64.867 41.0267 64.7137 40.4333 64.407 39.94C64.1004 39.4333 63.6804 39.0533 63.147 38.8C62.627 38.5333 62.047 38.4 61.407 38.4C60.487 38.4 59.7004 38.6933 59.047 39.28C58.407 39.8667 58.0404 40.68 57.947 41.72H64.867ZM70.9694 38.82C71.2894 38.1933 71.7427 37.7067 72.3294 37.36C72.9294 37.0133 73.656 36.84 74.5094 36.84V38.72H74.0294C71.9894 38.72 70.9694 39.8267 70.9694 42.04V48H69.1494V37.04H70.9694V38.82Z" fill="white"/>
<path d="M1196.96 48.14C1196.04 48.14 1195.21 47.98 1194.48 47.66C1193.76 47.3267 1193.19 46.8733 1192.78 46.3C1192.37 45.7133 1192.15 45.04 1192.14 44.28H1194.08C1194.15 44.9333 1194.41 45.4867 1194.88 45.94C1195.36 46.38 1196.05 46.6 1196.96 46.6C1197.83 46.6 1198.51 46.3867 1199 45.96C1199.51 45.52 1199.76 44.96 1199.76 44.28C1199.76 43.7467 1199.61 43.3133 1199.32 42.98C1199.03 42.6467 1198.66 42.3933 1198.22 42.22C1197.78 42.0467 1197.19 41.86 1196.44 41.66C1195.52 41.42 1194.78 41.18 1194.22 40.94C1193.67 40.7 1193.2 40.3267 1192.8 39.82C1192.41 39.3 1192.22 38.6067 1192.22 37.74C1192.22 36.98 1192.41 36.3067 1192.8 35.72C1193.19 35.1333 1193.73 34.68 1194.42 34.36C1195.13 34.04 1195.93 33.88 1196.84 33.88C1198.15 33.88 1199.21 34.2067 1200.04 34.86C1200.88 35.5133 1201.35 36.38 1201.46 37.46H1199.46C1199.39 36.9267 1199.11 36.46 1198.62 36.06C1198.13 35.6467 1197.47 35.44 1196.66 35.44C1195.9 35.44 1195.28 35.64 1194.8 36.04C1194.32 36.4267 1194.08 36.9733 1194.08 37.68C1194.08 38.1867 1194.22 38.6 1194.5 38.92C1194.79 39.24 1195.15 39.4867 1195.56 39.66C1195.99 39.82 1196.58 40.0067 1197.34 40.22C1198.26 40.4733 1199 40.7267 1199.56 40.98C1200.12 41.22 1200.6 41.6 1201 42.12C1201.4 42.6267 1201.6 43.32 1201.6 44.2C1201.6 44.88 1201.42 45.52 1201.06 46.12C1200.7 46.72 1200.17 47.2067 1199.46 47.58C1198.75 47.9533 1197.92 48.14 1196.96 48.14ZM1209.06 48.18C1208.03 48.18 1207.1 47.9467 1206.26 47.48C1205.43 47.0133 1204.78 46.3533 1204.3 45.5C1203.83 44.6333 1203.6 43.6333 1203.6 42.5C1203.6 41.38 1203.84 40.3933 1204.32 39.54C1204.81 38.6733 1205.48 38.0133 1206.32 37.56C1207.16 37.0933 1208.1 36.86 1209.14 36.86C1210.18 36.86 1211.12 37.0933 1211.96 37.56C1212.8 38.0133 1213.46 38.6667 1213.94 39.52C1214.43 40.3733 1214.68 41.3667 1214.68 42.5C1214.68 43.6333 1214.42 44.6333 1213.92 45.5C1213.42 46.3533 1212.75 47.0133 1211.9 47.48C1211.04 47.9467 1210.1 48.18 1209.06 48.18ZM1209.06 46.58C1209.71 46.58 1210.32 46.4267 1210.9 46.12C1211.47 45.8133 1211.93 45.3533 1212.28 44.74C1212.64 44.1267 1212.82 43.38 1212.82 42.5C1212.82 41.62 1212.64 40.8733 1212.3 40.26C1211.95 39.6467 1211.5 39.1933 1210.94 38.9C1210.38 38.5933 1209.77 38.44 1209.12 38.44C1208.45 38.44 1207.84 38.5933 1207.28 38.9C1206.73 39.1933 1206.29 39.6467 1205.96 40.26C1205.62 40.8733 1205.46 41.62 1205.46 42.5C1205.46 43.3933 1205.62 44.1467 1205.94 44.76C1206.27 45.3733 1206.71 45.8333 1207.26 46.14C1207.8 46.4333 1208.4 46.58 1209.06 46.58ZM1218.89 38.82C1219.21 38.1933 1219.66 37.7067 1220.25 37.36C1220.85 37.0133 1221.58 36.84 1222.43 36.84V38.72H1221.95C1219.91 38.72 1218.89 39.8267 1218.89 42.04V48H1217.07V37.04H1218.89V38.82ZM1226.75 38.54V45C1226.75 45.5333 1226.87 45.9133 1227.09 46.14C1227.32 46.3533 1227.71 46.46 1228.27 46.46H1229.61V48H1227.97C1226.96 48 1226.2 47.7667 1225.69 47.3C1225.19 46.8333 1224.93 46.0667 1224.93 45V38.54H1223.51V37.04H1224.93V34.28H1226.75V37.04H1229.61V38.54H1226.75ZM1241.82 42.1C1241.82 42.4467 1241.8 42.8133 1241.76 43.2H1233C1233.06 44.28 1233.43 45.1267 1234.1 45.74C1234.78 46.34 1235.6 46.64 1236.56 46.64C1237.34 46.64 1238 46.46 1238.52 46.1C1239.05 45.7267 1239.42 45.2333 1239.64 44.62H1241.6C1241.3 45.6733 1240.72 46.5333 1239.84 47.2C1238.96 47.8533 1237.86 48.18 1236.56 48.18C1235.52 48.18 1234.58 47.9467 1233.76 47.48C1232.94 47.0133 1232.3 46.3533 1231.84 45.5C1231.37 44.6333 1231.14 43.6333 1231.14 42.5C1231.14 41.3667 1231.36 40.3733 1231.82 39.52C1232.27 38.6667 1232.9 38.0133 1233.72 37.56C1234.54 37.0933 1235.49 36.86 1236.56 36.86C1237.6 36.86 1238.52 37.0867 1239.32 37.54C1240.12 37.9933 1240.73 38.62 1241.16 39.42C1241.6 40.2067 1241.82 41.1 1241.82 42.1ZM1239.94 41.72C1239.94 41.0267 1239.78 40.4333 1239.48 39.94C1239.17 39.4333 1238.75 39.0533 1238.22 38.8C1237.7 38.5333 1237.12 38.4 1236.48 38.4C1235.56 38.4 1234.77 38.6933 1234.12 39.28C1233.48 39.8667 1233.11 40.68 1233.02 41.72H1239.94ZM1246.04 38.82C1246.36 38.1933 1246.81 37.7067 1247.4 37.36C1248 37.0133 1248.73 36.84 1249.58 36.84V38.72H1249.1C1247.06 38.72 1246.04 39.8267 1246.04 42.04V48H1244.22V37.04H1246.04V38.82Z" fill="white"/>
<rect x="91" y="35" width="27" height="1" fill="#F9F2F2"/>
<rect x="94" y="41" width="21" height="1" fill="#F9F2F2"/>
<rect x="98" y="47" width="13" height="1" fill="#F9F2F2"/>
<path d="M1266.98 33.1988L1274.92 45.1614H1259.04L1266.98 33.1988Z" fill="#F9F2F2"/>
<rect x="1015.5" y="81.5" width="290" height="336" fill="#3C3636" stroke="#F9F2F2"/>
<path d="M1063.42 129.06V130.54H1057.36V135.24H1062.28V136.72H1057.36V143H1055.54V129.06H1063.42ZM1067.44 133.82C1067.76 133.193 1068.21 132.707 1068.8 132.36C1069.4 132.013 1070.12 131.84 1070.98 131.84V133.72H1070.5C1068.46 133.72 1067.44 134.827 1067.44 137.04V143H1065.62V132.04H1067.44V133.82ZM1083.08 137.1C1083.08 137.447 1083.06 137.813 1083.02 138.2H1074.26C1074.33 139.28 1074.69 140.127 1075.36 140.74C1076.04 141.34 1076.86 141.64 1077.82 141.64C1078.61 141.64 1079.26 141.46 1079.78 141.1C1080.31 140.727 1080.69 140.233 1080.9 139.62H1082.86C1082.57 140.673 1081.98 141.533 1081.1 142.2C1080.22 142.853 1079.13 143.18 1077.82 143.18C1076.78 143.18 1075.85 142.947 1075.02 142.48C1074.21 142.013 1073.57 141.353 1073.1 140.5C1072.63 139.633 1072.4 138.633 1072.4 137.5C1072.4 136.367 1072.63 135.373 1073.08 134.52C1073.53 133.667 1074.17 133.013 1074.98 132.56C1075.81 132.093 1076.75 131.86 1077.82 131.86C1078.86 131.86 1079.78 132.087 1080.58 132.54C1081.38 132.993 1081.99 133.62 1082.42 134.42C1082.86 135.207 1083.08 136.1 1083.08 137.1ZM1081.2 136.72C1081.2 136.027 1081.05 135.433 1080.74 134.94C1080.43 134.433 1080.01 134.053 1079.48 133.8C1078.96 133.533 1078.38 133.4 1077.74 133.4C1076.82 133.4 1076.03 133.693 1075.38 134.28C1074.74 134.867 1074.37 135.68 1074.28 136.72H1081.2ZM1098.66 131.84C1099.51 131.84 1100.27 132.02 1100.94 132.38C1101.61 132.727 1102.13 133.253 1102.52 133.96C1102.91 134.667 1103.1 135.527 1103.1 136.54V143H1101.3V136.8C1101.3 135.707 1101.03 134.873 1100.48 134.3C1099.95 133.713 1099.22 133.42 1098.3 133.42C1097.35 133.42 1096.6 133.727 1096.04 134.34C1095.48 134.94 1095.2 135.813 1095.2 136.96V143H1093.4V136.8C1093.4 135.707 1093.13 134.873 1092.58 134.3C1092.05 133.713 1091.32 133.42 1090.4 133.42C1089.45 133.42 1088.7 133.727 1088.14 134.34C1087.58 134.94 1087.3 135.813 1087.3 136.96V143H1085.48V132.04H1087.3V133.62C1087.66 133.047 1088.14 132.607 1088.74 132.3C1089.35 131.993 1090.03 131.84 1090.76 131.84C1091.68 131.84 1092.49 132.047 1093.2 132.46C1093.91 132.873 1094.43 133.48 1094.78 134.28C1095.09 133.507 1095.59 132.907 1096.3 132.48C1097.01 132.053 1097.79 131.84 1098.66 131.84ZM1111.53 131.84C1112.35 131.84 1113.1 132.02 1113.77 132.38C1114.43 132.727 1114.95 133.253 1115.33 133.96C1115.71 134.667 1115.91 135.527 1115.91 136.54V143H1114.11V136.8C1114.11 135.707 1113.83 134.873 1113.29 134.3C1112.74 133.713 1111.99 133.42 1111.05 133.42C1110.09 133.42 1109.32 133.72 1108.75 134.32C1108.19 134.92 1107.91 135.793 1107.91 136.94V143H1106.09V128.2H1107.91V133.6C1108.27 133.04 1108.76 132.607 1109.39 132.3C1110.03 131.993 1110.74 131.84 1111.53 131.84ZM1138.44 137.06C1138.44 137.447 1138.41 137.807 1138.36 138.14H1129.34C1129.41 138.887 1129.62 139.527 1129.98 140.06C1130.34 140.58 1130.79 140.973 1131.32 141.24C1131.85 141.507 1132.41 141.64 1133 141.64C1133.85 141.64 1134.56 141.46 1135.12 141.1C1135.68 140.727 1136.05 140.233 1136.24 139.62H1138.2C1137.91 140.673 1137.33 141.533 1136.48 142.2C1135.63 142.853 1134.57 143.18 1133.3 143.18C1132.41 143.18 1131.58 142.973 1130.82 142.56C1130.07 142.147 1129.51 141.587 1129.12 140.88V143H1127.54V140.9C1127.14 141.58 1126.58 142.133 1125.86 142.56C1125.14 142.973 1124.32 143.18 1123.4 143.18C1122.43 143.18 1121.54 142.94 1120.74 142.46C1119.95 141.98 1119.33 141.307 1118.88 140.44C1118.43 139.573 1118.2 138.587 1118.2 137.48C1118.2 136.36 1118.43 135.38 1118.88 134.54C1119.35 133.687 1119.98 133.027 1120.78 132.56C1121.58 132.093 1122.49 131.86 1123.5 131.86C1124.39 131.86 1125.19 132.053 1125.88 132.44C1126.59 132.813 1127.16 133.353 1127.6 134.06V132.04H1129.12V134.06C1130.07 132.593 1131.46 131.86 1133.3 131.86C1134.31 131.86 1135.21 132.093 1135.98 132.56C1136.77 133.013 1137.37 133.64 1137.8 134.44C1138.23 135.227 1138.44 136.1 1138.44 137.06ZM1136.56 136.82C1136.56 136.113 1136.4 135.507 1136.08 135C1135.77 134.48 1135.35 134.087 1134.8 133.82C1134.27 133.54 1133.67 133.4 1133.02 133.4C1132.06 133.4 1131.23 133.707 1130.52 134.32C1129.83 134.933 1129.43 135.767 1129.34 136.82H1136.56ZM1123.76 141.58C1124.44 141.58 1125.06 141.42 1125.62 141.1C1126.19 140.767 1126.65 140.293 1126.98 139.68C1127.31 139.053 1127.48 138.327 1127.48 137.5C1127.48 136.673 1127.31 135.953 1126.98 135.34C1126.65 134.727 1126.19 134.26 1125.62 133.94C1125.06 133.607 1124.44 133.44 1123.76 133.44C1123.08 133.44 1122.46 133.6 1121.9 133.92C1121.34 134.24 1120.89 134.707 1120.56 135.32C1120.23 135.933 1120.06 136.653 1120.06 137.48C1120.06 138.32 1120.23 139.053 1120.56 139.68C1120.89 140.293 1121.34 140.767 1121.9 141.1C1122.46 141.42 1123.08 141.58 1123.76 141.58ZM1144.89 141.32L1148.29 132.04H1150.23L1145.93 143H1143.81L1139.51 132.04H1141.47L1144.89 141.32ZM1162.02 137.1C1162.02 137.447 1162 137.813 1161.96 138.2H1153.2C1153.27 139.28 1153.64 140.127 1154.3 140.74C1154.98 141.34 1155.8 141.64 1156.76 141.64C1157.55 141.64 1158.2 141.46 1158.72 141.1C1159.26 140.727 1159.63 140.233 1159.84 139.62H1161.8C1161.51 140.673 1160.92 141.533 1160.04 142.2C1159.16 142.853 1158.07 143.18 1156.76 143.18C1155.72 143.18 1154.79 142.947 1153.96 142.48C1153.15 142.013 1152.51 141.353 1152.04 140.5C1151.58 139.633 1151.34 138.633 1151.34 137.5C1151.34 136.367 1151.57 135.373 1152.02 134.52C1152.48 133.667 1153.11 133.013 1153.92 132.56C1154.75 132.093 1155.7 131.86 1156.76 131.86C1157.8 131.86 1158.72 132.087 1159.52 132.54C1160.32 132.993 1160.94 133.62 1161.36 134.42C1161.8 135.207 1162.02 136.1 1162.02 137.1ZM1160.14 136.72C1160.14 136.027 1159.99 135.433 1159.68 134.94C1159.38 134.433 1158.96 134.053 1158.42 133.8C1157.9 133.533 1157.32 133.4 1156.68 133.4C1155.76 133.4 1154.98 133.693 1154.32 134.28C1153.68 134.867 1153.32 135.68 1153.22 136.72H1160.14ZM1166.65 133.54V140C1166.65 140.533 1166.76 140.913 1166.99 141.14C1167.21 141.353 1167.61 141.46 1168.17 141.46H1169.51V143H1167.87C1166.85 143 1166.09 142.767 1165.59 142.3C1165.08 141.833 1164.83 141.067 1164.83 140V133.54H1163.41V132.04H1164.83V129.28H1166.65V132.04H1169.51V133.54H1166.65ZM1062.52 165.82C1063.03 165.9 1063.49 166.107 1063.9 166.44C1064.33 166.773 1064.66 167.187 1064.9 167.68C1065.15 168.173 1065.28 168.7 1065.28 169.26C1065.28 169.967 1065.1 170.607 1064.74 171.18C1064.38 171.74 1063.85 172.187 1063.16 172.52C1062.48 172.84 1061.67 173 1060.74 173H1055.54V159.06H1060.54C1061.49 159.06 1062.29 159.22 1062.96 159.54C1063.63 159.847 1064.13 160.267 1064.46 160.8C1064.79 161.333 1064.96 161.933 1064.96 162.6C1064.96 163.427 1064.73 164.113 1064.28 164.66C1063.84 165.193 1063.25 165.58 1062.52 165.82ZM1057.36 165.08H1060.42C1061.27 165.08 1061.93 164.88 1062.4 164.48C1062.87 164.08 1063.1 163.527 1063.1 162.82C1063.1 162.113 1062.87 161.56 1062.4 161.16C1061.93 160.76 1061.26 160.56 1060.38 160.56H1057.36V165.08ZM1060.58 171.5C1061.49 171.5 1062.19 171.287 1062.7 170.86C1063.21 170.433 1063.46 169.84 1063.46 169.08C1063.46 168.307 1063.19 167.7 1062.66 167.26C1062.13 166.807 1061.41 166.58 1060.52 166.58H1057.36V171.5H1060.58ZM1077.81 167.1C1077.81 167.447 1077.79 167.813 1077.75 168.2H1068.99C1069.05 169.28 1069.42 170.127 1070.09 170.74C1070.77 171.34 1071.59 171.64 1072.55 171.64C1073.33 171.64 1073.99 171.46 1074.51 171.1C1075.04 170.727 1075.41 170.233 1075.63 169.62H1077.59C1077.29 170.673 1076.71 171.533 1075.83 172.2C1074.95 172.853 1073.85 173.18 1072.55 173.18C1071.51 173.18 1070.57 172.947 1069.75 172.48C1068.93 172.013 1068.29 171.353 1067.83 170.5C1067.36 169.633 1067.13 168.633 1067.13 167.5C1067.13 166.367 1067.35 165.373 1067.81 164.52C1068.26 163.667 1068.89 163.013 1069.71 162.56C1070.53 162.093 1071.48 161.86 1072.55 161.86C1073.59 161.86 1074.51 162.087 1075.31 162.54C1076.11 162.993 1076.72 163.62 1077.15 164.42C1077.59 165.207 1077.81 166.1 1077.81 167.1ZM1075.93 166.72C1075.93 166.027 1075.77 165.433 1075.47 164.94C1075.16 164.433 1074.74 164.053 1074.21 163.8C1073.69 163.533 1073.11 163.4 1072.47 163.4C1071.55 163.4 1070.76 163.693 1070.11 164.28C1069.47 164.867 1069.1 165.68 1069.01 166.72H1075.93ZM1084.09 173.18C1083.25 173.18 1082.49 173.04 1081.83 172.76C1081.16 172.467 1080.63 172.067 1080.25 171.56C1079.86 171.04 1079.65 170.447 1079.61 169.78H1081.49C1081.54 170.327 1081.79 170.773 1082.25 171.12C1082.71 171.467 1083.32 171.64 1084.07 171.64C1084.76 171.64 1085.31 171.487 1085.71 171.18C1086.11 170.873 1086.31 170.487 1086.31 170.02C1086.31 169.54 1086.09 169.187 1085.67 168.96C1085.24 168.72 1084.58 168.487 1083.69 168.26C1082.87 168.047 1082.21 167.833 1081.69 167.62C1081.18 167.393 1080.74 167.067 1080.37 166.64C1080.01 166.2 1079.83 165.627 1079.83 164.92C1079.83 164.36 1079.99 163.847 1080.33 163.38C1080.66 162.913 1081.13 162.547 1081.75 162.28C1082.36 162 1083.06 161.86 1083.85 161.86C1085.06 161.86 1086.04 162.167 1086.79 162.78C1087.53 163.393 1087.93 164.233 1087.99 165.3H1086.17C1086.13 164.727 1085.89 164.267 1085.47 163.92C1085.05 163.573 1084.49 163.4 1083.79 163.4C1083.13 163.4 1082.61 163.54 1082.23 163.82C1081.84 164.1 1081.65 164.467 1081.65 164.92C1081.65 165.28 1081.76 165.58 1081.99 165.82C1082.23 166.047 1082.52 166.233 1082.87 166.38C1083.23 166.513 1083.72 166.667 1084.35 166.84C1085.13 167.053 1085.77 167.267 1086.27 167.48C1086.76 167.68 1087.18 167.987 1087.53 168.4C1087.89 168.813 1088.07 169.353 1088.09 170.02C1088.09 170.62 1087.92 171.16 1087.59 171.64C1087.25 172.12 1086.78 172.5 1086.17 172.78C1085.57 173.047 1084.87 173.18 1084.09 173.18ZM1092.88 163.54V170C1092.88 170.533 1092.99 170.913 1093.22 171.14C1093.44 171.353 1093.84 171.46 1094.4 171.46H1095.74V173H1094.1C1093.08 173 1092.32 172.767 1091.82 172.3C1091.31 171.833 1091.06 171.067 1091.06 170V163.54H1089.64V162.04H1091.06V159.28H1092.88V162.04H1095.74V163.54H1092.88ZM1101.82 173.18C1100.98 173.18 1100.23 173.04 1099.56 172.76C1098.9 172.467 1098.37 172.067 1097.98 171.56C1097.6 171.04 1097.38 170.447 1097.34 169.78H1099.22C1099.28 170.327 1099.53 170.773 1099.98 171.12C1100.45 171.467 1101.06 171.64 1101.8 171.64C1102.5 171.64 1103.04 171.487 1103.44 171.18C1103.84 170.873 1104.04 170.487 1104.04 170.02C1104.04 169.54 1103.83 169.187 1103.4 168.96C1102.98 168.72 1102.32 168.487 1101.42 168.26C1100.61 168.047 1099.94 167.833 1099.42 167.62C1098.92 167.393 1098.48 167.067 1098.1 166.64C1097.74 166.2 1097.56 165.627 1097.56 164.92C1097.56 164.36 1097.73 163.847 1098.06 163.38C1098.4 162.913 1098.87 162.547 1099.48 162.28C1100.1 162 1100.8 161.86 1101.58 161.86C1102.8 161.86 1103.78 162.167 1104.52 162.78C1105.27 163.393 1105.67 164.233 1105.72 165.3H1103.9C1103.86 164.727 1103.63 164.267 1103.2 163.92C1102.79 163.573 1102.23 163.4 1101.52 163.4C1100.87 163.4 1100.35 163.54 1099.96 163.82C1099.58 164.1 1099.38 164.467 1099.38 164.92C1099.38 165.28 1099.5 165.58 1099.72 165.82C1099.96 166.047 1100.26 166.233 1100.6 166.38C1100.96 166.513 1101.46 166.667 1102.08 166.84C1102.87 167.053 1103.51 167.267 1104 167.48C1104.5 167.68 1104.92 167.987 1105.26 168.4C1105.62 168.813 1105.81 169.353 1105.82 170.02C1105.82 170.62 1105.66 171.16 1105.32 171.64C1104.99 172.12 1104.52 172.5 1103.9 172.78C1103.3 173.047 1102.61 173.18 1101.82 173.18ZM1118.39 167.1C1118.39 167.447 1118.37 167.813 1118.33 168.2H1109.57C1109.64 169.28 1110 170.127 1110.67 170.74C1111.35 171.34 1112.17 171.64 1113.13 171.64C1113.92 171.64 1114.57 171.46 1115.09 171.1C1115.62 170.727 1116 170.233 1116.21 169.62H1118.17C1117.88 170.673 1117.29 171.533 1116.41 172.2C1115.53 172.853 1114.44 173.18 1113.13 173.18C1112.09 173.18 1111.16 172.947 1110.33 172.48C1109.52 172.013 1108.88 171.353 1108.41 170.5C1107.94 169.633 1107.71 168.633 1107.71 167.5C1107.71 166.367 1107.94 165.373 1108.39 164.52C1108.84 163.667 1109.48 163.013 1110.29 162.56C1111.12 162.093 1112.06 161.86 1113.13 161.86C1114.17 161.86 1115.09 162.087 1115.89 162.54C1116.69 162.993 1117.3 163.62 1117.73 164.42C1118.17 165.207 1118.39 166.1 1118.39 167.1ZM1116.51 166.72C1116.51 166.027 1116.36 165.433 1116.05 164.94C1115.74 164.433 1115.32 164.053 1114.79 163.8C1114.27 163.533 1113.69 163.4 1113.05 163.4C1112.13 163.4 1111.34 163.693 1110.69 164.28C1110.05 164.867 1109.68 165.68 1109.59 166.72H1116.51ZM1122.61 158.2V173H1120.79V158.2H1122.61ZM1127.54 158.2V173H1125.72V158.2H1127.54ZM1140.64 167.1C1140.64 167.447 1140.62 167.813 1140.58 168.2H1131.82C1131.88 169.28 1132.25 170.127 1132.92 170.74C1133.6 171.34 1134.42 171.64 1135.38 171.64C1136.16 171.64 1136.82 171.46 1137.34 171.1C1137.87 170.727 1138.24 170.233 1138.46 169.62H1140.42C1140.12 170.673 1139.54 171.533 1138.66 172.2C1137.78 172.853 1136.68 173.18 1135.38 173.18C1134.34 173.18 1133.4 172.947 1132.58 172.48C1131.76 172.013 1131.12 171.353 1130.66 170.5C1130.19 169.633 1129.96 168.633 1129.96 167.5C1129.96 166.367 1130.18 165.373 1130.64 164.52C1131.09 163.667 1131.72 163.013 1132.54 162.56C1133.36 162.093 1134.31 161.86 1135.38 161.86C1136.42 161.86 1137.34 162.087 1138.14 162.54C1138.94 162.993 1139.55 163.62 1139.98 164.42C1140.42 165.207 1140.64 166.1 1140.64 167.1ZM1138.76 166.72C1138.76 166.027 1138.6 165.433 1138.3 164.94C1137.99 164.433 1137.57 164.053 1137.04 163.8C1136.52 163.533 1135.94 163.4 1135.3 163.4C1134.38 163.4 1133.59 163.693 1132.94 164.28C1132.3 164.867 1131.93 165.68 1131.84 166.72H1138.76ZM1144.86 163.82C1145.18 163.193 1145.63 162.707 1146.22 162.36C1146.82 162.013 1147.55 161.84 1148.4 161.84V163.72H1147.92C1145.88 163.72 1144.86 164.827 1144.86 167.04V173H1143.04V162.04H1144.86V163.82ZM1160.5 167.1C1160.5 167.447 1160.48 167.813 1160.44 168.2H1151.68C1151.75 169.28 1152.11 170.127 1152.78 170.74C1153.46 171.34 1154.28 171.64 1155.24 171.64C1156.03 171.64 1156.68 171.46 1157.2 171.1C1157.73 170.727 1158.11 170.233 1158.32 169.62H1160.28C1159.99 170.673 1159.4 171.533 1158.52 172.2C1157.64 172.853 1156.55 173.18 1155.24 173.18C1154.2 173.18 1153.27 172.947 1152.44 172.48C1151.63 172.013 1150.99 171.353 1150.52 170.5C1150.05 169.633 1149.82 168.633 1149.82 167.5C1149.82 166.367 1150.05 165.373 1150.5 164.52C1150.95 163.667 1151.59 163.013 1152.4 162.56C1153.23 162.093 1154.17 161.86 1155.24 161.86C1156.28 161.86 1157.2 162.087 1158 162.54C1158.8 162.993 1159.41 163.62 1159.84 164.42C1160.28 165.207 1160.5 166.1 1160.5 167.1ZM1158.62 166.72C1158.62 166.027 1158.47 165.433 1158.16 164.94C1157.85 164.433 1157.43 164.053 1156.9 163.8C1156.38 163.533 1155.8 163.4 1155.16 163.4C1154.24 163.4 1153.45 163.693 1152.8 164.28C1152.16 164.867 1151.79 165.68 1151.7 166.72H1158.62ZM1063.78 199.9H1057.7L1056.58 203H1054.66L1059.7 189.14H1061.8L1066.82 203H1064.9L1063.78 199.9ZM1063.26 198.42L1060.74 191.38L1058.22 198.42H1063.26ZM1070.84 188.2V203H1069.02V188.2H1070.84ZM1078.4 193.54H1076.1V203H1074.28V193.54H1072.86V192.04H1074.28V191.26C1074.28 190.033 1074.59 189.14 1075.22 188.58C1075.86 188.007 1076.88 187.72 1078.28 187.72V189.24C1077.48 189.24 1076.91 189.4 1076.58 189.72C1076.26 190.027 1076.1 190.54 1076.1 191.26V192.04H1078.4V193.54ZM1079.84 197.48C1079.84 196.36 1080.07 195.38 1080.52 194.54C1080.97 193.687 1081.59 193.027 1082.38 192.56C1083.18 192.093 1084.07 191.86 1085.04 191.86C1086 191.86 1086.83 192.067 1087.54 192.48C1088.25 192.893 1088.77 193.413 1089.12 194.04V192.04H1090.96V203H1089.12V200.96C1088.76 201.6 1088.22 202.133 1087.5 202.56C1086.79 202.973 1085.97 203.18 1085.02 203.18C1084.05 203.18 1083.17 202.94 1082.38 202.46C1081.59 201.98 1080.97 201.307 1080.52 200.44C1080.07 199.573 1079.84 198.587 1079.84 197.48ZM1089.12 197.5C1089.12 196.673 1088.95 195.953 1088.62 195.34C1088.29 194.727 1087.83 194.26 1087.26 193.94C1086.7 193.607 1086.08 193.44 1085.4 193.44C1084.72 193.44 1084.1 193.6 1083.54 193.92C1082.98 194.24 1082.53 194.707 1082.2 195.32C1081.87 195.933 1081.7 196.653 1081.7 197.48C1081.7 198.32 1081.87 199.053 1082.2 199.68C1082.53 200.293 1082.98 200.767 1083.54 201.1C1084.1 201.42 1084.72 201.58 1085.4 201.58C1086.08 201.58 1086.7 201.42 1087.26 201.1C1087.83 200.767 1088.29 200.293 1088.62 199.68C1088.95 199.053 1089.12 198.327 1089.12 197.5ZM1095.86 194.08C1096.23 193.427 1096.78 192.893 1097.5 192.48C1098.22 192.067 1099.04 191.86 1099.96 191.86C1100.94 191.86 1101.83 192.093 1102.62 192.56C1103.4 193.027 1104.02 193.687 1104.48 194.54C1104.93 195.38 1105.16 196.36 1105.16 197.48C1105.16 198.587 1104.93 199.573 1104.48 200.44C1104.02 201.307 1103.4 201.98 1102.6 202.46C1101.81 202.94 1100.93 203.18 1099.96 203.18C1099.01 203.18 1098.18 202.973 1097.46 202.56C1096.75 202.147 1096.22 201.62 1095.86 200.98V203H1094.04V188.2H1095.86V194.08ZM1103.3 197.48C1103.3 196.653 1103.13 195.933 1102.8 195.32C1102.46 194.707 1102.01 194.24 1101.44 193.92C1100.88 193.6 1100.26 193.44 1099.58 193.44C1098.91 193.44 1098.29 193.607 1097.72 193.94C1097.16 194.26 1096.7 194.733 1096.36 195.36C1096.02 195.973 1095.86 196.687 1095.86 197.5C1095.86 198.327 1096.02 199.053 1096.36 199.68C1096.7 200.293 1097.16 200.767 1097.72 201.1C1098.29 201.42 1098.91 201.58 1099.58 201.58C1100.26 201.58 1100.88 201.42 1101.44 201.1C1102.01 200.767 1102.46 200.293 1102.8 199.68C1103.13 199.053 1103.3 198.32 1103.3 197.48ZM1117.55 197.1C1117.55 197.447 1117.53 197.813 1117.49 198.2H1108.73C1108.8 199.28 1109.17 200.127 1109.83 200.74C1110.51 201.34 1111.33 201.64 1112.29 201.64C1113.08 201.64 1113.73 201.46 1114.25 201.1C1114.79 200.727 1115.16 200.233 1115.37 199.62H1117.33C1117.04 200.673 1116.45 201.533 1115.57 202.2C1114.69 202.853 1113.6 203.18 1112.29 203.18C1111.25 203.18 1110.32 202.947 1109.49 202.48C1108.68 202.013 1108.04 201.353 1107.57 200.5C1107.11 199.633 1106.87 198.633 1106.87 197.5C1106.87 196.367 1107.1 195.373 1107.55 194.52C1108.01 193.667 1108.64 193.013 1109.45 192.56C1110.28 192.093 1111.23 191.86 1112.29 191.86C1113.33 191.86 1114.25 192.087 1115.05 192.54C1115.85 192.993 1116.47 193.62 1116.89 194.42C1117.33 195.207 1117.55 196.1 1117.55 197.1ZM1115.67 196.72C1115.67 196.027 1115.52 195.433 1115.21 194.94C1114.91 194.433 1114.49 194.053 1113.95 193.8C1113.43 193.533 1112.85 193.4 1112.21 193.4C1111.29 193.4 1110.51 193.693 1109.85 194.28C1109.21 194.867 1108.85 195.68 1108.75 196.72H1115.67ZM1122.17 193.54V200C1122.17 200.533 1122.29 200.913 1122.51 201.14C1122.74 201.353 1123.13 201.46 1123.69 201.46H1125.03V203H1123.39C1122.38 203 1121.62 202.767 1121.11 202.3C1120.61 201.833 1120.35 201.067 1120.35 200V193.54H1118.93V192.04H1120.35V189.28H1122.17V192.04H1125.03V193.54H1122.17ZM1128.18 190.26C1127.83 190.26 1127.54 190.14 1127.3 189.9C1127.06 189.66 1126.94 189.367 1126.94 189.02C1126.94 188.673 1127.06 188.38 1127.3 188.14C1127.54 187.9 1127.83 187.78 1128.18 187.78C1128.51 187.78 1128.79 187.9 1129.02 188.14C1129.26 188.38 1129.38 188.673 1129.38 189.02C1129.38 189.367 1129.26 189.66 1129.02 189.9C1128.79 190.14 1128.51 190.26 1128.18 190.26ZM1129.06 192.04V203H1127.24V192.04H1129.06ZM1136.04 203.18C1135.2 203.18 1134.45 203.04 1133.78 202.76C1133.11 202.467 1132.59 202.067 1132.2 201.56C1131.81 201.04 1131.6 200.447 1131.56 199.78H1133.44C1133.49 200.327 1133.75 200.773 1134.2 201.12C1134.67 201.467 1135.27 201.64 1136.02 201.64C1136.71 201.64 1137.26 201.487 1137.66 201.18C1138.06 200.873 1138.26 200.487 1138.26 200.02C1138.26 199.54 1138.05 199.187 1137.62 198.96C1137.19 198.72 1136.53 198.487 1135.64 198.26C1134.83 198.047 1134.16 197.833 1133.64 197.62C1133.13 197.393 1132.69 197.067 1132.32 196.64C1131.96 196.2 1131.78 195.627 1131.78 194.92C1131.78 194.36 1131.95 193.847 1132.28 193.38C1132.61 192.913 1133.09 192.547 1133.7 192.28C1134.31 192 1135.01 191.86 1135.8 191.86C1137.01 191.86 1137.99 192.167 1138.74 192.78C1139.49 193.393 1139.89 194.233 1139.94 195.3H1138.12C1138.08 194.727 1137.85 194.267 1137.42 193.92C1137.01 193.573 1136.45 193.4 1135.74 193.4C1135.09 193.4 1134.57 193.54 1134.18 193.82C1133.79 194.1 1133.6 194.467 1133.6 194.92C1133.6 195.28 1133.71 195.58 1133.94 195.82C1134.18 196.047 1134.47 196.233 1134.82 196.38C1135.18 196.513 1135.67 196.667 1136.3 196.84C1137.09 197.053 1137.73 197.267 1138.22 197.48C1138.71 197.68 1139.13 197.987 1139.48 198.4C1139.84 198.813 1140.03 199.353 1140.04 200.02C1140.04 200.62 1139.87 201.16 1139.54 201.64C1139.21 202.12 1138.73 202.5 1138.12 202.78C1137.52 203.047 1136.83 203.18 1136.04 203.18ZM1148.73 203L1144.43 198.16V203H1142.61V188.2H1144.43V196.9L1148.65 192.04H1151.19L1146.03 197.5L1151.21 203H1148.73ZM1154.78 200.48L1152.54 205.86H1151.32L1152.78 200.48H1154.78ZM1170.44 199.9H1164.36L1163.24 203H1161.32L1166.36 189.14H1168.46L1173.48 203H1171.56L1170.44 199.9ZM1169.92 198.42L1167.4 191.38L1164.88 198.42H1169.92ZM1183.28 194.9V196.44H1175.3V194.9H1183.28ZM1194.93 199.9H1188.85L1187.73 203H1185.81L1190.85 189.14H1192.95L1197.97 203H1196.05L1194.93 199.9ZM1194.41 198.42L1191.89 191.38L1189.37 198.42H1194.41ZM1194.05 185.86C1194.05 186.5 1193.85 187.013 1193.43 187.4C1193.03 187.773 1192.53 187.96 1191.91 187.96C1191.31 187.96 1190.81 187.767 1190.39 187.38C1189.98 186.993 1189.77 186.487 1189.77 185.86C1189.77 185.233 1189.98 184.727 1190.39 184.34C1190.81 183.953 1191.31 183.76 1191.91 183.76C1192.53 183.76 1193.03 183.953 1193.43 184.34C1193.85 184.713 1194.05 185.22 1194.05 185.86ZM1192.99 185.84C1192.99 185.507 1192.89 185.24 1192.67 185.04C1192.47 184.827 1192.22 184.72 1191.91 184.72C1191.61 184.72 1191.35 184.827 1191.13 185.04C1190.93 185.24 1190.83 185.507 1190.83 185.84C1190.83 186.173 1190.93 186.447 1191.13 186.66C1191.35 186.873 1191.61 186.98 1191.91 186.98C1192.22 186.98 1192.47 186.873 1192.67 186.66C1192.89 186.447 1192.99 186.173 1192.99 185.84ZM1063.78 229.9H1057.7L1056.58 233H1054.66L1059.7 219.14H1061.8L1066.82 233H1064.9L1063.78 229.9ZM1063.26 228.42L1060.74 221.38L1058.22 228.42H1063.26ZM1070.84 218.2V233H1069.02V218.2H1070.84ZM1078.4 223.54H1076.1V233H1074.28V223.54H1072.86V222.04H1074.28V221.26C1074.28 220.033 1074.59 219.14 1075.22 218.58C1075.86 218.007 1076.88 217.72 1078.28 217.72V219.24C1077.48 219.24 1076.91 219.4 1076.58 219.72C1076.26 220.027 1076.1 220.54 1076.1 221.26V222.04H1078.4V223.54ZM1079.84 227.48C1079.84 226.36 1080.07 225.38 1080.52 224.54C1080.97 223.687 1081.59 223.027 1082.38 222.56C1083.18 222.093 1084.07 221.86 1085.04 221.86C1086 221.86 1086.83 222.067 1087.54 222.48C1088.25 222.893 1088.77 223.413 1089.12 224.04V222.04H1090.96V233H1089.12V230.96C1088.76 231.6 1088.22 232.133 1087.5 232.56C1086.79 232.973 1085.97 233.18 1085.02 233.18C1084.05 233.18 1083.17 232.94 1082.38 232.46C1081.59 231.98 1080.97 231.307 1080.52 230.44C1080.07 229.573 1079.84 228.587 1079.84 227.48ZM1089.12 227.5C1089.12 226.673 1088.95 225.953 1088.62 225.34C1088.29 224.727 1087.83 224.26 1087.26 223.94C1086.7 223.607 1086.08 223.44 1085.4 223.44C1084.72 223.44 1084.1 223.6 1083.54 223.92C1082.98 224.24 1082.53 224.707 1082.2 225.32C1081.87 225.933 1081.7 226.653 1081.7 227.48C1081.7 228.32 1081.87 229.053 1082.2 229.68C1082.53 230.293 1082.98 230.767 1083.54 231.1C1084.1 231.42 1084.72 231.58 1085.4 231.58C1086.08 231.58 1086.7 231.42 1087.26 231.1C1087.83 230.767 1088.29 230.293 1088.62 229.68C1088.95 229.053 1089.12 228.327 1089.12 227.5ZM1095.86 224.08C1096.23 223.427 1096.78 222.893 1097.5 222.48C1098.22 222.067 1099.04 221.86 1099.96 221.86C1100.94 221.86 1101.83 222.093 1102.62 222.56C1103.4 223.027 1104.02 223.687 1104.48 224.54C1104.93 225.38 1105.16 226.36 1105.16 227.48C1105.16 228.587 1104.93 229.573 1104.48 230.44C1104.02 231.307 1103.4 231.98 1102.6 232.46C1101.81 232.94 1100.93 233.18 1099.96 233.18C1099.01 233.18 1098.18 232.973 1097.46 232.56C1096.75 232.147 1096.22 231.62 1095.86 230.98V233H1094.04V218.2H1095.86V224.08ZM1103.3 227.48C1103.3 226.653 1103.13 225.933 1102.8 225.32C1102.46 224.707 1102.01 224.24 1101.44 223.92C1100.88 223.6 1100.26 223.44 1099.58 223.44C1098.91 223.44 1098.29 223.607 1097.72 223.94C1097.16 224.26 1096.7 224.733 1096.36 225.36C1096.02 225.973 1095.86 226.687 1095.86 227.5C1095.86 228.327 1096.02 229.053 1096.36 229.68C1096.7 230.293 1097.16 230.767 1097.72 231.1C1098.29 231.42 1098.91 231.58 1099.58 231.58C1100.26 231.58 1100.88 231.42 1101.44 231.1C1102.01 230.767 1102.46 230.293 1102.8 229.68C1103.13 229.053 1103.3 228.32 1103.3 227.48ZM1117.55 227.1C1117.55 227.447 1117.53 227.813 1117.49 228.2H1108.73C1108.8 229.28 1109.17 230.127 1109.83 230.74C1110.51 231.34 1111.33 231.64 1112.29 231.64C1113.08 231.64 1113.73 231.46 1114.25 231.1C1114.79 230.727 1115.16 230.233 1115.37 229.62H1117.33C1117.04 230.673 1116.45 231.533 1115.57 232.2C1114.69 232.853 1113.6 233.18 1112.29 233.18C1111.25 233.18 1110.32 232.947 1109.49 232.48C1108.68 232.013 1108.04 231.353 1107.57 230.5C1107.11 229.633 1106.87 228.633 1106.87 227.5C1106.87 226.367 1107.1 225.373 1107.55 224.52C1108.01 223.667 1108.64 223.013 1109.45 222.56C1110.28 222.093 1111.23 221.86 1112.29 221.86C1113.33 221.86 1114.25 222.087 1115.05 222.54C1115.85 222.993 1116.47 223.62 1116.89 224.42C1117.33 225.207 1117.55 226.1 1117.55 227.1ZM1115.67 226.72C1115.67 226.027 1115.52 225.433 1115.21 224.94C1114.91 224.433 1114.49 224.053 1113.95 223.8C1113.43 223.533 1112.85 223.4 1112.21 223.4C1111.29 223.4 1110.51 223.693 1109.85 224.28C1109.21 224.867 1108.85 225.68 1108.75 226.72H1115.67ZM1122.17 223.54V230C1122.17 230.533 1122.29 230.913 1122.51 231.14C1122.74 231.353 1123.13 231.46 1123.69 231.46H1125.03V233H1123.39C1122.38 233 1121.62 232.767 1121.11 232.3C1120.61 231.833 1120.35 231.067 1120.35 230V223.54H1118.93V222.04H1120.35V219.28H1122.17V222.04H1125.03V223.54H1122.17ZM1128.18 220.26C1127.83 220.26 1127.54 220.14 1127.3 219.9C1127.06 219.66 1126.94 219.367 1126.94 219.02C1126.94 218.673 1127.06 218.38 1127.3 218.14C1127.54 217.9 1127.83 217.78 1128.18 217.78C1128.51 217.78 1128.79 217.9 1129.02 218.14C1129.26 218.38 1129.38 218.673 1129.38 219.02C1129.38 219.367 1129.26 219.66 1129.02 219.9C1128.79 220.14 1128.51 220.26 1128.18 220.26ZM1129.06 222.04V233H1127.24V222.04H1129.06ZM1136.04 233.18C1135.2 233.18 1134.45 233.04 1133.78 232.76C1133.11 232.467 1132.59 232.067 1132.2 231.56C1131.81 231.04 1131.6 230.447 1131.56 229.78H1133.44C1133.49 230.327 1133.75 230.773 1134.2 231.12C1134.67 231.467 1135.27 231.64 1136.02 231.64C1136.71 231.64 1137.26 231.487 1137.66 231.18C1138.06 230.873 1138.26 230.487 1138.26 230.02C1138.26 229.54 1138.05 229.187 1137.62 228.96C1137.19 228.72 1136.53 228.487 1135.64 228.26C1134.83 228.047 1134.16 227.833 1133.64 227.62C1133.13 227.393 1132.69 227.067 1132.32 226.64C1131.96 226.2 1131.78 225.627 1131.78 224.92C1131.78 224.36 1131.95 223.847 1132.28 223.38C1132.61 222.913 1133.09 222.547 1133.7 222.28C1134.31 222 1135.01 221.86 1135.8 221.86C1137.01 221.86 1137.99 222.167 1138.74 222.78C1139.49 223.393 1139.89 224.233 1139.94 225.3H1138.12C1138.08 224.727 1137.85 224.267 1137.42 223.92C1137.01 223.573 1136.45 223.4 1135.74 223.4C1135.09 223.4 1134.57 223.54 1134.18 223.82C1133.79 224.1 1133.6 224.467 1133.6 224.92C1133.6 225.28 1133.71 225.58 1133.94 225.82C1134.18 226.047 1134.47 226.233 1134.82 226.38C1135.18 226.513 1135.67 226.667 1136.3 226.84C1137.09 227.053 1137.73 227.267 1138.22 227.48C1138.71 227.68 1139.13 227.987 1139.48 228.4C1139.84 228.813 1140.03 229.353 1140.04 230.02C1140.04 230.62 1139.87 231.16 1139.54 231.64C1139.21 232.12 1138.73 232.5 1138.12 232.78C1137.52 233.047 1136.83 233.18 1136.04 233.18ZM1148.73 233L1144.43 228.16V233H1142.61V218.2H1144.43V226.9L1148.65 222.04H1151.19L1146.03 227.5L1151.21 233H1148.73ZM1154.78 230.48L1152.54 235.86H1151.32L1152.78 230.48H1154.78ZM1170.44 229.9H1164.36L1163.24 233H1161.32L1166.36 219.14H1168.46L1173.48 233H1171.56L1170.44 229.9ZM1169.92 228.42L1167.4 221.38L1164.88 228.42H1169.92ZM1169.56 215.86C1169.56 216.5 1169.35 217.013 1168.94 217.4C1168.54 217.773 1168.03 217.96 1167.42 217.96C1166.82 217.96 1166.31 217.767 1165.9 217.38C1165.49 216.993 1165.28 216.487 1165.28 215.86C1165.28 215.233 1165.49 214.727 1165.9 214.34C1166.31 213.953 1166.82 213.76 1167.42 213.76C1168.03 213.76 1168.54 213.953 1168.94 214.34C1169.35 214.713 1169.56 215.22 1169.56 215.86ZM1168.5 215.84C1168.5 215.507 1168.39 215.24 1168.18 215.04C1167.98 214.827 1167.73 214.72 1167.42 214.72C1167.11 214.72 1166.85 214.827 1166.64 215.04C1166.44 215.24 1166.34 215.507 1166.34 215.84C1166.34 216.173 1166.44 216.447 1166.64 216.66C1166.85 216.873 1167.11 216.98 1167.42 216.98C1167.73 216.98 1167.98 216.873 1168.18 216.66C1168.39 216.447 1168.5 216.173 1168.5 215.84ZM1183.28 224.9V226.44H1175.3V224.9H1183.28ZM1194.93 229.9H1188.85L1187.73 233H1185.81L1190.85 219.14H1192.95L1197.97 233H1196.05L1194.93 229.9ZM1194.41 228.42L1191.89 221.38L1189.37 228.42H1194.41ZM1194.05 215.86C1194.05 216.5 1193.85 217.013 1193.43 217.4C1193.03 217.773 1192.53 217.96 1191.91 217.96C1191.31 217.96 1190.81 217.767 1190.39 217.38C1189.98 216.993 1189.77 216.487 1189.77 215.86C1189.77 215.233 1189.98 214.727 1190.39 214.34C1190.81 213.953 1191.31 213.76 1191.91 213.76C1192.53 213.76 1193.03 213.953 1193.43 214.34C1193.85 214.713 1194.05 215.22 1194.05 215.86ZM1192.99 215.84C1192.99 215.507 1192.89 215.24 1192.67 215.04C1192.47 214.827 1192.22 214.72 1191.91 214.72C1191.61 214.72 1191.35 214.827 1191.13 215.04C1190.93 215.24 1190.83 215.507 1190.83 215.84C1190.83 216.173 1190.93 216.447 1191.13 216.66C1191.35 216.873 1191.61 216.98 1191.91 216.98C1192.22 216.98 1192.47 216.873 1192.67 216.66C1192.89 216.447 1192.99 216.173 1192.99 215.84ZM1064.86 253.14C1064.86 254.3 1064.46 255.267 1063.66 256.04C1062.87 256.8 1061.67 257.18 1060.04 257.18H1057.36V263H1055.54V249.06H1060.04C1061.61 249.06 1062.81 249.44 1063.62 250.2C1064.45 250.96 1064.86 251.94 1064.86 253.14ZM1060.04 255.68C1061.05 255.68 1061.8 255.46 1062.28 255.02C1062.76 254.58 1063 253.953 1063 253.14C1063 251.42 1062.01 250.56 1060.04 250.56H1057.36V255.68H1060.04ZM1068.94 253.82C1069.26 253.193 1069.72 252.707 1070.3 252.36C1070.9 252.013 1071.63 251.84 1072.48 251.84V253.72H1072C1069.96 253.72 1068.94 254.827 1068.94 257.04V263H1067.12V252.04H1068.94V253.82ZM1075.52 250.26C1075.18 250.26 1074.88 250.14 1074.64 249.9C1074.4 249.66 1074.28 249.367 1074.28 249.02C1074.28 248.673 1074.4 248.38 1074.64 248.14C1074.88 247.9 1075.18 247.78 1075.52 247.78C1075.86 247.78 1076.14 247.9 1076.36 248.14C1076.6 248.38 1076.72 248.673 1076.72 249.02C1076.72 249.367 1076.6 249.66 1076.36 249.9C1076.14 250.14 1075.86 250.26 1075.52 250.26ZM1076.4 252.04V263H1074.58V252.04H1076.4ZM1083.38 263.18C1082.54 263.18 1081.79 263.04 1081.12 262.76C1080.46 262.467 1079.93 262.067 1079.54 261.56C1079.16 261.04 1078.94 260.447 1078.9 259.78H1080.78C1080.84 260.327 1081.09 260.773 1081.54 261.12C1082.01 261.467 1082.62 261.64 1083.36 261.64C1084.06 261.64 1084.6 261.487 1085 261.18C1085.4 260.873 1085.6 260.487 1085.6 260.02C1085.6 259.54 1085.39 259.187 1084.96 258.96C1084.54 258.72 1083.88 258.487 1082.98 258.26C1082.17 258.047 1081.5 257.833 1080.98 257.62C1080.48 257.393 1080.04 257.067 1079.66 256.64C1079.3 256.2 1079.12 255.627 1079.12 254.92C1079.12 254.36 1079.29 253.847 1079.62 253.38C1079.96 252.913 1080.43 252.547 1081.04 252.28C1081.66 252 1082.36 251.86 1083.14 251.86C1084.36 251.86 1085.34 252.167 1086.08 252.78C1086.83 253.393 1087.23 254.233 1087.28 255.3H1085.46C1085.42 254.727 1085.19 254.267 1084.76 253.92C1084.35 253.573 1083.79 253.4 1083.08 253.4C1082.43 253.4 1081.91 253.54 1081.52 253.82C1081.14 254.1 1080.94 254.467 1080.94 254.92C1080.94 255.28 1081.06 255.58 1081.28 255.82C1081.52 256.047 1081.82 256.233 1082.16 256.38C1082.52 256.513 1083.02 256.667 1083.64 256.84C1084.43 257.053 1085.07 257.267 1085.56 257.48C1086.06 257.68 1086.48 257.987 1086.82 258.4C1087.18 258.813 1087.37 259.353 1087.38 260.02C1087.38 260.62 1087.22 261.16 1086.88 261.64C1086.55 262.12 1086.08 262.5 1085.46 262.78C1084.86 263.047 1084.17 263.18 1083.38 263.18ZM1091.83 260.48L1089.59 265.86H1088.37L1089.83 260.48H1091.83ZM1101.07 248.2V263H1099.25V248.2H1101.07ZM1103.49 257.48C1103.49 256.36 1103.72 255.38 1104.17 254.54C1104.63 253.687 1105.25 253.027 1106.03 252.56C1106.83 252.093 1107.72 251.86 1108.69 251.86C1109.65 251.86 1110.49 252.067 1111.19 252.48C1111.9 252.893 1112.43 253.413 1112.77 254.04V252.04H1114.61V263H1112.77V260.96C1112.41 261.6 1111.87 262.133 1111.15 262.56C1110.45 262.973 1109.62 263.18 1108.67 263.18C1107.7 263.18 1106.82 262.94 1106.03 262.46C1105.25 261.98 1104.63 261.307 1104.17 260.44C1103.72 259.573 1103.49 258.587 1103.49 257.48ZM1112.77 257.5C1112.77 256.673 1112.61 255.953 1112.27 255.34C1111.94 254.727 1111.49 254.26 1110.91 253.94C1110.35 253.607 1109.73 253.44 1109.05 253.44C1108.37 253.44 1107.75 253.6 1107.19 253.92C1106.63 254.24 1106.19 254.707 1105.85 255.32C1105.52 255.933 1105.35 256.653 1105.35 257.48C1105.35 258.32 1105.52 259.053 1105.85 259.68C1106.19 260.293 1106.63 260.767 1107.19 261.1C1107.75 261.42 1108.37 261.58 1109.05 261.58C1109.73 261.58 1110.35 261.42 1110.91 261.1C1111.49 260.767 1111.94 260.293 1112.27 259.68C1112.61 259.053 1112.77 258.327 1112.77 257.5ZM1121.77 261.32L1125.17 252.04H1127.11L1122.81 263H1120.69L1116.39 252.04H1118.35L1121.77 261.32ZM1136.45 253.54V260C1136.45 260.533 1136.56 260.913 1136.79 261.14C1137.02 261.353 1137.41 261.46 1137.97 261.46H1139.31V263H1137.67C1136.66 263 1135.9 262.767 1135.39 262.3C1134.88 261.833 1134.63 261.067 1134.63 260V253.54H1133.21V252.04H1134.63V249.28H1136.45V252.04H1139.31V253.54H1136.45ZM1142.46 250.26C1142.11 250.26 1141.82 250.14 1141.58 249.9C1141.34 249.66 1141.22 249.367 1141.22 249.02C1141.22 248.673 1141.34 248.38 1141.58 248.14C1141.82 247.9 1142.11 247.78 1142.46 247.78C1142.79 247.78 1143.07 247.9 1143.3 248.14C1143.54 248.38 1143.66 248.673 1143.66 249.02C1143.66 249.367 1143.54 249.66 1143.3 249.9C1143.07 250.14 1142.79 250.26 1142.46 250.26ZM1143.34 252.04V263H1141.52V252.04H1143.34ZM1148.26 248.2V263H1146.44V248.2H1148.26ZM1162.13 251.84C1162.96 251.84 1163.71 252.02 1164.37 252.38C1165.04 252.727 1165.56 253.253 1165.93 253.96C1166.32 254.667 1166.51 255.527 1166.51 256.54V263H1164.71V256.8C1164.71 255.707 1164.44 254.873 1163.89 254.3C1163.35 253.713 1162.6 253.42 1161.65 253.42C1160.69 253.42 1159.93 253.72 1159.35 254.32C1158.79 254.92 1158.51 255.793 1158.51 256.94V263H1156.69V248.2H1158.51V253.6C1158.87 253.04 1159.37 252.607 1159.99 252.3C1160.63 251.993 1161.35 251.84 1162.13 251.84ZM1178.55 253.64C1178.97 254.133 1179.3 254.707 1179.53 255.36C1179.77 256.013 1179.89 256.727 1179.89 257.5C1179.89 258.633 1179.63 259.633 1179.13 260.5C1178.63 261.353 1177.96 262.013 1177.11 262.48C1176.25 262.947 1175.31 263.18 1174.27 263.18C1172.97 263.18 1171.83 262.813 1170.85 262.08L1170.01 263H1168.71L1170.15 261.42C1169.72 260.913 1169.39 260.333 1169.15 259.68C1168.92 259.013 1168.81 258.287 1168.81 257.5C1168.81 256.38 1169.05 255.393 1169.53 254.54C1170.02 253.673 1170.69 253.013 1171.53 252.56C1172.37 252.093 1173.31 251.86 1174.35 251.86C1175.69 251.86 1176.86 252.24 1177.85 253L1178.71 252.04H1180.01L1178.55 253.64ZM1170.67 257.5C1170.67 258.527 1170.9 259.393 1171.37 260.1L1176.69 254.26C1176.05 253.713 1175.26 253.44 1174.33 253.44C1173.66 253.44 1173.05 253.593 1172.49 253.9C1171.94 254.193 1171.5 254.647 1171.17 255.26C1170.83 255.873 1170.67 256.62 1170.67 257.5ZM1178.03 257.5C1178.03 256.473 1177.79 255.633 1177.33 254.98L1172.01 260.82C1172.63 261.327 1173.39 261.58 1174.27 261.58C1174.92 261.58 1175.53 261.427 1176.11 261.12C1176.68 260.813 1177.14 260.353 1177.49 259.74C1177.85 259.127 1178.03 258.38 1178.03 257.5ZM1183.26 250.26C1182.91 250.26 1182.62 250.14 1182.38 249.9C1182.15 249.66 1182.04 249.367 1182.04 249.02C1182.04 248.673 1182.15 248.38 1182.38 248.14C1182.62 247.9 1182.91 247.78 1183.26 247.78C1183.6 247.78 1183.89 247.9 1184.12 248.14C1184.36 248.38 1184.48 248.673 1184.48 249.02C1184.48 249.367 1184.36 249.66 1184.12 249.9C1183.89 250.14 1183.6 250.26 1183.26 250.26ZM1184.16 265.38C1184.16 266.353 1183.91 267.067 1183.42 267.52C1182.92 267.973 1182.2 268.2 1181.26 268.2H1180.2V266.66H1180.96C1181.46 266.66 1181.82 266.56 1182.02 266.36C1182.23 266.16 1182.34 265.82 1182.34 265.34V252.04H1184.16V265.38ZM1064.86 283.14C1064.86 284.3 1064.46 285.267 1063.66 286.04C1062.87 286.8 1061.67 287.18 1060.04 287.18H1057.36V293H1055.54V279.06H1060.04C1061.61 279.06 1062.81 279.44 1063.62 280.2C1064.45 280.96 1064.86 281.94 1064.86 283.14ZM1060.04 285.68C1061.05 285.68 1061.8 285.46 1062.28 285.02C1062.76 284.58 1063 283.953 1063 283.14C1063 281.42 1062.01 280.56 1060.04 280.56H1057.36V285.68H1060.04ZM1068.94 283.82C1069.26 283.193 1069.72 282.707 1070.3 282.36C1070.9 282.013 1071.63 281.84 1072.48 281.84V283.72H1072C1069.96 283.72 1068.94 284.827 1068.94 287.04V293H1067.12V282.04H1068.94V283.82ZM1075.52 280.26C1075.18 280.26 1074.88 280.14 1074.64 279.9C1074.4 279.66 1074.28 279.367 1074.28 279.02C1074.28 278.673 1074.4 278.38 1074.64 278.14C1074.88 277.9 1075.18 277.78 1075.52 277.78C1075.86 277.78 1076.14 277.9 1076.36 278.14C1076.6 278.38 1076.72 278.673 1076.72 279.02C1076.72 279.367 1076.6 279.66 1076.36 279.9C1076.14 280.14 1075.86 280.26 1075.52 280.26ZM1076.4 282.04V293H1074.58V282.04H1076.4ZM1083.38 293.18C1082.54 293.18 1081.79 293.04 1081.12 292.76C1080.46 292.467 1079.93 292.067 1079.54 291.56C1079.16 291.04 1078.94 290.447 1078.9 289.78H1080.78C1080.84 290.327 1081.09 290.773 1081.54 291.12C1082.01 291.467 1082.62 291.64 1083.36 291.64C1084.06 291.64 1084.6 291.487 1085 291.18C1085.4 290.873 1085.6 290.487 1085.6 290.02C1085.6 289.54 1085.39 289.187 1084.96 288.96C1084.54 288.72 1083.88 288.487 1082.98 288.26C1082.17 288.047 1081.5 287.833 1080.98 287.62C1080.48 287.393 1080.04 287.067 1079.66 286.64C1079.3 286.2 1079.12 285.627 1079.12 284.92C1079.12 284.36 1079.29 283.847 1079.62 283.38C1079.96 282.913 1080.43 282.547 1081.04 282.28C1081.66 282 1082.36 281.86 1083.14 281.86C1084.36 281.86 1085.34 282.167 1086.08 282.78C1086.83 283.393 1087.23 284.233 1087.28 285.3H1085.46C1085.42 284.727 1085.19 284.267 1084.76 283.92C1084.35 283.573 1083.79 283.4 1083.08 283.4C1082.43 283.4 1081.91 283.54 1081.52 283.82C1081.14 284.1 1080.94 284.467 1080.94 284.92C1080.94 285.28 1081.06 285.58 1081.28 285.82C1081.52 286.047 1081.82 286.233 1082.16 286.38C1082.52 286.513 1083.02 286.667 1083.64 286.84C1084.43 287.053 1085.07 287.267 1085.56 287.48C1086.06 287.68 1086.48 287.987 1086.82 288.4C1087.18 288.813 1087.37 289.353 1087.38 290.02C1087.38 290.62 1087.22 291.16 1086.88 291.64C1086.55 292.12 1086.08 292.5 1085.46 292.78C1084.86 293.047 1084.17 293.18 1083.38 293.18ZM1091.83 290.48L1089.59 295.86H1088.37L1089.83 290.48H1091.83ZM1104.69 281.84C1105.52 281.84 1106.26 282.02 1106.93 282.38C1107.6 282.727 1108.12 283.253 1108.49 283.96C1108.88 284.667 1109.07 285.527 1109.07 286.54V293H1107.27V286.8C1107.27 285.707 1107 284.873 1106.45 284.3C1105.9 283.713 1105.16 283.42 1104.21 283.42C1103.25 283.42 1102.48 283.72 1101.91 284.32C1101.35 284.92 1101.07 285.793 1101.07 286.94V293H1099.25V278.2H1101.07V283.6C1101.43 283.04 1101.92 282.607 1102.55 282.3C1103.19 281.993 1103.9 281.84 1104.69 281.84ZM1121.1 283.64C1121.53 284.133 1121.86 284.707 1122.08 285.36C1122.32 286.013 1122.44 286.727 1122.44 287.5C1122.44 288.633 1122.19 289.633 1121.68 290.5C1121.19 291.353 1120.52 292.013 1119.66 292.48C1118.81 292.947 1117.86 293.18 1116.82 293.18C1115.53 293.18 1114.39 292.813 1113.4 292.08L1112.56 293H1111.26L1112.7 291.42C1112.28 290.913 1111.94 290.333 1111.7 289.68C1111.48 289.013 1111.36 288.287 1111.36 287.5C1111.36 286.38 1111.6 285.393 1112.08 284.54C1112.58 283.673 1113.24 283.013 1114.08 282.56C1114.92 282.093 1115.86 281.86 1116.9 281.86C1118.25 281.86 1119.42 282.24 1120.4 283L1121.26 282.04H1122.56L1121.1 283.64ZM1113.22 287.5C1113.22 288.527 1113.46 289.393 1113.92 290.1L1119.24 284.26C1118.6 283.713 1117.82 283.44 1116.88 283.44C1116.22 283.44 1115.6 283.593 1115.04 283.9C1114.5 284.193 1114.06 284.647 1113.72 285.26C1113.39 285.873 1113.22 286.62 1113.22 287.5ZM1120.58 287.5C1120.58 286.473 1120.35 285.633 1119.88 284.98L1114.56 290.82C1115.19 291.327 1115.94 291.58 1116.82 291.58C1117.48 291.58 1118.09 291.427 1118.66 291.12C1119.24 290.813 1119.7 290.353 1120.04 289.74C1120.4 289.127 1120.58 288.38 1120.58 287.5ZM1125.82 280.26C1125.47 280.26 1125.18 280.14 1124.94 279.9C1124.71 279.66 1124.6 279.367 1124.6 279.02C1124.6 278.673 1124.71 278.38 1124.94 278.14C1125.18 277.9 1125.47 277.78 1125.82 277.78C1126.16 277.78 1126.45 277.9 1126.68 278.14C1126.92 278.38 1127.04 278.673 1127.04 279.02C1127.04 279.367 1126.92 279.66 1126.68 279.9C1126.45 280.14 1126.16 280.26 1125.82 280.26ZM1126.72 295.38C1126.72 296.353 1126.47 297.067 1125.98 297.52C1125.48 297.973 1124.76 298.2 1123.82 298.2H1122.76V296.66H1123.52C1124.02 296.66 1124.38 296.56 1124.58 296.36C1124.79 296.16 1124.9 295.82 1124.9 295.34V282.04H1126.72V295.38ZM1137.35 283.54V290C1137.35 290.533 1137.46 290.913 1137.69 291.14C1137.92 291.353 1138.31 291.46 1138.87 291.46H1140.21V293H1138.57C1137.56 293 1136.8 292.767 1136.29 292.3C1135.78 291.833 1135.53 291.067 1135.53 290V283.54H1134.11V282.04H1135.53V279.28H1137.35V282.04H1140.21V283.54H1137.35ZM1143.36 280.26C1143.01 280.26 1142.72 280.14 1142.48 279.9C1142.24 279.66 1142.12 279.367 1142.12 279.02C1142.12 278.673 1142.24 278.38 1142.48 278.14C1142.72 277.9 1143.01 277.78 1143.36 277.78C1143.69 277.78 1143.97 277.9 1144.2 278.14C1144.44 278.38 1144.56 278.673 1144.56 279.02C1144.56 279.367 1144.44 279.66 1144.2 279.9C1143.97 280.14 1143.69 280.26 1143.36 280.26ZM1144.24 282.04V293H1142.42V282.04H1144.24ZM1149.16 278.2V293H1147.34V278.2H1149.16ZM1159.41 278.2V293H1157.59V278.2H1159.41ZM1161.83 287.48C1161.83 286.36 1162.06 285.38 1162.51 284.54C1162.97 283.687 1163.59 283.027 1164.37 282.56C1165.17 282.093 1166.06 281.86 1167.03 281.86C1167.99 281.86 1168.83 282.067 1169.53 282.48C1170.24 282.893 1170.77 283.413 1171.11 284.04V282.04H1172.95V293H1171.11V290.96C1170.75 291.6 1170.21 292.133 1169.49 292.56C1168.79 292.973 1167.96 293.18 1167.01 293.18C1166.04 293.18 1165.16 292.94 1164.37 292.46C1163.59 291.98 1162.97 291.307 1162.51 290.44C1162.06 289.573 1161.83 288.587 1161.83 287.48ZM1171.11 287.5C1171.11 286.673 1170.95 285.953 1170.61 285.34C1170.28 284.727 1169.83 284.26 1169.25 283.94C1168.69 283.607 1168.07 283.44 1167.39 283.44C1166.71 283.44 1166.09 283.6 1165.53 283.92C1164.97 284.24 1164.53 284.707 1164.19 285.32C1163.86 285.933 1163.69 286.653 1163.69 287.48C1163.69 288.32 1163.86 289.053 1164.19 289.68C1164.53 290.293 1164.97 290.767 1165.53 291.1C1166.09 291.42 1166.71 291.58 1167.39 291.58C1168.07 291.58 1168.69 291.42 1169.25 291.1C1169.83 290.767 1170.28 290.293 1170.61 289.68C1170.95 289.053 1171.11 288.327 1171.11 287.5ZM1180.11 291.32L1183.51 282.04H1185.45L1181.15 293H1179.03L1174.73 282.04H1176.69L1180.11 291.32ZM1059.88 309.06C1061.4 309.06 1062.71 309.347 1063.82 309.92C1064.94 310.48 1065.79 311.287 1066.38 312.34C1066.98 313.393 1067.28 314.633 1067.28 316.06C1067.28 317.487 1066.98 318.727 1066.38 319.78C1065.79 320.82 1064.94 321.62 1063.82 322.18C1062.71 322.727 1061.4 323 1059.88 323H1055.54V309.06H1059.88ZM1059.88 321.5C1061.68 321.5 1063.05 321.027 1064 320.08C1064.95 319.12 1065.42 317.78 1065.42 316.06C1065.42 314.327 1064.94 312.973 1063.98 312C1063.03 311.027 1061.67 310.54 1059.88 310.54H1057.36V321.5H1059.88ZM1069 317.48C1069 316.36 1069.23 315.38 1069.68 314.54C1070.13 313.687 1070.75 313.027 1071.54 312.56C1072.34 312.093 1073.23 311.86 1074.2 311.86C1075.16 311.86 1075.99 312.067 1076.7 312.48C1077.41 312.893 1077.93 313.413 1078.28 314.04V312.04H1080.12V323H1078.28V320.96C1077.92 321.6 1077.38 322.133 1076.66 322.56C1075.95 322.973 1075.13 323.18 1074.18 323.18C1073.21 323.18 1072.33 322.94 1071.54 322.46C1070.75 321.98 1070.13 321.307 1069.68 320.44C1069.23 319.573 1069 318.587 1069 317.48ZM1078.28 317.5C1078.28 316.673 1078.11 315.953 1077.78 315.34C1077.45 314.727 1076.99 314.26 1076.42 313.94C1075.86 313.607 1075.24 313.44 1074.56 313.44C1073.88 313.44 1073.26 313.6 1072.7 313.92C1072.14 314.24 1071.69 314.707 1071.36 315.32C1071.03 315.933 1070.86 316.653 1070.86 317.48C1070.86 318.32 1071.03 319.053 1071.36 319.68C1071.69 320.293 1072.14 320.767 1072.7 321.1C1073.26 321.42 1073.88 321.58 1074.56 321.58C1075.24 321.58 1075.86 321.42 1076.42 321.1C1076.99 320.767 1077.45 320.293 1077.78 319.68C1078.11 319.053 1078.28 318.327 1078.28 317.5ZM1085.42 313.54V320C1085.42 320.533 1085.53 320.913 1085.76 321.14C1085.98 321.353 1086.38 321.46 1086.94 321.46H1088.28V323H1086.64C1085.62 323 1084.86 322.767 1084.36 322.3C1083.85 321.833 1083.6 321.067 1083.6 320V313.54H1082.18V312.04H1083.6V309.28H1085.42V312.04H1088.28V313.54H1085.42ZM1095.26 323.18C1094.23 323.18 1093.3 322.947 1092.46 322.48C1091.63 322.013 1090.98 321.353 1090.5 320.5C1090.03 319.633 1089.8 318.633 1089.8 317.5C1089.8 316.38 1090.04 315.393 1090.52 314.54C1091.01 313.673 1091.68 313.013 1092.52 312.56C1093.36 312.093 1094.3 311.86 1095.34 311.86C1096.38 311.86 1097.32 312.093 1098.16 312.56C1099 313.013 1099.66 313.667 1100.14 314.52C1100.63 315.373 1100.88 316.367 1100.88 317.5C1100.88 318.633 1100.63 319.633 1100.12 320.5C1099.63 321.353 1098.95 322.013 1098.1 322.48C1097.25 322.947 1096.3 323.18 1095.26 323.18ZM1095.26 321.58C1095.91 321.58 1096.53 321.427 1097.1 321.12C1097.67 320.813 1098.13 320.353 1098.48 319.74C1098.84 319.127 1099.02 318.38 1099.02 317.5C1099.02 316.62 1098.85 315.873 1098.5 315.26C1098.15 314.647 1097.7 314.193 1097.14 313.9C1096.58 313.593 1095.97 313.44 1095.32 313.44C1094.65 313.44 1094.04 313.593 1093.48 313.9C1092.93 314.193 1092.49 314.647 1092.16 315.26C1091.83 315.873 1091.66 316.62 1091.66 317.5C1091.66 318.393 1091.82 319.147 1092.14 319.76C1092.47 320.373 1092.91 320.833 1093.46 321.14C1094.01 321.433 1094.61 321.58 1095.26 321.58ZM1105.15 320.48L1102.91 325.86H1101.69L1103.15 320.48H1105.15ZM1132.13 317.06C1132.13 317.447 1132.1 317.807 1132.05 318.14H1123.03C1123.1 318.887 1123.31 319.527 1123.67 320.06C1124.03 320.58 1124.48 320.973 1125.01 321.24C1125.54 321.507 1126.1 321.64 1126.69 321.64C1127.54 321.64 1128.25 321.46 1128.81 321.1C1129.37 320.727 1129.74 320.233 1129.93 319.62H1131.89C1131.6 320.673 1131.02 321.533 1130.17 322.2C1129.32 322.853 1128.26 323.18 1126.99 323.18C1126.1 323.18 1125.27 322.973 1124.51 322.56C1123.76 322.147 1123.2 321.587 1122.81 320.88V323H1121.23V320.9C1120.83 321.58 1120.27 322.133 1119.55 322.56C1118.83 322.973 1118.01 323.18 1117.09 323.18C1116.12 323.18 1115.23 322.94 1114.43 322.46C1113.64 321.98 1113.02 321.307 1112.57 320.44C1112.12 319.573 1111.89 318.587 1111.89 317.48C1111.89 316.36 1112.12 315.38 1112.57 314.54C1113.04 313.687 1113.67 313.027 1114.47 312.56C1115.27 312.093 1116.18 311.86 1117.19 311.86C1118.08 311.86 1118.88 312.053 1119.57 312.44C1120.28 312.813 1120.85 313.353 1121.29 314.06V312.04H1122.81V314.06C1123.76 312.593 1125.15 311.86 1126.99 311.86C1128 311.86 1128.9 312.093 1129.67 312.56C1130.46 313.013 1131.06 313.64 1131.49 314.44C1131.92 315.227 1132.13 316.1 1132.13 317.06ZM1130.25 316.82C1130.25 316.113 1130.09 315.507 1129.77 315C1129.46 314.48 1129.04 314.087 1128.49 313.82C1127.96 313.54 1127.36 313.4 1126.71 313.4C1125.75 313.4 1124.92 313.707 1124.21 314.32C1123.52 314.933 1123.12 315.767 1123.03 316.82H1130.25ZM1117.45 321.58C1118.13 321.58 1118.75 321.42 1119.31 321.1C1119.88 320.767 1120.34 320.293 1120.67 319.68C1121 319.053 1121.17 318.327 1121.17 317.5C1121.17 316.673 1121 315.953 1120.67 315.34C1120.34 314.727 1119.88 314.26 1119.31 313.94C1118.75 313.607 1118.13 313.44 1117.45 313.44C1116.77 313.44 1116.15 313.6 1115.59 313.92C1115.03 314.24 1114.58 314.707 1114.25 315.32C1113.92 315.933 1113.75 316.653 1113.75 317.48C1113.75 318.32 1113.92 319.053 1114.25 319.68C1114.58 320.293 1115.03 320.767 1115.59 321.1C1116.15 321.42 1116.77 321.58 1117.45 321.58ZM1136.32 308.2V323H1134.5V308.2H1136.32ZM1138.75 317.48C1138.75 316.36 1138.97 315.38 1139.43 314.54C1139.88 313.687 1140.5 313.027 1141.29 312.56C1142.09 312.093 1142.98 311.86 1143.97 311.86C1144.82 311.86 1145.61 312.06 1146.35 312.46C1147.08 312.847 1147.64 313.36 1148.03 314V308.2H1149.87V323H1148.03V320.94C1147.67 321.593 1147.13 322.133 1146.43 322.56C1145.72 322.973 1144.89 323.18 1143.95 323.18C1142.97 323.18 1142.09 322.94 1141.29 322.46C1140.5 321.98 1139.88 321.307 1139.43 320.44C1138.97 319.573 1138.75 318.587 1138.75 317.48ZM1148.03 317.5C1148.03 316.673 1147.86 315.953 1147.53 315.34C1147.19 314.727 1146.74 314.26 1146.17 313.94C1145.61 313.607 1144.99 313.44 1144.31 313.44C1143.63 313.44 1143.01 313.6 1142.45 313.92C1141.89 314.24 1141.44 314.707 1141.11 315.32C1140.77 315.933 1140.61 316.653 1140.61 317.48C1140.61 318.32 1140.77 319.053 1141.11 319.68C1141.44 320.293 1141.89 320.767 1142.45 321.1C1143.01 321.42 1143.63 321.58 1144.31 321.58C1144.99 321.58 1145.61 321.42 1146.17 321.1C1146.74 320.767 1147.19 320.293 1147.53 319.68C1147.86 319.053 1148.03 318.327 1148.03 317.5ZM1154.76 313.82C1155.08 313.193 1155.54 312.707 1156.12 312.36C1156.72 312.013 1157.45 311.84 1158.3 311.84V313.72H1157.82C1155.78 313.72 1154.76 314.827 1154.76 317.04V323H1152.94V312.04H1154.76V313.82ZM1170.4 317.1C1170.4 317.447 1170.38 317.813 1170.34 318.2H1161.58C1161.65 319.28 1162.02 320.127 1162.68 320.74C1163.36 321.34 1164.18 321.64 1165.14 321.64C1165.93 321.64 1166.58 321.46 1167.1 321.1C1167.64 320.727 1168.01 320.233 1168.22 319.62H1170.18C1169.89 320.673 1169.3 321.533 1168.42 322.2C1167.54 322.853 1166.45 323.18 1165.14 323.18C1164.1 323.18 1163.17 322.947 1162.34 322.48C1161.53 322.013 1160.89 321.353 1160.42 320.5C1159.96 319.633 1159.72 318.633 1159.72 317.5C1159.72 316.367 1159.95 315.373 1160.4 314.52C1160.86 313.667 1161.49 313.013 1162.3 312.56C1163.13 312.093 1164.08 311.86 1165.14 311.86C1166.18 311.86 1167.1 312.087 1167.9 312.54C1168.7 312.993 1169.32 313.62 1169.74 314.42C1170.18 315.207 1170.4 316.1 1170.4 317.1ZM1168.52 316.72C1168.52 316.027 1168.37 315.433 1168.06 314.94C1167.76 314.433 1167.34 314.053 1166.8 313.8C1166.28 313.533 1165.7 313.4 1165.06 313.4C1164.14 313.4 1163.36 313.693 1162.7 314.28C1162.06 314.867 1161.7 315.68 1161.6 316.72H1168.52ZM1180.36 313.54V320C1180.36 320.533 1180.47 320.913 1180.7 321.14C1180.92 321.353 1181.32 321.46 1181.88 321.46H1183.22V323H1181.58C1180.56 323 1179.8 322.767 1179.3 322.3C1178.79 321.833 1178.54 321.067 1178.54 320V313.54H1177.12V312.04H1178.54V309.28H1180.36V312.04H1183.22V313.54H1180.36ZM1186.36 310.26C1186.02 310.26 1185.72 310.14 1185.48 309.9C1185.24 309.66 1185.12 309.367 1185.12 309.02C1185.12 308.673 1185.24 308.38 1185.48 308.14C1185.72 307.9 1186.02 307.78 1186.36 307.78C1186.7 307.78 1186.98 307.9 1187.2 308.14C1187.44 308.38 1187.56 308.673 1187.56 309.02C1187.56 309.367 1187.44 309.66 1187.2 309.9C1186.98 310.14 1186.7 310.26 1186.36 310.26ZM1187.24 312.04V323H1185.42V312.04H1187.24ZM1192.16 308.2V323H1190.34V308.2H1192.16ZM1205.94 311.84C1207.27 311.84 1208.35 312.247 1209.18 313.06C1210.01 313.86 1210.42 315.02 1210.42 316.54V323H1208.62V316.8C1208.62 315.707 1208.35 314.873 1207.8 314.3C1207.25 313.713 1206.51 313.42 1205.56 313.42C1204.6 313.42 1203.83 313.72 1203.26 314.32C1202.7 314.92 1202.42 315.793 1202.42 316.94V323H1200.6V312.04H1202.42V313.6C1202.78 313.04 1203.27 312.607 1203.88 312.3C1204.51 311.993 1205.19 311.84 1205.94 311.84ZM1222.83 312.04L1216.23 328.16H1214.35L1216.51 322.88L1212.09 312.04H1214.11L1217.55 320.92L1220.95 312.04H1222.83ZM1234.66 317.1C1234.66 317.447 1234.64 317.813 1234.6 318.2H1225.84C1225.91 319.28 1226.27 320.127 1226.94 320.74C1227.62 321.34 1228.44 321.64 1229.4 321.64C1230.19 321.64 1230.84 321.46 1231.36 321.1C1231.89 320.727 1232.27 320.233 1232.48 319.62H1234.44C1234.15 320.673 1233.56 321.533 1232.68 322.2C1231.8 322.853 1230.71 323.18 1229.4 323.18C1228.36 323.18 1227.43 322.947 1226.6 322.48C1225.79 322.013 1225.15 321.353 1224.68 320.5C1224.21 319.633 1223.98 318.633 1223.98 317.5C1223.98 316.367 1224.21 315.373 1224.66 314.52C1225.11 313.667 1225.75 313.013 1226.56 312.56C1227.39 312.093 1228.33 311.86 1229.4 311.86C1230.44 311.86 1231.36 312.087 1232.16 312.54C1232.96 312.993 1233.57 313.62 1234 314.42C1234.44 315.207 1234.66 316.1 1234.66 317.1ZM1232.78 316.72C1232.78 316.027 1232.63 315.433 1232.32 314.94C1232.01 314.433 1231.59 314.053 1231.06 313.8C1230.54 313.533 1229.96 313.4 1229.32 313.4C1228.4 313.4 1227.61 313.693 1226.96 314.28C1226.32 314.867 1225.95 315.68 1225.86 316.72H1232.78ZM1238.88 313.82C1239.2 313.193 1239.66 312.707 1240.24 312.36C1240.84 312.013 1241.57 311.84 1242.42 311.84V313.72H1241.94C1239.9 313.72 1238.88 314.827 1238.88 317.04V323H1237.06V312.04H1238.88V313.82ZM1254.52 317.1C1254.52 317.447 1254.5 317.813 1254.46 318.2H1245.7C1245.77 319.28 1246.14 320.127 1246.8 320.74C1247.48 321.34 1248.3 321.64 1249.26 321.64C1250.05 321.64 1250.7 321.46 1251.22 321.1C1251.76 320.727 1252.13 320.233 1252.34 319.62H1254.3C1254.01 320.673 1253.42 321.533 1252.54 322.2C1251.66 322.853 1250.57 323.18 1249.26 323.18C1248.22 323.18 1247.29 322.947 1246.46 322.48C1245.65 322.013 1245.01 321.353 1244.54 320.5C1244.08 319.633 1243.84 318.633 1243.84 317.5C1243.84 316.367 1244.07 315.373 1244.52 314.52C1244.98 313.667 1245.61 313.013 1246.42 312.56C1247.25 312.093 1248.2 311.86 1249.26 311.86C1250.3 311.86 1251.22 312.087 1252.02 312.54C1252.82 312.993 1253.44 313.62 1253.86 314.42C1254.3 315.207 1254.52 316.1 1254.52 317.1ZM1252.64 316.72C1252.64 316.027 1252.49 315.433 1252.18 314.94C1251.88 314.433 1251.46 314.053 1250.92 313.8C1250.4 313.533 1249.82 313.4 1249.18 313.4C1248.26 313.4 1247.48 313.693 1246.82 314.28C1246.18 314.867 1245.82 315.68 1245.72 316.72H1252.64ZM1059.88 339.06C1061.4 339.06 1062.71 339.347 1063.82 339.92C1064.94 340.48 1065.79 341.287 1066.38 342.34C1066.98 343.393 1067.28 344.633 1067.28 346.06C1067.28 347.487 1066.98 348.727 1066.38 349.78C1065.79 350.82 1064.94 351.62 1063.82 352.18C1062.71 352.727 1061.4 353 1059.88 353H1055.54V339.06H1059.88ZM1059.88 351.5C1061.68 351.5 1063.05 351.027 1064 350.08C1064.95 349.12 1065.42 347.78 1065.42 346.06C1065.42 344.327 1064.94 342.973 1063.98 342C1063.03 341.027 1061.67 340.54 1059.88 340.54H1057.36V351.5H1059.88ZM1069 347.48C1069 346.36 1069.23 345.38 1069.68 344.54C1070.13 343.687 1070.75 343.027 1071.54 342.56C1072.34 342.093 1073.23 341.86 1074.2 341.86C1075.16 341.86 1075.99 342.067 1076.7 342.48C1077.41 342.893 1077.93 343.413 1078.28 344.04V342.04H1080.12V353H1078.28V350.96C1077.92 351.6 1077.38 352.133 1076.66 352.56C1075.95 352.973 1075.13 353.18 1074.18 353.18C1073.21 353.18 1072.33 352.94 1071.54 352.46C1070.75 351.98 1070.13 351.307 1069.68 350.44C1069.23 349.573 1069 348.587 1069 347.48ZM1078.28 347.5C1078.28 346.673 1078.11 345.953 1077.78 345.34C1077.45 344.727 1076.99 344.26 1076.42 343.94C1075.86 343.607 1075.24 343.44 1074.56 343.44C1073.88 343.44 1073.26 343.6 1072.7 343.92C1072.14 344.24 1071.69 344.707 1071.36 345.32C1071.03 345.933 1070.86 346.653 1070.86 347.48C1070.86 348.32 1071.03 349.053 1071.36 349.68C1071.69 350.293 1072.14 350.767 1072.7 351.1C1073.26 351.42 1073.88 351.58 1074.56 351.58C1075.24 351.58 1075.86 351.42 1076.42 351.1C1076.99 350.767 1077.45 350.293 1077.78 349.68C1078.11 349.053 1078.28 348.327 1078.28 347.5ZM1085.42 343.54V350C1085.42 350.533 1085.53 350.913 1085.76 351.14C1085.98 351.353 1086.38 351.46 1086.94 351.46H1088.28V353H1086.64C1085.62 353 1084.86 352.767 1084.36 352.3C1083.85 351.833 1083.6 351.067 1083.6 350V343.54H1082.18V342.04H1083.6V339.28H1085.42V342.04H1088.28V343.54H1085.42ZM1095.26 353.18C1094.23 353.18 1093.3 352.947 1092.46 352.48C1091.63 352.013 1090.98 351.353 1090.5 350.5C1090.03 349.633 1089.8 348.633 1089.8 347.5C1089.8 346.38 1090.04 345.393 1090.52 344.54C1091.01 343.673 1091.68 343.013 1092.52 342.56C1093.36 342.093 1094.3 341.86 1095.34 341.86C1096.38 341.86 1097.32 342.093 1098.16 342.56C1099 343.013 1099.66 343.667 1100.14 344.52C1100.63 345.373 1100.88 346.367 1100.88 347.5C1100.88 348.633 1100.63 349.633 1100.12 350.5C1099.63 351.353 1098.95 352.013 1098.1 352.48C1097.25 352.947 1096.3 353.18 1095.26 353.18ZM1095.26 351.58C1095.91 351.58 1096.53 351.427 1097.1 351.12C1097.67 350.813 1098.13 350.353 1098.48 349.74C1098.84 349.127 1099.02 348.38 1099.02 347.5C1099.02 346.62 1098.85 345.873 1098.5 345.26C1098.15 344.647 1097.7 344.193 1097.14 343.9C1096.58 343.593 1095.97 343.44 1095.32 343.44C1094.65 343.44 1094.04 343.593 1093.48 343.9C1092.93 344.193 1092.49 344.647 1092.16 345.26C1091.83 345.873 1091.66 346.62 1091.66 347.5C1091.66 348.393 1091.82 349.147 1092.14 349.76C1092.47 350.373 1092.91 350.833 1093.46 351.14C1094.01 351.433 1094.61 351.58 1095.26 351.58ZM1105.15 350.48L1102.91 355.86H1101.69L1103.15 350.48H1105.15ZM1117.91 341.84C1119.24 341.84 1120.32 342.247 1121.15 343.06C1121.98 343.86 1122.39 345.02 1122.39 346.54V353H1120.59V346.8C1120.59 345.707 1120.32 344.873 1119.77 344.3C1119.22 343.713 1118.48 343.42 1117.53 343.42C1116.57 343.42 1115.8 343.72 1115.23 344.32C1114.67 344.92 1114.39 345.793 1114.39 346.94V353H1112.57V342.04H1114.39V343.6C1114.75 343.04 1115.24 342.607 1115.85 342.3C1116.48 341.993 1117.16 341.84 1117.91 341.84ZM1134.8 342.04L1128.2 358.16H1126.32L1128.48 352.88L1124.06 342.04H1126.08L1129.52 350.92L1132.92 342.04H1134.8ZM1146.63 347.1C1146.63 347.447 1146.61 347.813 1146.57 348.2H1137.81C1137.88 349.28 1138.25 350.127 1138.91 350.74C1139.59 351.34 1140.41 351.64 1141.37 351.64C1142.16 351.64 1142.81 351.46 1143.33 351.1C1143.87 350.727 1144.24 350.233 1144.45 349.62H1146.41C1146.12 350.673 1145.53 351.533 1144.65 352.2C1143.77 352.853 1142.68 353.18 1141.37 353.18C1140.33 353.18 1139.4 352.947 1138.57 352.48C1137.76 352.013 1137.12 351.353 1136.65 350.5C1136.19 349.633 1135.95 348.633 1135.95 347.5C1135.95 346.367 1136.18 345.373 1136.63 344.52C1137.09 343.667 1137.72 343.013 1138.53 342.56C1139.36 342.093 1140.31 341.86 1141.37 341.86C1142.41 341.86 1143.33 342.087 1144.13 342.54C1144.93 342.993 1145.55 343.62 1145.97 344.42C1146.41 345.207 1146.63 346.1 1146.63 347.1ZM1144.75 346.72C1144.75 346.027 1144.6 345.433 1144.29 344.94C1143.99 344.433 1143.57 344.053 1143.03 343.8C1142.51 343.533 1141.93 343.4 1141.29 343.4C1140.37 343.4 1139.59 343.693 1138.93 344.28C1138.29 344.867 1137.93 345.68 1137.83 346.72H1144.75ZM1150.86 343.82C1151.18 343.193 1151.63 342.707 1152.22 342.36C1152.82 342.013 1153.54 341.84 1154.4 341.84V343.72H1153.92C1151.88 343.72 1150.86 344.827 1150.86 347.04V353H1149.04V342.04H1150.86V343.82ZM1166.5 347.1C1166.5 347.447 1166.48 347.813 1166.44 348.2H1157.68C1157.74 349.28 1158.11 350.127 1158.78 350.74C1159.46 351.34 1160.28 351.64 1161.24 351.64C1162.02 351.64 1162.68 351.46 1163.2 351.1C1163.73 350.727 1164.1 350.233 1164.32 349.62H1166.28C1165.98 350.673 1165.4 351.533 1164.52 352.2C1163.64 352.853 1162.54 353.18 1161.24 353.18C1160.2 353.18 1159.26 352.947 1158.44 352.48C1157.62 352.013 1156.98 351.353 1156.52 350.5C1156.05 349.633 1155.82 348.633 1155.82 347.5C1155.82 346.367 1156.04 345.373 1156.5 344.52C1156.95 343.667 1157.58 343.013 1158.4 342.56C1159.22 342.093 1160.17 341.86 1161.24 341.86C1162.28 341.86 1163.2 342.087 1164 342.54C1164.8 342.993 1165.41 343.62 1165.84 344.42C1166.28 345.207 1166.5 346.1 1166.5 347.1ZM1164.62 346.72C1164.62 346.027 1164.46 345.433 1164.16 344.94C1163.85 344.433 1163.43 344.053 1162.9 343.8C1162.38 343.533 1161.8 343.4 1161.16 343.4C1160.24 343.4 1159.45 343.693 1158.8 344.28C1158.16 344.867 1157.79 345.68 1157.7 346.72H1164.62ZM1176.45 343.54V350C1176.45 350.533 1176.56 350.913 1176.79 351.14C1177.02 351.353 1177.41 351.46 1177.97 351.46H1179.31V353H1177.67C1176.66 353 1175.9 352.767 1175.39 352.3C1174.88 351.833 1174.63 351.067 1174.63 350V343.54H1173.21V342.04H1174.63V339.28H1176.45V342.04H1179.31V343.54H1176.45ZM1182.46 340.26C1182.11 340.26 1181.82 340.14 1181.58 339.9C1181.34 339.66 1181.22 339.367 1181.22 339.02C1181.22 338.673 1181.34 338.38 1181.58 338.14C1181.82 337.9 1182.11 337.78 1182.46 337.78C1182.79 337.78 1183.07 337.9 1183.3 338.14C1183.54 338.38 1183.66 338.673 1183.66 339.02C1183.66 339.367 1183.54 339.66 1183.3 339.9C1183.07 340.14 1182.79 340.26 1182.46 340.26ZM1183.34 342.04V353H1181.52V342.04H1183.34ZM1188.26 338.2V353H1186.44V338.2H1188.26ZM1216.25 347.06C1216.25 347.447 1216.23 347.807 1216.17 348.14H1207.15C1207.22 348.887 1207.43 349.527 1207.79 350.06C1208.15 350.58 1208.6 350.973 1209.13 351.24C1209.67 351.507 1210.23 351.64 1210.81 351.64C1211.67 351.64 1212.37 351.46 1212.93 351.1C1213.49 350.727 1213.87 350.233 1214.05 349.62H1216.01C1215.72 350.673 1215.15 351.533 1214.29 352.2C1213.44 352.853 1212.38 353.18 1211.11 353.18C1210.22 353.18 1209.39 352.973 1208.63 352.56C1207.89 352.147 1207.32 351.587 1206.93 350.88V353H1205.35V350.9C1204.95 351.58 1204.39 352.133 1203.67 352.56C1202.95 352.973 1202.13 353.18 1201.21 353.18C1200.24 353.18 1199.35 352.94 1198.55 352.46C1197.77 351.98 1197.15 351.307 1196.69 350.44C1196.24 349.573 1196.01 348.587 1196.01 347.48C1196.01 346.36 1196.24 345.38 1196.69 344.54C1197.16 343.687 1197.79 343.027 1198.59 342.56C1199.39 342.093 1200.3 341.86 1201.31 341.86C1202.21 341.86 1203 342.053 1203.69 342.44C1204.4 342.813 1204.97 343.353 1205.41 344.06V342.04H1206.93V344.06C1207.88 342.593 1209.27 341.86 1211.11 341.86C1212.13 341.86 1213.02 342.093 1213.79 342.56C1214.58 343.013 1215.19 343.64 1215.61 344.44C1216.04 345.227 1216.25 346.1 1216.25 347.06ZM1214.37 346.82C1214.37 346.113 1214.21 345.507 1213.89 345C1213.59 344.48 1213.16 344.087 1212.61 343.82C1212.08 343.54 1211.49 343.4 1210.83 343.4C1209.87 343.4 1209.04 343.707 1208.33 344.32C1207.64 344.933 1207.25 345.767 1207.15 346.82H1214.37ZM1201.57 351.58C1202.25 351.58 1202.87 351.42 1203.43 351.1C1204.01 350.767 1204.46 350.293 1204.79 349.68C1205.13 349.053 1205.29 348.327 1205.29 347.5C1205.29 346.673 1205.13 345.953 1204.79 345.34C1204.46 344.727 1204.01 344.26 1203.43 343.94C1202.87 343.607 1202.25 343.44 1201.57 343.44C1200.89 343.44 1200.27 343.6 1199.71 343.92C1199.15 344.24 1198.71 344.707 1198.37 345.32C1198.04 345.933 1197.87 346.653 1197.87 347.48C1197.87 348.32 1198.04 349.053 1198.37 349.68C1198.71 350.293 1199.15 350.767 1199.71 351.1C1200.27 351.42 1200.89 351.58 1201.57 351.58ZM1220.45 338.2V353H1218.63V338.2H1220.45ZM1222.87 347.48C1222.87 346.36 1223.09 345.38 1223.55 344.54C1224 343.687 1224.62 343.027 1225.41 342.56C1226.21 342.093 1227.1 341.86 1228.09 341.86C1228.94 341.86 1229.73 342.06 1230.47 342.46C1231.2 342.847 1231.76 343.36 1232.15 344V338.2H1233.99V353H1232.15V350.94C1231.79 351.593 1231.25 352.133 1230.55 352.56C1229.84 352.973 1229.01 353.18 1228.07 353.18C1227.09 353.18 1226.21 352.94 1225.41 352.46C1224.62 351.98 1224 351.307 1223.55 350.44C1223.09 349.573 1222.87 348.587 1222.87 347.48ZM1232.15 347.5C1232.15 346.673 1231.98 345.953 1231.65 345.34C1231.31 344.727 1230.86 344.26 1230.29 343.94C1229.73 343.607 1229.11 343.44 1228.43 343.44C1227.75 343.44 1227.13 343.6 1226.57 343.92C1226.01 344.24 1225.56 344.707 1225.23 345.32C1224.89 345.933 1224.73 346.653 1224.73 347.48C1224.73 348.32 1224.89 349.053 1225.23 349.68C1225.56 350.293 1226.01 350.767 1226.57 351.1C1227.13 351.42 1227.75 351.58 1228.43 351.58C1229.11 351.58 1229.73 351.42 1230.29 351.1C1230.86 350.767 1231.31 350.293 1231.65 349.68C1231.98 349.053 1232.15 348.327 1232.15 347.5ZM1238.88 343.82C1239.2 343.193 1239.66 342.707 1240.24 342.36C1240.84 342.013 1241.57 341.84 1242.42 341.84V343.72H1241.94C1239.9 343.72 1238.88 344.827 1238.88 347.04V353H1237.06V342.04H1238.88V343.82ZM1254.52 347.1C1254.52 347.447 1254.5 347.813 1254.46 348.2H1245.7C1245.77 349.28 1246.14 350.127 1246.8 350.74C1247.48 351.34 1248.3 351.64 1249.26 351.64C1250.05 351.64 1250.7 351.46 1251.22 351.1C1251.76 350.727 1252.13 350.233 1252.34 349.62H1254.3C1254.01 350.673 1253.42 351.533 1252.54 352.2C1251.66 352.853 1250.57 353.18 1249.26 353.18C1248.22 353.18 1247.29 352.947 1246.46 352.48C1245.65 352.013 1245.01 351.353 1244.54 350.5C1244.08 349.633 1243.84 348.633 1243.84 347.5C1243.84 346.367 1244.07 345.373 1244.52 344.52C1244.98 343.667 1245.61 343.013 1246.42 342.56C1247.25 342.093 1248.2 341.86 1249.26 341.86C1250.3 341.86 1251.22 342.087 1252.02 342.54C1252.82 342.993 1253.44 343.62 1253.86 344.42C1254.3 345.207 1254.52 346.1 1254.52 347.1ZM1252.64 346.72C1252.64 346.027 1252.49 345.433 1252.18 344.94C1251.88 344.433 1251.46 344.053 1250.92 343.8C1250.4 343.533 1249.82 343.4 1249.18 343.4C1248.26 343.4 1247.48 343.693 1246.82 344.28C1246.18 344.867 1245.82 345.68 1245.72 346.72H1252.64Z" fill="#F9F2F2"/>
</svg>
