<svg width="217" height="89" viewBox="0 0 217 89" fill="none" xmlns="http://www.w3.org/2000/svg">
<rect width="217" height="89" fill="#1B72D0"/>
<path d="M60.64 52C60.1733 52 59.74 51.8867 59.34 51.66C58.94 51.42 58.62 51.1067 58.38 50.72C58.1533 50.32 58.04 49.88 58.04 49.4V48.56H60.2V49.34C60.2 49.4733 60.2467 49.5933 60.34 49.7C60.4467 49.7933 60.5667 49.84 60.7 49.84H69.78C69.9133 49.84 70.0267 49.7933 70.12 49.7C70.2133 49.5933 70.26 49.4733 70.26 49.34V46.38C70.26 46.2333 70.2133 46.1133 70.12 46.02C70.0267 45.9267 69.9133 45.88 69.78 45.88H60.64C60.1733 45.88 59.74 45.7667 59.34 45.54C58.94 45.3 58.62 44.9867 58.38 44.6C58.1533 44.2 58.04 43.76 58.04 43.28V40.2C58.04 39.72 58.1533 39.2867 58.38 38.9C58.62 38.5 58.94 38.1867 59.34 37.96C59.74 37.72 60.1733 37.6 60.64 37.6H69.84C70.3067 37.6 70.74 37.72 71.14 37.96C71.54 38.1867 71.8533 38.5 72.08 38.9C72.32 39.2867 72.44 39.72 72.44 40.2V41.04H70.26V40.26C70.26 40.1267 70.2133 40.0133 70.12 39.92C70.0267 39.8133 69.9133 39.76 69.78 39.76H60.7C60.5667 39.76 60.4467 39.8133 60.34 39.92C60.2467 40.0133 60.2 40.1267 60.2 40.26V43.22C60.2 43.3667 60.2467 43.4867 60.34 43.58C60.4467 43.6733 60.5667 43.72 60.7 43.72H69.84C70.3067 43.72 70.74 43.84 71.14 44.08C71.54 44.3067 71.8533 44.62 72.08 45.02C72.32 45.4067 72.44 45.84 72.44 46.32V49.4C72.44 49.88 72.32 50.32 72.08 50.72C71.8533 51.1067 71.54 51.42 71.14 51.66C70.74 51.8867 70.3067 52 69.84 52H60.64ZM74.6444 52V37.6H87.8444V39.76H76.8244V43.72H85.6844V45.88H76.8244V49.84H87.8444V52H74.6444ZM95.7177 52V37.6H98.2977L103.878 44.24L109.438 37.6H112.038V52H109.858V40.5L103.878 47.62L97.8777 40.5V52H95.7177ZM114.312 52V37.6H127.512V39.76H116.492V43.72H125.352V45.88H116.492V49.84H127.512V52H114.312ZM141.385 52L136.885 46.62H139.705L143.905 51.6V52H141.385ZM129.585 52V37.62H141.365C141.845 37.62 142.285 37.74 142.685 37.98C143.085 38.22 143.398 38.54 143.625 38.94C143.865 39.3267 143.985 39.7533 143.985 40.22V44.26C143.985 44.74 143.865 45.18 143.625 45.58C143.398 45.9667 143.085 46.28 142.685 46.52C142.285 46.7467 141.845 46.86 141.365 46.86L131.745 46.88V52H129.585ZM132.245 44.68H141.325C141.458 44.68 141.572 44.6333 141.665 44.54C141.758 44.4467 141.805 44.3333 141.805 44.2V40.28C141.805 40.1467 141.758 40.0333 141.665 39.94C141.572 39.8333 141.458 39.78 141.325 39.78H132.245C132.112 39.78 131.992 39.8333 131.885 39.94C131.792 40.0333 131.745 40.1467 131.745 40.28V44.2C131.745 44.3333 131.792 44.4467 131.885 44.54C131.992 44.6333 132.112 44.68 132.245 44.68ZM146.129 52V37.6H159.329V39.76H148.309V43.72H157.169V45.88H148.309V49.84H159.329V52H146.129Z" fill="white"/>
</svg>
