<svg width="217" height="89" viewBox="0 0 217 89" fill="none" xmlns="http://www.w3.org/2000/svg">
<rect width="217" height="89" fill="#6A6060" fill-opacity="0.82"/>
<path d="M59.64 52C59.1733 52 58.74 51.8867 58.34 51.66C57.94 51.42 57.62 51.1067 57.38 50.72C57.1533 50.32 57.04 49.88 57.04 49.4V48.56H59.2V49.34C59.2 49.4733 59.2467 49.5933 59.34 49.7C59.4467 49.7933 59.5667 49.84 59.7 49.84H68.78C68.9133 49.84 69.0267 49.7933 69.12 49.7C69.2133 49.5933 69.26 49.4733 69.26 49.34V46.38C69.26 46.2333 69.2133 46.1133 69.12 46.02C69.0267 45.9267 68.9133 45.88 68.78 45.88H59.64C59.1733 45.88 58.74 45.7667 58.34 45.54C57.94 45.3 57.62 44.9867 57.38 44.6C57.1533 44.2 57.04 43.76 57.04 43.28V40.2C57.04 39.72 57.1533 39.2867 57.38 38.9C57.62 38.5 57.94 38.1867 58.34 37.96C58.74 37.72 59.1733 37.6 59.64 37.6H68.84C69.3067 37.6 69.74 37.72 70.14 37.96C70.54 38.1867 70.8533 38.5 71.08 38.9C71.32 39.2867 71.44 39.72 71.44 40.2V41.04H69.26V40.26C69.26 40.1267 69.2133 40.0133 69.12 39.92C69.0267 39.8133 68.9133 39.76 68.78 39.76H59.7C59.5667 39.76 59.4467 39.8133 59.34 39.92C59.2467 40.0133 59.2 40.1267 59.2 40.26V43.22C59.2 43.3667 59.2467 43.4867 59.34 43.58C59.4467 43.6733 59.5667 43.72 59.7 43.72H68.84C69.3067 43.72 69.74 43.84 70.14 44.08C70.54 44.3067 70.8533 44.62 71.08 45.02C71.32 45.4067 71.44 45.84 71.44 46.32V49.4C71.44 49.88 71.32 50.32 71.08 50.72C70.8533 51.1067 70.54 51.42 70.14 51.66C69.74 51.8867 69.3067 52 68.84 52H59.64ZM73.6244 52V37.6H75.7844V43.72H86.1844V37.6H88.3644V52H86.1844V45.88H75.7844V52H73.6244ZM93.1761 52C92.6961 52 92.2561 51.8867 91.8561 51.66C91.4694 51.42 91.1561 51.1067 90.9161 50.72C90.6894 50.32 90.5761 49.88 90.5761 49.4V40.2C90.5761 39.72 90.6894 39.2867 90.9161 38.9C91.1561 38.5 91.4694 38.1867 91.8561 37.96C92.2561 37.72 92.6961 37.6 93.1761 37.6H102.376C102.843 37.6 103.276 37.72 103.676 37.96C104.076 38.1867 104.389 38.5 104.616 38.9C104.856 39.2867 104.976 39.72 104.976 40.2V49.4C104.976 49.88 104.856 50.32 104.616 50.72C104.389 51.1067 104.076 51.42 103.676 51.66C103.276 51.8867 102.843 52 102.376 52H93.1761ZM93.2361 49.84H102.316C102.449 49.84 102.563 49.7933 102.656 49.7C102.749 49.5933 102.796 49.4733 102.796 49.34V40.26C102.796 40.1267 102.749 40.0133 102.656 39.92C102.563 39.8133 102.449 39.76 102.316 39.76H93.2361C93.1028 39.76 92.9828 39.8133 92.8761 39.92C92.7828 40.0133 92.7361 40.1267 92.7361 40.26V49.34C92.7361 49.4733 92.7828 49.5933 92.8761 49.7C92.9828 49.7933 93.1028 49.84 93.2361 49.84ZM107.179 52V37.62H118.959C119.439 37.62 119.879 37.74 120.279 37.98C120.679 38.22 120.992 38.54 121.219 38.94C121.459 39.3267 121.579 39.7533 121.579 40.22V44.26C121.579 44.74 121.459 45.18 121.219 45.58C120.992 45.9667 120.679 46.28 120.279 46.52C119.879 46.7467 119.439 46.86 118.959 46.86L109.339 46.88V52H107.179ZM109.839 44.68H118.919C119.052 44.68 119.165 44.6333 119.259 44.54C119.352 44.4467 119.399 44.3333 119.399 44.2V40.28C119.399 40.1467 119.352 40.0333 119.259 39.94C119.165 39.8333 119.052 39.78 118.919 39.78H109.839C109.705 39.78 109.585 39.8333 109.479 39.94C109.385 40.0333 109.339 40.1467 109.339 40.28V44.2C109.339 44.3333 109.385 44.4467 109.479 44.54C109.585 44.6333 109.705 44.68 109.839 44.68ZM128.8 52V37.6H131.38L141.02 49.08V37.6H143.2V52H140.62L130.96 40.5V52H128.8ZM148 52C147.52 52 147.08 51.8867 146.68 51.66C146.294 51.42 145.98 51.1067 145.74 50.72C145.514 50.32 145.4 49.88 145.4 49.4V37.6H147.56V49.34C147.56 49.4733 147.607 49.5933 147.7 49.7C147.807 49.7933 147.927 49.84 148.06 49.84H157.14C157.274 49.84 157.387 49.7933 157.48 49.7C157.574 49.5933 157.62 49.4733 157.62 49.34V37.6H159.8V49.4C159.8 49.88 159.68 50.32 159.44 50.72C159.214 51.1067 158.9 51.42 158.5 51.66C158.1 51.8867 157.667 52 157.2 52H148Z" fill="#F9F2F2"/>
</svg>
