<?xml version="1.0" encoding="UTF-8"?><svg id="Lag_1" xmlns="http://www.w3.org/2000/svg" width="135" height="155" viewBox="0 0 135 155"><defs><style>.cls-1{fill:#3c3636;stroke-width:0px;}</style></defs><g id="shopping_bag"><path class="cls-1" d="M12.21,34.96c-1.76,30.29-6.87,60.24-9.37,90.46-.71,8.6-1.2,17.22-1.35,25.85-.07,3.86,5.93,3.86,6,0,.52-30.35,5.36-60.36,8.54-90.49.91-8.59,1.67-17.2,2.17-25.82.09-1.62-1.45-3-3-3-1.7,0-2.91,1.38-3,3h0Z"/><path class="cls-1" d="M4.63,154.19c32.66.23,65.32.21,97.97-.06,9.16-.08,18.33-.17,27.49-.29,3.86-.05,3.87-6.05,0-6-32.66.41-65.31.58-97.97.49-9.16-.03-18.33-.07-27.49-.14-3.86-.03-3.87,5.97,0,6h0Z"/><path class="cls-1" d="M116.59,34.42c1.61,30.64,4.21,61.22,7.8,91.69,1.02,8.62,2.12,17.23,3.28,25.83.22,1.61,2.28,2.48,3.69,2.1,1.73-.48,2.31-2.08,2.1-3.69-4.07-29.97-7.16-60.08-9.29-90.25-.6-8.56-1.13-17.12-1.58-25.68-.09-1.62-1.32-3-3-3-1.56,0-3.09,1.37-3,3h0Z"/><path class="cls-1" d="M99.33,34.7c-1.49,30.01-4.03,59.97-7.64,89.8-1.01,8.31-2.1,16.62-3.27,24.91-.23,1.6.39,3.22,2.1,3.69,1.41.39,3.46-.48,3.69-2.1,4.26-30.1,7.49-60.34,9.6-90.67.6-8.54,1.1-17.09,1.53-25.64.08-1.62-1.44-3-3-3-1.69,0-2.92,1.38-3,3h0Z"/><path class="cls-1" d="M108.13,35.03c.68,26.58.81,53.17.35,79.75-.13,7.48-.3,14.95-.52,22.43-.11,3.86,5.89,3.86,6,0,.77-26.57.98-53.16.61-79.75-.1-7.48-.25-14.95-.45-22.43-.1-3.85-6.1-3.87-6,0h0Z"/><path class="cls-1" d="M95.02,151.05c5.43-3.8,10.87-7.6,16.3-11.4,1.28-.9,2-2.67,1.08-4.1-.82-1.27-2.73-2.04-4.1-1.08-5.43,3.8-10.87,7.6-16.3,11.4-1.28.9-2,2.67-1.08,4.1.82,1.27,2.73,2.04,4.1,1.08h0Z"/><path class="cls-1" d="M109.62,139.5c1.35.97,2.68,1.96,4,2.97-.32-.25.08.06.2.16.15.12.31.24.46.36.31.24.61.48.92.73.69.55,1.37,1.1,2.05,1.66,2.6,2.15,5.12,4.39,7.57,6.7,1.14,1.08,3.13,1.22,4.24,0s1.22-3.09,0-4.24c-5.16-4.88-10.66-9.38-16.42-13.53-1.28-.92-3.4-.26-4.1,1.08-.82,1.55-.29,3.12,1.08,4.1h0Z"/><path class="cls-1" d="M14.88,37.39c26.91.93,53.85,1.03,80.77.28,7.64-.21,15.28-.5,22.92-.84,1.62-.07,3-1.33,3-3,0-1.57-1.37-3.07-3-3-26.9,1.23-53.84,1.62-80.76,1.16-7.65-.13-15.29-.33-22.93-.6-3.86-.13-3.86,5.87,0,6h0Z"/><path class="cls-1" d="M36.86,34.1c-.19-5.81.23-11.89,3.27-17,2.33-3.92,6.08-7.15,10.22-8.87,9.34-3.89,20.86-.32,26.35,8.33,3.07,4.85,4.28,10.8,3.2,16.35-.31,1.59.45,3.24,2.1,3.69,1.47.4,3.38-.5,3.69-2.1,2.47-12.76-3.9-26.19-16-31.43-5.92-2.56-12.63-3.22-18.86-1.36-5.8,1.74-10.85,5.39-14.45,10.23-4.73,6.36-5.76,14.44-5.51,22.15.12,3.85,6.13,3.87,6,0h0Z"/><path class="cls-1" d="M57.04,33.25c-.52-3.32-1.05-6.73-.68-10.1.28-2.49,1.09-4.59,2.38-6.66,2.5-4.02,6.76-7.12,11.24-8.59,9.9-3.24,21.69.13,27.43,9.17,3.12,4.91,4.41,10.87,3.24,16.44-.33,1.58.46,3.24,2.1,3.69,1.49.41,3.36-.5,3.69-2.1,2.7-12.93-4.23-26.59-16.4-31.84S62.95.96,54.8,11.69c-2.05,2.7-3.55,5.9-4.14,9.25-.81,4.66-.13,9.28.6,13.9.25,1.6,2.25,2.49,3.69,2.1,1.71-.47,2.35-2.08,2.1-3.69h0Z"/></g></svg>