<?xml version="1.0" encoding="UTF-8"?><svg id="Lag_1" xmlns="http://www.w3.org/2000/svg" width="345" height="345" viewBox="0 0 345 345"><defs><style>.cls-1{fill:#3c3636;}.cls-1,.cls-2{stroke-width:0px;}.cls-2{fill:#f1ebeb;}</style></defs><g id="Ikoner"><g id="Ae"><rect id="Ai" class="cls-1" x="2.12" y="2.12" width="340.75" height="340.75"/></g></g><path class="cls-2" d="M179.72,62.4c-.42,47.11-.84,94.22-1.26,141.33-.06,6.56-.13,13.22-1.94,19.52-4.61,16.04-22.03,27.69-38.43,24.62s-28.59-21.44-23.92-37.47c4.47-15.33,21.49-24.26,37.45-24.35.06-12.82.11-25.63.17-38.45-29.5-5.48-61.66,11.82-73.35,39.46-4.13,9.76-5.87,20.42-6.09,31.02-.3,14.23,2.3,29.01,10.49,40.65,8.27,11.76,21.4,19.21,34.86,24.26,15.87,5.96,33.5,9.1,49.77,4.37,28-8.14,44.97-37.56,49.66-66.34,4.69-28.78.04-58.16.08-87.32,15.59,12.07,35.81,18.01,55.45,16.3-.09-11.89-.19-23.77-.28-35.66-26.54-4.13-47.9-29.9-47.03-56.74l-46.05-2.28"/></svg>