<?xml version="1.0" encoding="UTF-8"?><svg id="Lag_1" xmlns="http://www.w3.org/2000/svg" width="320.5" height="64" viewBox="0 0 320.5 64"><defs><style>.cls-1{fill:#3b3636;}.cls-1,.cls-2{stroke-width:0px;}.cls-2{fill:#f8f2f2;}</style></defs><g id="_ønskesky"><rect class="cls-1" width="320.5" height="64"/><path class="cls-2" d="M24.17,26.64c-3.57-.16-7.67.9-9.23,4.11-1.31,2.7-.28,6.08,1.76,8.27s4.91,3.41,7.75,4.37c9.63,3.24,20.02,4.1,30.09,2.75,4.35-.59,8.86-1.69,12.1-4.65s4.69-8.27,2.15-11.85c-2.63-3.72-7.96-4.02-12.51-3.72,1.09-3.22-.46-7.11-3.46-8.7s-7.09-.7-9.15,2.01c-1.75-5.15-8.16-8.16-13.25-6.21s-7.84,8.47-5.69,13.48"/><path class="cls-2" d="M95.59,28h-3.77v10.66h-2.15v-10.66h-3.76v-1.58h9.67v1.58Z"/><path class="cls-2" d="M97.07,38.66v-12.24h2.15v12.24h-2.15Z"/><path class="cls-2" d="M108.99,38.66h-7.43v-12.24h2.15v10.66h5.28v1.59Z"/><path class="cls-2" d="M117.39,28h-4.79v3.35h3.81v1.58h-3.81v5.73h-2.15v-12.24h6.94v1.59Z"/><path class="cls-2" d="M130.05,26.47l-1.35,1.55c.42.53.75,1.15.98,1.86.23.71.34,1.51.34,2.4,0,.61-.06,1.21-.18,1.77-.12.57-.3,1.1-.53,1.59-.23.49-.51.94-.84,1.34-.33.4-.7.75-1.12,1.03s-.87.51-1.36.66c-.49.16-1.01.23-1.56.23-.81,0-1.54-.13-2.18-.39-.64-.26-1.2-.63-1.68-1.12l-1.46,1.68-.84-.73,1.6-1.84c-.33-.54-.59-1.15-.76-1.83s-.26-1.42-.26-2.23c0-.93.13-1.78.39-2.55.26-.78.63-1.45,1.12-2.01s1.07-1,1.77-1.31,1.48-.47,2.35-.47c.67,0,1.3.1,1.88.29s1.1.47,1.56.84l1.3-1.5.84.73ZM121.11,32.35c0,.44.03.85.08,1.25.05.39.13.76.23,1.11l5.17-5.95c-.28-.31-.6-.55-.96-.71-.36-.16-.75-.25-1.18-.25-.5,0-.95.11-1.36.32-.41.21-.76.52-1.05.92-.29.4-.52.88-.69,1.44s-.25,1.19-.25,1.88ZM127.75,32.48c0-.54-.05-1.04-.14-1.5-.09-.46-.22-.88-.39-1.25l-5.29,6.1c.28.44.62.79,1.02,1.04.4.25.87.37,1.41.37s1.01-.13,1.43-.39c.42-.26.77-.61,1.07-1.05.29-.44.51-.95.67-1.52.15-.57.23-1.17.23-1.79Z"/><path class="cls-2" d="M138.86,34.64c0,.7-.07,1.31-.21,1.84s-.36.97-.66,1.33-.68.62-1.14.8c-.46.18-1.02.27-1.66.27-.44,0-.86-.04-1.26-.13s-.77-.24-1.11-.46c-.34-.22-.64-.52-.92-.89s-.5-.85-.69-1.42l2.12-.87c.14.4.29.73.43,1s.3.48.46.65.31.28.48.35c.16.07.32.11.48.11.19,0,.37-.02.55-.07.18-.04.35-.14.49-.29.15-.15.26-.36.35-.64.09-.28.13-.66.13-1.13v-8.66h2.15v8.23Z"/><path class="cls-2" d="M158.45,28h-3.77v10.66h-2.15v-10.66h-3.76v-1.58h9.67v1.58Z"/><path class="cls-2" d="M159.93,38.66v-12.24h2.15v12.24h-2.15Z"/><path class="cls-2" d="M171.85,38.66h-7.43v-12.24h2.15v10.66h5.28v1.59Z"/><path class="cls-2" d="M192.77,26.47l-1.35,1.55c.42.53.75,1.15.98,1.86.23.71.34,1.51.34,2.4,0,.61-.06,1.21-.18,1.77-.12.57-.3,1.1-.53,1.59-.23.49-.51.94-.84,1.34-.33.4-.7.75-1.12,1.03s-.87.51-1.36.66c-.49.16-1.01.23-1.56.23-.81,0-1.54-.13-2.18-.39-.64-.26-1.2-.63-1.68-1.12l-1.46,1.68-.84-.73,1.6-1.84c-.33-.54-.59-1.15-.76-1.83s-.26-1.42-.26-2.23c0-.93.13-1.78.39-2.55.26-.78.63-1.45,1.12-2.01s1.07-1,1.77-1.31,1.48-.47,2.35-.47c.67,0,1.3.1,1.88.29s1.1.47,1.56.84l1.3-1.5.84.73ZM183.83,32.35c0,.44.03.85.08,1.25.05.39.13.76.23,1.11l5.17-5.95c-.28-.31-.6-.55-.96-.71-.36-.16-.75-.25-1.18-.25-.5,0-.95.11-1.36.32-.41.21-.76.52-1.05.92-.29.4-.52.88-.69,1.44s-.25,1.19-.25,1.88ZM190.47,32.48c0-.54-.05-1.04-.14-1.5-.09-.46-.22-.88-.39-1.25l-5.29,6.1c.28.44.62.79,1.02,1.04.4.25.87.37,1.41.37s1.01-.13,1.43-.39c.42-.26.77-.61,1.07-1.05.29-.44.51-.95.67-1.52.15-.57.23-1.17.23-1.79Z"/><path class="cls-2" d="M196.92,29.89v8.77h-2.15v-12.24h2.03l5.2,8.8v-8.8h2.15l.03,12.24h-2.03l-5.23-8.77Z"/><path class="cls-2" d="M207.56,35.62c.28.29.52.53.74.73.22.2.43.36.65.48.22.12.45.21.7.27.25.05.54.08.89.08.27,0,.52-.03.78-.08.25-.05.48-.15.68-.28.2-.13.36-.3.48-.52.12-.22.18-.49.18-.82,0-.22-.04-.42-.13-.59-.09-.17-.22-.33-.4-.48-.18-.15-.4-.29-.66-.42s-.57-.28-.92-.43c-.12-.05-.23-.1-.33-.14-.1-.04-.19-.08-.28-.12-.09-.04-.18-.08-.27-.12-.09-.04-.18-.08-.28-.13-.2-.09-.42-.19-.66-.3s-.47-.23-.7-.38c-.23-.14-.46-.31-.67-.5-.22-.19-.41-.41-.57-.66s-.3-.54-.39-.86c-.1-.32-.15-.69-.15-1.1,0-.54.12-1,.35-1.4s.55-.72.93-.98c.39-.26.83-.45,1.33-.58s1.01-.19,1.54-.19c.4,0,.77.03,1.12.08.35.05.68.14,1,.26.31.12.62.27.91.46.29.19.58.41.88.67l-1.2,1.59c-.21-.21-.41-.41-.59-.58s-.38-.32-.58-.44c-.2-.12-.42-.21-.66-.27-.24-.06-.51-.09-.81-.09-.23,0-.46.02-.7.07-.24.05-.45.12-.64.23-.19.11-.35.25-.47.41-.12.17-.18.38-.18.62,0,.29.08.55.24.79.16.23.36.44.59.61.23.18.47.33.72.45.25.12.47.23.65.3.16.07.3.13.41.18.11.05.22.1.33.14s.23.1.36.15c.13.05.29.12.48.2.15.06.32.14.51.23s.38.2.57.33.39.28.57.45.35.38.5.61c.15.23.26.5.35.8.09.3.13.65.13,1.03s-.06.75-.18,1.07-.28.61-.48.87c-.21.25-.45.48-.73.67s-.58.35-.91.47c-.32.12-.66.21-1.01.28s-.7.09-1.06.09c-.48,0-.93-.04-1.34-.12-.41-.08-.8-.19-1.16-.35-.36-.15-.71-.34-1.04-.57-.33-.23-.64-.49-.94-.79l1.55-1.41Z"/><path class="cls-2" d="M216.78,38.66v-12.24h2.15v4.89l4.2-4.89h2.46l-5.35,5.86,5.62,6.38h-2.66l-4.27-4.89v4.89h-2.15Z"/><path class="cls-2" d="M234.82,28h-4.79v3.35h3.81v1.58h-3.81v4.14h4.99v1.59h-7.14v-12.24h6.94v1.59Z"/><path class="cls-2" d="M238,35.62c.28.29.52.53.74.73.22.2.43.36.65.48.22.12.45.21.7.27.25.05.54.08.89.08.27,0,.52-.03.78-.08.25-.05.48-.15.68-.28.2-.13.36-.3.48-.52.12-.22.18-.49.18-.82,0-.22-.04-.42-.13-.59-.09-.17-.22-.33-.4-.48-.18-.15-.4-.29-.66-.42s-.57-.28-.92-.43c-.12-.05-.23-.1-.33-.14-.1-.04-.19-.08-.28-.12-.09-.04-.18-.08-.27-.12-.09-.04-.18-.08-.28-.13-.2-.09-.42-.19-.66-.3s-.47-.23-.7-.38c-.23-.14-.46-.31-.67-.5-.22-.19-.41-.41-.57-.66s-.3-.54-.39-.86c-.1-.32-.15-.69-.15-1.1,0-.54.12-1,.35-1.4s.55-.72.93-.98c.39-.26.83-.45,1.33-.58s1.01-.19,1.54-.19c.4,0,.77.03,1.12.08.35.05.68.14,1,.26.31.12.62.27.91.46.29.19.58.41.88.67l-1.2,1.59c-.21-.21-.41-.41-.59-.58s-.38-.32-.58-.44c-.2-.12-.42-.21-.66-.27-.24-.06-.51-.09-.81-.09-.23,0-.46.02-.7.07-.24.05-.45.12-.64.23-.19.11-.35.25-.47.41-.12.17-.18.38-.18.62,0,.29.08.55.24.79.16.23.36.44.59.61.23.18.47.33.72.45.25.12.47.23.65.3.16.07.3.13.41.18.11.05.22.1.33.14s.23.1.36.15c.13.05.29.12.48.2.15.06.32.14.51.23s.38.2.57.33.39.28.57.45.35.38.5.61c.15.23.26.5.35.8.09.3.13.65.13,1.03s-.06.75-.18,1.07-.28.61-.48.87c-.21.25-.45.48-.73.67s-.58.35-.91.47c-.32.12-.66.21-1.01.28s-.7.09-1.06.09c-.48,0-.93-.04-1.34-.12-.41-.08-.8-.19-1.16-.35-.36-.15-.71-.34-1.04-.57-.33-.23-.64-.49-.94-.79l1.55-1.41Z"/><path class="cls-2" d="M247.23,38.66v-12.24h2.15v4.89l4.2-4.89h2.46l-5.35,5.86,5.62,6.38h-2.66l-4.27-4.89v4.89h-2.15Z"/><path class="cls-2" d="M261.22,38.66v-5.47l-3.78-6.77h2.38l2.62,5.09,2.44-5.09h2.37l-3.88,6.65v5.59h-2.15Z"/><path class="cls-2" d="M275.7,28h-4.79v3.35h3.81v1.58h-3.81v4.14h4.99v1.59h-7.14v-12.24h6.94v1.59Z"/><path class="cls-2" d="M279.81,29.89v8.77h-2.15v-12.24h2.03l5.2,8.8v-8.8h2.15l.03,12.24h-2.03l-5.23-8.77Z"/></g></svg>